{"glyphs":{"0":{"ha":694,"x_min":39,"x_max":646,"o":"m 47 40 l 39 64 l 119 115 l 119 617 l 88 643 l 88 660 q 238 681 172 658 q 344 729 303 703 q 371 748 360 739 q 390 765 382 757 l 407 767 l 569 671 l 639 713 l 646 686 l 572 640 l 572 111 q 592 104 583 108 q 600 89 600 100 q 590 79 600 82 q 565 76 581 76 q 513 69 546 76 q 444 49 481 61 q 398 31 421 40 q 356 11 375 21 q 331 -3 342 3 q 313 -17 319 -10 l 274 -17 q 247 -1 261 -10 q 215 18 232 8 q 204 24 210 21 q 193 32 199 28 q 144 57 168 46 q 103 68 119 68 q 91 65 99 68 q 76 58 83 63 q 71 55 74 57 q 65 51 68 53 q 55 45 60 49 q 47 39 50 42 l 47 40 m 225 122 l 385 57 l 467 86 l 467 617 l 308 683 l 225 656 l 225 122 l 225 122 z "},"1":{"ha":694,"x_min":135,"x_max":615,"o":"m 256 683 l 147 610 l 142 633 l 331 767 l 346 767 q 352 763 349 764 q 358 758 356 761 q 399 717 381 747 q 418 608 418 686 l 418 118 l 501 74 l 600 136 l 615 119 l 415 -17 l 389 -17 q 368 -3 379 -11 q 344 13 357 4 q 324 28 335 21 q 301 40 313 35 q 282 47 292 44 q 264 50 272 50 q 239 42 254 50 q 208 22 224 33 q 201 19 204 21 q 196 14 199 17 q 170 -4 182 4 q 150 -17 158 -12 l 135 3 l 313 121 l 313 606 q 299 649 313 632 q 269 676 286 667 q 262 679 265 678 q 256 682 258 681 l 256 683 z "},"2":{"ha":694,"x_min":53,"x_max":603,"o":"m 78 -6 l 53 -6 q 115 167 53 89 q 251 318 176 244 q 388 469 326 392 q 450 642 450 546 q 422 653 435 647 q 396 667 408 660 q 386 672 390 669 q 378 676 382 674 q 274 603 333 626 q 149 581 215 581 q 135 581 142 581 q 121 582 128 581 q 101 583 111 582 q 81 588 90 585 q 76 591 78 589 q 74 597 74 593 q 74 599 74 599 q 74 600 74 600 q 77 605 75 603 q 82 608 79 607 q 200 670 151 626 q 283 765 249 714 l 297 767 q 312 753 304 760 q 328 742 319 747 q 380 707 351 724 q 438 678 408 690 q 504 653 472 663 q 561 643 536 643 q 589 640 579 643 q 599 629 599 638 q 591 617 599 621 q 572 610 583 613 q 497 419 572 489 q 332 294 422 349 q 308 280 319 288 q 283 265 296 272 q 156 172 211 221 q 93 51 100 124 l 96 53 q 194 122 143 100 q 315 143 246 143 q 349 142 332 143 q 382 138 365 140 q 459 117 421 131 q 529 83 497 103 l 585 136 l 603 121 l 467 -17 l 444 -17 q 417 0 433 -10 q 381 19 401 10 q 303 53 347 38 q 204 68 258 68 q 201 68 203 68 q 199 68 200 68 q 126 49 160 67 q 78 -6 92 31 l 78 -6 z "},"3":{"ha":694,"x_min":50,"x_max":575,"o":"m 372 64 l 438 92 l 438 267 q 354 310 394 285 q 278 367 314 336 q 239 338 258 353 q 200 306 219 322 l 188 324 q 295 407 236 371 q 424 461 354 443 l 424 672 l 388 686 q 355 663 371 672 q 324 649 339 654 q 272 633 299 638 q 211 629 246 629 q 147 637 176 629 q 104 653 118 644 q 97 658 100 656 q 94 664 94 661 q 101 672 94 671 q 117 675 107 674 q 126 675 121 675 q 136 676 131 675 q 149 679 143 678 q 163 682 156 681 q 244 716 206 693 q 301 765 283 739 l 317 767 q 397 710 349 735 q 497 668 446 685 q 527 660 513 664 q 556 654 542 657 q 549 637 556 643 q 529 629 542 631 l 529 490 q 546 478 539 485 q 553 458 553 472 q 553 458 553 458 q 553 457 553 457 q 553 456 553 457 q 553 456 553 456 q 524 454 539 456 q 494 451 510 453 q 436 438 465 446 q 382 421 407 431 l 549 328 q 551 326 550 326 q 551 325 551 325 q 568 314 561 319 q 575 303 575 308 q 567 292 575 296 q 551 286 560 288 q 547 285 549 286 q 543 285 544 285 l 543 115 q 567 102 558 110 q 575 83 575 94 q 563 76 575 78 q 536 74 551 74 q 515 73 525 74 q 494 71 504 72 q 410 47 451 64 q 340 13 369 31 q 317 -3 328 4 q 300 -17 307 -10 l 275 -17 q 207 44 253 17 q 74 72 161 72 q 57 76 64 72 q 50 86 50 81 q 57 95 50 90 q 76 106 64 100 q 130 122 97 114 q 197 131 163 129 q 202 131 200 131 q 206 131 204 131 q 300 113 257 131 q 372 63 343 94 l 372 64 z "},"4":{"ha":694,"x_min":32,"x_max":633,"o":"m 32 254 l 32 335 l 396 767 l 419 767 q 469 726 447 743 q 510 701 492 708 l 546 732 l 561 715 l 479 643 l 479 279 l 633 279 l 633 254 l 479 254 l 479 115 l 522 81 l 583 117 l 599 92 l 443 -17 l 422 -17 q 413 -5 418 -11 q 400 8 407 1 q 378 29 390 19 q 356 43 367 39 q 348 45 351 44 q 342 46 344 46 q 331 44 336 46 q 319 40 325 43 q 300 28 310 35 q 282 14 290 21 q 278 10 281 11 q 275 7 276 8 l 256 24 l 374 110 l 374 254 l 32 254 l 32 254 m 338 658 l 138 417 l 138 279 l 374 279 l 374 635 l 338 658 l 338 658 z "},"5":{"ha":694,"x_min":56,"x_max":601,"o":"m 385 63 l 428 85 l 428 350 l 253 428 l 124 374 l 111 388 l 160 736 l 496 736 q 503 737 500 735 q 511 743 507 739 q 515 747 513 744 q 518 750 517 749 q 528 760 524 756 q 538 765 533 765 q 542 763 540 765 q 543 757 543 760 q 536 737 543 754 q 515 699 529 719 q 478 658 501 676 q 425 640 456 640 l 171 642 l 139 406 l 358 501 l 446 451 q 451 447 449 449 q 457 444 454 446 q 511 417 486 428 q 547 406 536 406 q 557 408 551 406 q 568 413 563 410 q 570 415 569 414 q 572 415 571 415 q 585 422 579 419 q 593 425 592 425 q 599 424 596 425 q 601 418 601 422 q 592 401 601 411 q 569 381 583 392 q 559 374 564 378 q 549 365 554 369 q 541 360 544 363 q 533 356 538 358 l 533 125 q 535 123 535 124 q 538 122 536 122 q 549 115 543 119 q 560 106 556 110 q 564 99 563 101 q 565 93 565 96 q 558 83 565 88 q 543 79 551 79 q 496 74 522 79 q 443 58 469 68 q 372 27 406 46 q 315 -10 338 8 q 310 -13 313 -11 q 307 -17 308 -15 l 286 -17 q 283 -14 285 -15 q 281 -11 282 -12 q 213 45 253 22 q 81 68 174 68 q 61 71 67 68 q 56 79 56 74 q 60 88 56 83 q 71 96 64 92 q 128 117 90 107 q 210 126 165 126 q 310 108 263 126 q 385 61 358 89 l 385 63 z "},"6":{"ha":694,"x_min":39,"x_max":651,"o":"m 60 50 l 39 68 l 124 125 l 124 611 q 120 610 122 610 q 115 611 118 610 q 97 616 106 613 q 89 626 89 619 q 97 639 89 635 q 117 643 104 643 q 174 656 135 643 q 254 690 213 669 q 299 713 276 701 q 339 738 321 725 q 360 751 350 744 q 378 765 369 758 l 401 767 q 417 753 407 760 q 438 738 426 746 q 485 713 458 724 q 539 701 511 701 q 560 703 550 701 q 581 707 571 704 q 591 710 586 708 q 601 714 596 713 l 604 694 q 578 673 590 682 q 556 657 567 664 q 510 636 533 643 q 453 629 486 629 q 366 645 401 629 q 307 682 331 661 l 229 653 l 229 382 l 442 497 l 504 464 q 510 459 507 461 q 517 456 514 457 q 562 432 542 443 q 592 421 582 421 q 600 422 596 421 q 608 424 604 422 q 622 431 615 426 q 633 439 628 435 q 635 440 635 439 q 638 442 636 440 l 651 426 l 582 379 l 582 121 q 587 118 585 119 q 592 115 589 117 q 601 109 596 113 q 607 101 606 106 q 609 98 608 100 q 610 94 610 96 q 602 82 610 86 q 583 78 594 78 q 542 75 563 78 q 499 68 521 72 q 398 36 447 57 q 315 -6 349 15 q 307 -11 311 -8 q 300 -17 303 -14 l 282 -17 q 258 0 274 -10 q 221 19 242 10 q 206 28 214 24 q 190 35 199 32 q 137 58 163 49 q 100 68 111 68 q 83 64 90 68 q 67 54 75 60 q 63 51 65 53 q 60 49 61 50 l 60 50 m 476 90 l 476 361 l 343 411 l 229 350 l 229 132 l 389 60 l 476 90 l 476 90 z "},"7":{"ha":694,"x_min":96,"x_max":633,"o":"m 611 767 l 633 767 q 569 642 613 714 q 478 493 525 569 q 474 488 476 490 q 471 482 472 485 q 358 290 408 382 q 307 153 307 199 q 307 144 307 149 q 308 136 307 140 q 320 97 311 115 q 347 68 329 78 l 419 119 l 435 96 l 275 -17 l 250 -17 q 241 -10 246 -14 q 231 0 236 -6 q 199 38 214 15 q 176 86 183 61 q 174 98 175 92 q 174 110 174 104 q 216 231 174 160 q 317 378 258 301 q 351 419 333 399 q 386 461 368 440 q 499 591 446 532 q 579 686 553 650 l 576 690 q 470 629 525 649 q 349 610 415 610 q 309 613 331 610 q 265 622 288 617 q 221 635 243 628 q 179 651 199 643 q 174 653 176 653 q 171 656 172 654 l 117 575 l 96 583 l 211 767 l 232 767 q 289 735 257 750 q 354 711 321 721 q 419 694 388 700 q 475 688 450 688 q 553 709 518 688 q 611 765 589 731 l 611 767 z "},"8":{"ha":694,"x_min":38,"x_max":624,"o":"m 113 122 l 113 279 l 88 292 l 88 308 q 124 311 103 307 q 167 322 144 315 q 199 333 182 326 q 229 344 215 339 q 252 356 242 350 q 269 367 263 363 l 103 446 l 103 460 l 132 472 l 132 633 l 106 647 l 106 664 q 153 672 129 667 q 201 682 178 676 q 305 717 254 696 q 394 765 356 738 l 417 767 q 449 752 429 761 q 488 732 468 743 q 490 731 489 731 q 492 729 492 731 q 542 703 519 715 q 574 692 565 692 q 594 694 585 692 q 611 701 604 697 q 618 704 615 703 q 624 707 621 706 l 624 688 l 560 636 l 560 494 l 582 481 l 582 464 q 533 458 558 463 q 482 444 507 453 q 449 434 465 440 q 415 422 432 428 q 406 419 411 421 q 397 415 401 417 l 568 338 q 591 324 581 331 q 601 308 601 318 q 594 298 601 301 q 578 293 588 294 q 577 292 578 292 q 575 292 576 292 l 575 115 l 592 100 l 592 83 q 416 48 494 76 q 297 -12 338 19 q 294 -15 296 -14 q 292 -17 293 -15 l 275 -17 q 261 -6 269 -11 q 243 7 253 0 q 215 25 231 17 q 183 42 199 33 q 133 63 157 54 q 94 71 110 71 q 85 69 90 71 q 76 65 81 68 q 70 63 74 64 q 64 58 67 61 q 58 55 61 57 q 53 51 56 53 l 38 63 l 113 122 l 113 122 m 218 132 l 382 60 l 476 90 l 476 276 l 299 356 l 218 318 l 218 132 l 218 132 m 454 460 l 454 640 l 324 701 l 238 668 l 238 494 l 376 428 l 454 460 l 454 460 z "},"9":{"ha":694,"x_min":39,"x_max":651,"o":"m 631 700 l 651 682 l 567 625 l 567 139 q 570 138 568 138 q 575 136 572 138 q 593 131 585 135 q 601 121 601 128 q 594 108 601 113 q 574 104 586 104 q 517 91 556 104 q 436 57 478 78 q 392 34 414 46 q 351 10 369 22 q 331 -3 340 3 q 313 -17 321 -10 l 289 -17 q 274 -5 283 -11 q 253 10 264 1 q 206 35 232 24 q 151 46 179 46 q 130 44 140 46 q 110 40 119 43 q 99 37 104 39 q 89 33 94 35 l 86 56 q 112 74 100 65 q 135 90 124 83 q 181 111 157 104 q 238 118 204 118 q 325 102 290 118 q 383 65 360 86 l 461 97 l 461 368 l 249 253 l 186 286 q 180 288 183 286 q 174 292 176 290 q 128 315 149 304 q 99 326 108 326 q 90 326 94 326 q 82 324 86 325 q 69 317 75 321 q 57 308 63 313 q 55 308 56 308 q 53 306 54 307 l 39 324 l 108 371 l 108 629 q 104 629 107 628 q 100 632 101 631 q 90 638 94 635 q 83 646 85 642 q 81 649 82 647 q 81 653 81 651 q 89 665 81 661 q 107 669 97 669 q 149 672 128 669 q 192 679 169 675 q 292 711 243 690 q 375 754 342 732 q 383 760 379 757 q 390 765 388 763 l 408 767 q 433 748 417 758 q 469 728 449 738 q 484 719 476 724 q 500 713 492 715 q 553 689 528 699 q 590 679 579 679 q 608 683 600 679 q 624 693 615 688 q 627 696 625 694 q 631 699 629 697 l 631 700 m 214 660 l 214 389 l 347 339 l 461 400 l 461 618 l 301 690 l 214 660 l 214 660 z "}," ":{"ha":347,"x_min":0,"x_max":0,"o":""},"!":{"ha":386,"x_min":32,"x_max":354,"o":"m 56 11 l 38 29 l 181 136 l 211 136 l 297 75 l 339 104 l 354 89 l 215 -19 l 186 -19 l 103 40 l 56 11 l 56 11 m 51 728 l 32 742 l 189 857 l 207 857 l 246 826 q 256 818 251 821 q 265 813 260 815 q 289 806 276 807 q 321 804 301 804 q 342 801 338 804 q 347 790 347 797 q 331 763 346 775 q 297 746 315 751 q 281 740 289 742 q 267 738 274 739 l 206 283 l 189 283 l 128 743 l 99 760 l 51 728 l 51 728 z "},"\"":{"ha":463,"x_min":83,"x_max":379,"o":"m 178 807 l 154 524 q 154 522 154 522 q 154 519 154 521 q 153 512 154 517 q 151 503 153 507 q 146 487 150 494 q 132 479 142 479 q 117 487 122 479 q 111 503 113 494 q 109 512 110 507 q 108 519 108 517 q 108 522 108 521 q 108 522 108 522 l 85 807 q 83 821 83 813 q 83 839 83 829 q 83 847 83 843 q 83 854 83 850 q 95 898 85 878 q 132 918 106 918 q 168 898 158 918 q 179 854 178 878 q 179 847 179 850 q 179 839 179 843 q 179 821 179 829 q 178 806 179 813 l 178 807 m 378 807 l 354 524 q 354 522 354 522 q 354 519 354 521 q 353 512 354 517 q 351 503 353 507 q 345 487 350 494 q 331 479 340 479 q 317 487 321 479 q 311 503 313 494 q 309 512 310 507 q 308 519 308 517 q 308 522 308 521 q 308 522 308 522 l 285 807 q 283 822 283 813 q 283 840 283 831 q 283 847 283 843 q 283 853 283 850 q 294 898 285 878 q 331 918 304 918 q 367 899 357 918 q 379 856 376 879 q 379 846 379 850 q 379 838 379 842 q 379 820 379 828 q 378 806 379 813 l 378 807 z "},"#":{"ha":694,"x_min":79,"x_max":610,"o":"m 578 293 l 575 238 l 461 238 l 428 0 l 368 0 l 403 238 l 257 238 l 224 0 l 164 0 l 199 238 l 79 238 l 83 293 l 206 293 l 228 454 l 111 454 l 114 510 l 236 510 l 268 750 l 329 750 l 294 510 l 440 510 l 474 750 l 533 750 l 499 510 l 610 510 l 606 454 l 492 454 l 469 293 l 578 293 l 578 293 m 432 454 l 288 454 l 264 293 l 410 293 l 432 454 l 432 454 z "},"$":{"ha":694,"x_min":-32,"x_max":664,"o":"m 664 744 l 513 613 q 488 648 500 631 q 465 681 476 665 l 463 682 l 463 471 q 603 393 544 440 q 663 257 663 346 q 624 121 663 190 q 517 -17 586 51 l 493 -17 l 463 -4 l 463 -172 l 438 -172 l 438 4 q 415 10 426 6 q 389 18 403 14 q 332 33 364 26 q 261 42 300 40 l 261 -172 l 236 -172 l 236 46 q 224 46 231 46 q 211 46 218 46 q 183 44 197 46 q 153 40 168 43 q 43 -6 93 29 q -7 -108 -7 -42 q 28 -189 -7 -157 q 106 -232 63 -221 q 108 -233 107 -232 q 110 -233 108 -233 l 110 -250 q 7 -199 46 -240 q -32 -90 -32 -158 q 33 40 -32 -12 q 178 119 99 93 q 208 129 193 125 q 236 136 222 133 l 236 421 q 108 491 161 447 q 54 608 54 535 q 110 737 54 686 q 236 804 165 788 l 236 919 l 261 919 l 261 811 q 286 813 274 813 q 310 814 299 814 q 374 809 342 814 q 438 793 407 804 l 438 919 l 463 919 l 463 788 q 530 758 497 775 q 593 719 563 740 l 644 764 l 664 744 l 664 744 m 463 347 l 463 128 q 490 120 476 124 q 518 111 504 117 q 544 101 531 107 q 572 90 558 96 q 577 97 575 93 q 582 103 579 100 q 615 154 600 128 q 629 213 629 181 q 581 293 629 263 q 463 346 533 324 l 463 347 m 261 411 l 261 142 q 290 144 276 143 q 317 146 304 146 q 377 143 347 146 q 438 133 407 140 l 438 356 q 417 360 428 357 q 394 368 406 364 q 361 377 378 372 q 328 388 344 382 q 294 399 311 393 q 261 410 278 404 l 261 411 m 261 789 l 261 538 q 303 521 282 528 q 347 507 325 514 q 369 499 358 503 q 393 493 381 496 q 415 485 404 489 q 438 478 426 482 l 438 713 q 367 767 407 746 q 269 789 326 789 q 266 789 268 789 q 261 788 264 789 l 261 789 m 236 547 l 236 785 q 225 781 231 782 q 214 778 219 779 q 144 740 176 767 q 113 674 113 714 q 147 597 113 626 q 236 546 182 567 l 236 547 z "},"%":{"ha":1157,"x_min":-19,"x_max":1174,"o":"m 819 767 l 881 767 l 326 -17 l 265 -17 l 819 767 l 819 767 m 713 88 l 713 328 q 710 327 711 326 q 708 328 710 328 q 692 340 700 332 q 683 365 683 347 q 737 369 708 365 q 794 382 765 374 q 882 412 840 393 q 954 451 924 431 l 986 453 q 1007 438 993 447 q 1036 418 1021 429 q 1041 416 1039 417 q 1044 414 1043 415 q 1079 392 1063 401 q 1104 383 1096 383 q 1126 389 1115 383 q 1146 400 1138 394 q 1154 406 1150 403 q 1161 411 1158 408 l 1174 394 l 1096 335 l 1096 122 q 1118 103 1108 115 q 1128 74 1128 90 q 977 47 1050 72 q 857 -8 904 21 q 851 -13 854 -11 q 846 -17 849 -15 l 825 -17 q 819 -13 822 -15 q 814 -10 817 -11 q 799 -2 807 -6 q 785 6 792 1 q 735 31 758 21 q 697 40 711 40 q 689 39 693 40 q 681 36 685 38 q 665 28 672 33 q 651 17 658 22 q 649 16 650 17 q 647 14 649 15 l 639 36 l 713 88 l 713 88 m 807 360 l 807 108 l 914 51 l 1001 83 l 1001 324 l 900 383 l 807 360 l 807 360 m 54 401 l 54 642 q 52 641 53 640 q 50 642 51 642 q 33 653 42 646 q 25 679 25 661 q 78 683 50 679 q 136 696 107 688 q 224 726 182 707 q 296 765 265 744 l 328 767 q 349 752 335 761 q 378 732 363 743 q 383 730 381 731 q 386 728 385 729 q 421 706 404 715 q 446 697 438 697 q 468 703 457 697 q 488 714 479 708 q 496 719 492 717 q 503 725 500 722 l 515 708 l 438 649 l 438 436 q 460 417 450 429 q 469 388 469 404 q 319 360 392 386 q 199 304 246 335 q 193 299 196 301 q 188 296 190 297 l 167 297 q 161 299 164 297 q 156 303 158 301 q 141 311 149 307 q 126 319 133 315 q 76 344 100 335 q 39 354 53 354 q 31 353 35 354 q 22 350 26 351 q 7 342 14 347 q -6 331 0 336 q -8 330 -7 331 q -10 328 -8 329 l -19 350 l 54 401 l 54 401 m 149 675 l 149 424 l 256 367 l 343 399 l 343 639 l 242 699 l 149 675 l 149 675 z "},"&":{"ha":1081,"x_min":40,"x_max":1038,"o":"m 1024 139 l 1038 117 q 951 13 1010 57 q 811 -31 893 -31 q 692 6 740 -31 q 601 100 644 43 q 591 115 596 107 q 581 129 586 122 q 428 15 513 61 q 244 -31 344 -31 q 235 -31 240 -31 q 226 -31 231 -31 q 99 16 157 -25 q 40 135 40 57 q 113 301 40 238 q 275 407 186 365 q 332 433 304 421 q 386 457 360 446 q 288 558 347 518 q 164 625 229 599 l 164 631 l 522 919 l 544 919 q 564 908 554 914 q 583 897 574 903 q 644 839 617 875 q 672 746 672 803 q 630 626 672 678 q 536 532 588 574 q 517 516 526 524 q 499 501 508 508 q 577 378 539 440 q 650 250 615 315 q 761 399 707 324 q 865 551 815 474 q 870 546 868 549 q 874 542 872 543 q 892 523 882 532 q 911 506 901 514 q 946 480 929 490 q 972 469 963 469 q 991 473 982 469 q 1008 482 1000 476 q 1014 485 1011 483 q 1019 489 1017 488 l 1038 474 q 988 401 1019 433 q 908 369 956 369 q 856 379 879 369 q 813 406 833 389 q 808 410 810 408 q 803 414 806 413 l 664 231 q 667 224 665 226 q 671 218 668 221 q 747 120 706 158 q 865 82 789 82 q 949 97 908 82 q 1024 138 989 111 l 1024 139 m 400 442 q 378 426 389 433 q 356 414 367 419 q 228 312 282 367 q 174 156 174 257 q 218 57 174 93 q 322 21 263 21 q 440 54 383 21 q 542 126 496 88 q 556 140 549 133 q 569 151 563 146 q 535 210 551 181 q 501 267 518 239 q 493 282 497 275 q 485 296 489 289 q 443 369 464 333 q 400 440 422 406 l 400 442 m 440 819 l 272 686 q 396 628 343 674 q 488 526 449 583 q 538 580 515 547 q 568 649 560 613 q 572 665 571 657 q 572 681 572 672 q 532 769 572 732 q 444 817 492 807 q 442 818 443 818 q 440 818 442 818 l 440 819 z "},"'":{"ha":308,"x_min":106,"x_max":201,"o":"m 200 807 l 176 524 q 176 522 176 522 q 176 519 176 521 q 176 512 176 517 q 174 503 175 507 q 167 487 172 494 q 153 479 163 479 q 139 487 143 479 q 133 503 135 494 q 131 512 132 507 q 131 519 131 517 q 131 522 131 521 q 131 522 131 522 l 107 807 q 106 822 106 813 q 106 840 106 831 q 106 847 106 843 q 106 853 106 850 q 117 898 107 878 q 153 918 126 918 q 189 899 179 918 q 201 856 199 879 q 201 846 201 850 q 201 838 201 842 q 201 820 201 828 q 200 806 201 813 l 200 807 z "},"(":{"ha":463,"x_min":75,"x_max":408,"o":"m 408 919 l 408 881 q 225 639 267 782 q 183 322 183 496 q 225 7 183 150 q 408 -233 267 -136 l 408 -272 q 159 -18 243 -179 q 75 322 75 143 q 159 663 75 501 q 408 918 243 825 l 408 919 z "},")":{"ha":463,"x_min":54,"x_max":388,"o":"m 54 -272 l 54 -233 q 238 7 196 -136 q 279 322 279 150 q 238 639 279 496 q 54 879 196 782 l 54 919 q 303 663 219 825 q 388 322 388 501 q 303 -18 388 143 q 54 -272 219 -179 l 54 -272 z "},"*":{"ha":694,"x_min":104,"x_max":581,"o":"m 286 889 l 394 889 l 368 696 l 547 779 l 581 681 l 381 647 l 525 503 l 440 439 l 346 619 l 249 440 l 165 499 l 310 647 l 104 676 l 140 776 l 317 697 l 286 889 l 286 889 z "},"+":{"ha":833,"x_min":165,"x_max":668,"o":"m 385 283 l 385 503 l 449 503 l 449 283 l 668 283 l 668 219 l 449 219 l 449 0 l 385 0 l 385 219 l 165 219 l 165 283 l 385 283 l 385 283 z "},",":{"ha":347,"x_min":54,"x_max":292,"o":"m 111 -212 l 99 -194 q 165 -135 138 -172 q 192 -58 192 -99 q 169 2 192 -19 q 115 29 147 24 l 69 0 l 54 19 l 203 121 l 215 121 q 229 115 222 118 q 244 107 236 113 q 277 70 263 94 q 292 7 292 46 q 259 -94 292 -50 q 186 -167 226 -137 q 146 -194 165 -182 q 111 -212 126 -206 l 111 -212 z "},"-":{"ha":463,"x_min":51,"x_max":407,"o":"m 103 208 l 69 172 l 51 183 l 142 294 l 360 294 l 388 326 l 407 313 l 319 208 l 103 208 l 103 208 z "},".":{"ha":347,"x_min":15,"x_max":332,"o":"m 33 14 l 15 32 l 158 139 l 189 139 l 275 78 l 317 107 l 332 92 l 193 -17 l 164 -17 l 81 43 l 33 14 l 33 14 z "},"/":{"ha":386,"x_min":-8,"x_max":394,"o":"m -8 -31 l 329 919 l 394 919 l 57 -31 l -8 -31 l -8 -31 z "},":":{"ha":347,"x_min":15,"x_max":332,"o":"m 15 32 l 158 139 l 189 139 l 275 78 l 317 107 l 332 92 l 193 -17 l 164 -17 l 81 43 l 33 14 l 15 32 l 15 32 m 15 413 l 158 519 l 189 519 l 275 458 l 317 488 l 332 472 l 193 364 l 164 364 l 81 424 l 33 394 l 15 413 l 15 413 z "},";":{"ha":347,"x_min":15,"x_max":332,"o":"m 115 -212 l 103 -194 q 169 -135 142 -172 q 196 -58 196 -99 q 174 2 196 -19 q 119 29 151 24 l 74 0 l 58 19 l 207 121 l 219 121 q 233 115 226 118 q 249 107 240 113 q 281 70 267 94 q 296 7 296 46 q 263 -94 296 -50 q 190 -167 231 -137 q 150 -194 169 -182 q 115 -212 131 -206 l 115 -212 m 15 413 l 158 519 l 189 519 l 275 458 l 317 488 l 332 472 l 193 364 l 164 364 l 81 424 l 33 394 l 15 413 l 15 413 z "},"<":{"ha":833,"x_min":165,"x_max":668,"o":"m 668 58 l 668 -8 l 165 222 l 165 281 l 668 511 l 668 444 l 249 251 l 668 58 l 668 58 z "},"=":{"ha":833,"x_min":165,"x_max":668,"o":"m 668 186 l 668 122 l 165 122 l 165 186 l 668 186 l 668 186 m 668 381 l 668 317 l 165 317 l 165 381 l 668 381 l 668 381 z "},">":{"ha":833,"x_min":165,"x_max":668,"o":"m 165 444 l 165 511 l 668 281 l 668 222 l 165 -8 l 165 58 l 585 251 l 165 444 l 165 444 z "},"?":{"ha":540,"x_min":69,"x_max":518,"o":"m 90 13 l 72 31 l 215 138 l 246 138 l 332 76 l 374 106 l 389 90 l 250 -18 l 221 -18 l 138 42 l 90 13 l 90 13 m 249 221 l 228 208 q 222 218 225 213 q 215 229 218 224 q 203 254 210 242 q 193 279 197 267 q 185 305 188 292 q 182 331 182 318 q 226 438 182 397 q 321 514 269 479 q 328 518 325 515 q 335 522 332 521 q 422 590 383 554 q 460 681 460 626 q 435 747 460 719 q 379 785 410 775 q 365 789 372 788 q 350 790 357 790 q 253 747 294 790 q 186 650 211 703 q 172 617 178 633 q 161 585 165 600 l 69 668 q 165 773 107 728 q 311 818 222 818 q 341 815 325 818 q 372 807 357 813 q 472 740 426 788 q 518 628 518 692 q 472 509 518 554 q 372 429 426 464 q 340 410 356 419 q 310 390 325 400 q 251 344 275 368 q 226 289 226 319 q 227 278 226 283 q 228 267 228 272 q 235 242 231 254 q 249 219 240 229 l 249 221 z "},"@":{"ha":1111,"x_min":78,"x_max":1033,"o":"m 729 615 l 744 669 l 838 669 l 747 314 q 745 297 746 307 q 744 276 744 288 q 745 270 744 274 q 747 263 746 267 q 762 242 750 251 q 797 232 774 232 q 917 297 871 232 q 979 439 964 361 q 984 476 982 457 q 986 511 986 494 q 981 560 986 535 q 968 613 976 586 q 834 798 933 714 q 581 882 735 882 q 299 760 415 882 q 183 407 183 638 q 294 138 183 260 q 593 15 406 15 q 730 31 674 15 q 838 68 786 46 q 852 74 844 71 q 867 81 860 78 l 885 47 q 747 -8 818 15 q 594 -31 675 -31 q 269 66 389 -31 q 106 281 150 163 q 85 353 92 317 q 78 422 78 389 q 227 781 78 644 q 581 918 376 918 q 902 802 771 918 q 1033 513 1033 686 q 1031 469 1033 492 q 1022 424 1028 447 q 938 260 1000 335 q 776 185 875 185 q 713 200 738 185 q 675 235 689 215 q 659 262 664 249 q 654 281 654 275 q 654 282 654 282 q 654 282 654 282 l 651 283 q 635 263 646 275 q 610 236 625 250 q 558 200 589 217 q 492 183 528 183 q 467 186 481 183 q 440 196 454 189 q 384 247 410 210 q 358 357 358 285 q 367 422 358 383 q 396 503 376 461 q 486 630 428 572 q 631 688 544 688 q 691 669 672 688 q 721 629 710 651 q 724 624 722 626 q 726 619 725 622 q 727 617 726 618 q 729 614 728 615 l 729 615 m 708 542 q 694 606 708 583 q 649 629 679 629 q 612 622 632 629 q 571 600 592 614 q 490 506 526 568 q 453 357 453 444 q 479 267 453 293 q 544 242 506 242 q 573 249 558 242 q 604 271 588 257 q 669 371 639 303 q 708 540 699 439 l 708 542 z "},"A":{"ha":1157,"x_min":32,"x_max":1125,"o":"m 828 279 l 417 279 l 343 119 q 348 118 346 118 q 351 118 350 118 q 474 105 415 117 q 568 63 533 93 l 647 114 l 664 99 l 476 -31 l 444 -31 q 429 -21 438 -26 q 411 -10 421 -15 q 343 17 383 4 q 250 29 303 29 q 233 28 242 29 q 215 26 224 28 q 106 -19 156 18 q 57 -121 57 -56 q 113 -233 57 -200 q 235 -274 168 -265 q 276 -277 256 -276 q 314 -278 296 -278 q 366 -274 340 -278 q 417 -265 392 -271 l 425 -293 q 403 -295 414 -294 q 383 -297 393 -296 q 348 -301 365 -300 q 313 -303 331 -303 q 276 -302 294 -303 q 239 -299 257 -301 q 97 -251 161 -290 q 32 -121 32 -212 q 89 13 32 -44 q 215 96 146 69 q 265 113 240 107 q 311 118 289 118 l 503 543 q 468 576 489 564 q 419 588 447 588 q 366 572 392 588 q 326 531 340 556 l 306 540 q 360 641 321 600 q 468 682 400 682 q 513 677 492 682 q 554 660 535 672 l 608 775 q 565 797 589 789 q 518 808 542 806 q 505 810 511 810 q 493 810 499 810 q 433 801 458 810 q 385 775 408 792 q 367 761 375 768 q 349 746 358 754 l 331 757 q 416 869 358 821 q 547 918 474 918 q 610 906 581 918 q 665 875 639 894 l 688 919 l 706 919 q 726 831 713 872 q 757 749 740 789 l 1007 142 q 1021 114 1013 126 q 1038 90 1029 101 q 1057 70 1047 78 q 1072 61 1067 63 l 1111 85 l 1125 68 l 1028 -3 q 1021 -8 1025 -6 q 1014 -14 1017 -11 q 1013 -15 1013 -15 q 1011 -15 1013 -15 q 1002 -24 1007 -21 q 994 -31 997 -28 l 968 -31 q 918 40 940 -6 q 878 136 896 86 q 851 213 864 175 q 828 278 839 250 l 828 279 m 783 379 l 626 756 l 458 379 l 783 379 l 783 379 z "},"B":{"ha":1081,"x_min":24,"x_max":1021,"o":"m 653 69 l 653 663 l 678 663 l 678 472 q 824 565 788 493 q 860 738 860 636 q 860 741 860 739 q 860 746 860 743 q 847 833 860 793 q 772 874 833 874 q 733 866 757 874 q 685 846 710 858 q 613 788 646 824 q 579 707 579 753 l 579 328 q 542 224 579 260 q 463 168 506 189 q 435 156 449 161 q 408 146 421 151 l 408 176 q 451 214 442 186 q 463 272 461 242 q 463 278 463 275 q 463 283 463 281 l 463 663 q 485 713 463 681 q 546 778 508 744 q 615 833 576 806 q 692 879 653 860 q 758 908 725 897 q 821 918 792 918 q 939 870 890 918 q 988 751 988 822 q 928 598 988 660 q 796 494 869 536 l 796 493 q 819 488 807 490 q 844 482 832 485 q 941 443 897 469 q 985 367 985 417 l 985 122 q 996 94 985 103 q 1021 79 1007 85 l 1011 63 q 957 65 985 64 q 901 67 929 67 q 764 49 818 67 q 675 10 710 32 q 639 -11 654 0 q 610 -31 624 -22 l 568 -31 q 547 -22 557 -26 q 526 -12 538 -17 q 436 15 483 4 q 325 26 389 26 q 282 24 306 26 q 235 15 258 21 q 133 -31 179 1 q 86 -121 86 -64 q 149 -241 86 -207 q 288 -278 213 -275 q 295 -278 292 -278 q 303 -278 299 -278 q 373 -273 339 -278 q 442 -260 407 -268 l 456 -286 q 442 -289 450 -287 q 428 -292 435 -290 q 395 -296 413 -293 q 361 -300 378 -299 q 335 -302 347 -301 q 310 -303 322 -303 q 301 -303 306 -303 q 292 -303 296 -303 q 133 -260 204 -299 q 61 -119 61 -221 q 130 8 61 -43 q 282 85 199 58 q 368 106 326 99 q 442 113 410 113 q 549 101 496 113 q 653 68 603 89 l 653 69 m 868 93 l 868 171 q 815 188 842 183 q 758 193 788 193 q 740 192 750 193 q 719 188 731 190 q 708 185 714 186 q 697 182 703 183 q 687 178 692 179 q 678 175 682 176 l 678 58 l 697 50 q 781 77 738 64 q 868 92 825 90 l 868 93 m 868 200 l 868 325 q 838 313 854 318 q 807 306 822 308 q 792 303 800 304 q 776 303 785 303 q 726 308 750 303 q 678 326 701 314 l 678 203 q 719 213 699 208 q 763 218 740 218 q 816 212 790 218 q 868 199 842 206 l 868 200 m 678 447 l 678 351 q 728 333 703 339 q 782 328 754 328 q 826 334 804 328 q 868 349 847 340 l 868 400 q 852 436 868 419 q 818 464 836 453 q 802 472 810 468 q 788 479 794 476 l 678 447 l 678 447 m 274 201 l 274 419 l 246 419 q 178 406 199 418 q 149 350 158 394 l 124 351 q 153 466 124 429 q 274 513 183 503 l 274 582 q 313 665 274 631 q 397 719 351 700 q 419 727 408 724 q 439 733 429 731 l 447 715 q 407 685 424 704 q 390 621 390 665 l 390 267 q 339 169 390 208 q 225 107 288 131 l 228 140 q 230 140 229 139 q 232 140 231 140 q 260 161 247 146 q 274 200 274 176 l 274 201 m 556 894 l 574 881 q 483 803 535 836 q 371 769 432 769 q 322 778 350 769 q 264 797 294 788 q 249 803 257 800 q 233 808 242 806 q 188 824 210 817 q 146 832 165 832 q 76 804 103 832 q 49 732 49 776 q 56 697 49 714 q 74 667 64 681 l 57 656 q 32 696 40 674 q 24 744 24 718 q 75 857 24 811 q 189 914 126 903 q 208 917 199 917 q 226 918 217 918 q 298 909 263 918 q 364 888 333 900 q 422 865 396 875 q 464 856 447 856 q 508 865 489 856 q 546 886 528 874 q 551 890 549 888 q 556 893 553 892 l 556 894 z "},"C":{"ha":926,"x_min":49,"x_max":897,"o":"m 388 889 l 392 872 q 224 716 283 818 q 165 494 165 614 q 266 181 165 308 q 567 54 367 54 q 628 58 601 54 q 681 67 656 61 l 681 775 q 606 786 642 774 q 539 825 569 799 l 496 797 l 496 317 q 457 203 496 249 q 356 146 418 158 l 350 167 q 370 193 364 176 q 378 226 376 210 q 379 235 379 231 q 379 243 379 239 l 379 704 l 240 604 l 240 633 l 615 919 l 631 919 q 643 909 636 914 q 660 899 650 904 q 696 881 675 889 q 742 874 717 874 q 806 883 776 874 q 863 907 836 892 l 869 894 q 807 819 853 854 q 706 774 761 785 l 706 76 q 801 122 758 93 q 882 186 843 151 l 897 172 q 728 21 824 72 q 510 -31 633 -31 q 179 84 310 -31 q 49 403 49 199 q 144 698 49 564 q 388 888 239 832 l 388 889 z "},"D":{"ha":1081,"x_min":24,"x_max":999,"o":"m 531 129 l 531 800 q 506 796 518 797 q 481 792 493 794 q 458 789 469 790 q 435 786 447 788 q 395 782 415 783 q 354 781 375 781 q 338 781 346 781 q 321 782 329 781 q 190 815 251 786 q 106 918 128 843 l 138 919 q 181 884 149 896 q 261 872 213 872 q 344 876 301 872 q 432 888 388 881 q 457 892 444 890 q 482 896 469 894 q 590 912 539 906 q 682 918 642 918 q 703 918 693 918 q 725 917 714 918 q 895 874 818 913 q 972 722 972 835 l 972 129 q 982 116 975 121 q 999 108 989 111 l 999 83 q 985 83 992 82 q 972 83 979 83 q 946 85 958 85 q 919 86 933 86 q 783 65 839 86 q 686 17 726 43 q 649 -9 667 3 q 618 -31 632 -21 l 583 -31 q 558 -14 574 -24 q 524 4 543 -4 q 422 42 482 25 q 293 60 363 60 q 260 58 276 60 q 226 54 243 57 q 104 3 160 42 q 49 -111 49 -36 q 105 -222 49 -185 q 229 -271 161 -258 q 273 -276 251 -275 q 314 -278 294 -278 q 365 -275 342 -278 q 408 -268 388 -272 q 422 -267 415 -268 q 436 -264 429 -265 q 456 -260 446 -262 q 478 -257 467 -258 l 492 -282 q 454 -290 474 -286 q 415 -296 435 -293 q 364 -301 389 -299 q 315 -303 339 -303 q 264 -300 292 -303 q 208 -290 236 -297 q 81 -235 139 -275 q 24 -122 24 -196 q 112 53 24 -4 q 306 129 200 111 q 369 138 338 135 q 429 140 400 140 q 463 138 446 140 q 496 133 479 136 q 513 131 504 132 q 531 128 522 129 l 531 129 m 856 113 l 856 303 q 786 331 822 319 q 711 343 750 343 q 651 338 681 343 q 594 324 622 332 q 575 317 585 321 q 556 311 565 314 l 556 122 q 633 98 596 111 q 706 61 671 85 q 779 93 742 81 q 856 111 817 106 l 856 113 m 556 574 l 556 338 q 629 358 592 349 q 706 368 667 368 q 783 359 746 368 q 856 329 821 350 l 856 565 q 783 542 821 550 q 707 535 746 535 q 630 545 668 535 q 556 572 592 556 l 556 574 m 556 806 l 556 601 q 637 570 594 581 q 722 560 679 560 q 733 560 728 560 q 746 561 739 560 q 802 570 774 563 q 856 592 831 578 l 856 689 q 819 790 856 761 q 693 818 783 818 q 659 816 676 818 q 625 811 642 814 q 590 806 607 808 q 556 804 572 804 l 556 806 m 472 757 l 479 739 q 476 735 478 736 q 471 732 474 733 q 446 708 456 721 q 436 671 436 694 l 436 307 q 398 208 436 249 q 278 160 360 168 l 278 181 q 283 182 281 181 q 289 185 286 183 q 310 206 300 192 q 319 240 319 219 l 319 418 l 289 418 q 236 403 250 417 q 215 353 222 389 l 197 354 q 194 381 196 367 q 192 413 192 396 q 221 496 192 479 q 307 519 250 513 q 313 520 310 519 q 321 521 317 521 l 319 589 q 350 681 319 647 q 418 733 381 715 q 446 746 432 740 q 472 756 460 751 l 472 757 z "},"E":{"ha":1003,"x_min":15,"x_max":982,"o":"m 493 163 l 493 692 q 570 856 494 793 q 743 918 646 918 q 805 908 776 918 q 861 886 833 899 q 884 874 872 879 q 907 861 896 868 q 915 858 911 860 q 921 854 918 856 l 967 885 l 982 867 l 815 744 q 784 771 799 758 q 756 793 769 783 q 706 820 732 811 q 638 829 679 829 q 619 828 629 829 q 600 824 610 826 q 544 784 569 814 q 518 690 518 754 l 518 524 q 596 569 554 550 q 683 589 638 589 q 767 571 732 589 q 833 517 803 553 l 892 558 l 911 535 l 743 425 l 743 132 q 806 103 775 119 q 865 68 836 88 l 915 104 l 932 85 l 774 -31 l 738 -31 q 710 -13 733 -28 q 647 19 686 1 q 540 56 603 39 q 399 72 478 72 q 359 70 379 72 q 318 64 339 68 q 192 10 249 50 q 135 -107 135 -31 q 189 -222 135 -181 q 308 -274 243 -262 q 333 -276 321 -275 q 358 -278 346 -278 q 458 -271 408 -278 q 551 -249 507 -264 l 571 -271 q 467 -294 518 -286 q 364 -303 415 -303 q 348 -302 356 -303 q 332 -301 340 -301 q 179 -245 249 -294 q 110 -103 110 -196 q 187 51 110 -10 q 357 140 264 113 q 428 156 393 150 q 493 161 463 161 l 493 163 m 518 493 l 518 163 q 617 156 567 161 q 718 140 667 151 l 718 397 q 687 467 717 439 q 622 507 657 496 q 601 512 611 510 q 581 514 590 514 q 549 508 564 514 q 518 492 533 501 l 518 493 m 438 753 l 447 736 q 439 730 443 733 q 431 722 435 726 q 410 693 419 711 q 401 651 401 675 l 401 297 q 359 203 401 239 q 256 143 317 167 l 243 171 q 249 172 246 171 q 254 175 251 174 q 275 196 265 182 q 285 231 285 210 l 285 406 l 257 406 q 190 394 210 404 q 160 350 169 385 l 135 351 q 153 466 135 419 q 228 513 172 513 l 286 514 l 285 613 q 315 679 285 651 q 383 725 346 707 q 411 740 397 733 q 438 751 425 746 l 438 753 m 519 918 l 533 908 q 433 806 488 836 q 294 776 378 776 q 246 783 271 776 q 196 796 221 789 q 149 809 172 803 q 106 815 125 815 q 60 797 79 815 q 40 750 40 778 q 56 699 40 722 q 93 661 71 676 l 79 644 q 67 653 74 649 q 57 664 61 658 q 26 706 36 683 q 15 761 15 728 q 57 851 15 813 q 149 906 99 889 q 182 915 165 913 q 214 918 199 918 q 249 915 231 918 q 285 908 267 913 q 308 902 296 906 q 332 896 321 899 q 383 883 360 889 q 421 876 407 876 q 473 888 449 876 q 519 917 497 899 l 519 918 z "},"F":{"ha":1157,"x_min":24,"x_max":1142,"o":"m 782 411 l 782 147 q 710 30 782 75 q 551 -28 638 -15 q 526 -30 539 -29 q 501 -31 514 -31 q 417 -21 458 -31 q 339 0 376 -11 q 266 19 300 10 q 201 28 232 28 q 91 -7 133 28 q 49 -114 49 -42 q 100 -215 49 -178 q 214 -267 151 -251 q 261 -275 238 -272 q 306 -278 285 -278 q 409 -271 358 -278 q 507 -254 460 -264 l 514 -278 q 413 -296 464 -289 q 308 -303 361 -303 q 274 -301 292 -303 q 239 -297 257 -300 q 91 -240 158 -286 q 24 -100 24 -194 q 98 60 24 -1 q 267 122 172 122 q 386 106 332 122 q 483 68 440 89 q 562 33 528 47 q 618 18 596 18 q 653 40 642 18 q 665 92 665 61 l 665 757 q 707 776 685 765 q 751 799 729 786 q 842 854 799 824 q 913 918 885 885 l 931 919 q 963 882 942 896 q 1007 868 983 868 q 1073 883 1043 868 q 1126 918 1103 899 l 1142 906 q 1050 810 1101 853 q 922 760 999 767 l 922 511 l 956 511 l 956 489 l 922 457 l 922 -267 q 915 -297 922 -289 q 893 -306 907 -306 q 874 -299 881 -306 q 867 -281 867 -293 q 874 -260 867 -267 q 892 -253 882 -254 q 894 -253 893 -253 q 897 -253 896 -253 l 897 436 q 891 428 894 432 q 885 422 888 425 q 873 413 879 417 q 860 410 867 410 l 782 411 l 782 411 m 815 807 l 783 790 l 783 511 l 897 511 l 897 764 q 881 767 889 764 q 863 775 872 771 q 849 783 856 779 q 838 790 843 786 q 825 799 831 794 q 815 806 819 803 l 815 807 m 569 617 l 569 282 q 523 190 569 224 q 411 140 476 156 l 407 175 q 415 176 411 175 q 422 178 418 176 q 443 202 433 183 q 453 268 453 221 l 453 411 l 394 411 q 351 398 365 410 q 331 358 336 386 l 308 360 q 308 363 308 361 q 307 367 307 364 q 305 378 306 372 q 304 393 304 385 q 344 476 304 450 q 429 514 383 503 q 442 516 436 515 q 453 518 447 517 l 453 597 q 456 613 453 604 q 463 629 458 621 q 508 680 478 656 q 571 721 538 704 q 588 729 579 725 q 606 736 597 733 l 611 714 q 605 710 608 713 q 597 704 601 708 q 578 672 588 694 q 569 615 569 649 l 569 617 m 251 660 l 236 644 q 193 694 207 665 q 179 760 179 724 q 244 874 179 835 q 385 918 308 913 q 396 918 390 918 q 407 918 401 918 q 474 913 447 918 q 522 900 500 907 q 528 899 525 900 q 533 897 531 899 q 538 895 536 896 q 543 894 540 894 q 551 892 547 893 q 560 889 556 890 q 592 880 575 883 q 626 876 608 876 q 670 881 651 876 q 707 894 689 886 q 724 906 715 900 q 743 918 733 911 l 754 903 q 685 836 728 867 q 596 792 642 806 q 566 785 581 788 q 536 782 551 782 q 485 787 508 782 q 442 799 463 792 q 427 803 435 800 q 413 807 419 806 q 407 809 410 808 q 401 810 404 810 q 397 811 400 811 q 393 813 394 811 q 347 824 371 818 q 294 829 324 829 q 289 829 292 829 q 283 829 286 829 q 229 805 254 825 q 204 753 204 785 q 217 699 204 725 q 251 658 229 674 l 251 660 z "},"G":{"ha":1003,"x_min":17,"x_max":969,"o":"m 389 897 l 389 871 q 226 713 275 818 q 168 492 178 607 q 165 447 165 469 q 164 403 164 425 q 253 101 164 208 q 551 -6 343 -6 l 551 476 l 476 390 l 476 231 q 474 213 476 221 q 469 196 472 204 q 418 129 456 161 q 325 79 381 97 l 318 103 q 351 132 342 115 q 360 175 360 149 l 360 692 l 267 633 l 261 660 l 646 919 l 671 919 q 699 888 679 899 q 742 871 719 876 q 767 867 754 868 q 789 865 779 865 q 869 881 831 865 q 943 918 908 896 l 957 906 l 619 547 l 622 544 q 651 549 636 547 q 682 550 667 550 q 880 478 790 550 q 969 292 969 407 q 879 93 969 168 q 681 -10 789 18 q 607 -26 643 -21 q 538 -31 571 -31 q 524 -31 531 -31 q 510 -31 517 -31 q 171 99 325 -21 q 17 408 17 219 q 128 707 17 582 q 389 896 239 832 l 389 897 m 576 151 l 576 -6 q 717 33 658 -6 q 803 149 776 72 q 744 165 774 160 q 683 171 715 171 q 656 169 669 171 q 631 167 643 168 q 603 160 617 164 q 576 150 590 156 l 576 151 m 576 357 l 576 183 q 640 192 608 189 q 701 196 671 196 q 724 194 713 196 q 746 192 735 193 q 773 185 760 189 q 800 178 786 182 q 806 177 803 178 q 811 175 808 176 q 828 233 821 203 q 836 293 836 263 q 835 326 836 310 q 831 357 833 342 q 792 344 813 349 q 753 338 772 340 q 728 335 740 336 q 704 335 715 335 q 672 336 688 335 q 640 340 656 338 q 609 347 625 343 q 576 356 593 350 l 576 357 m 576 504 l 576 389 q 617 373 596 379 q 658 364 638 367 q 690 360 675 361 q 721 360 706 360 q 744 362 731 360 q 772 367 758 364 q 803 374 789 369 q 828 383 818 378 q 774 483 813 442 q 664 525 735 525 q 643 524 654 525 q 621 519 632 522 q 598 513 608 517 q 576 503 588 508 l 576 504 m 551 668 l 576 668 l 576 543 l 846 822 l 843 825 q 767 793 813 807 q 669 779 722 779 q 605 790 635 779 q 547 819 575 800 l 476 775 l 476 436 l 479 436 l 551 519 l 551 668 l 551 668 z "},"H":{"ha":1081,"x_min":7,"x_max":1069,"o":"m 499 64 l 499 861 q 438 814 472 833 q 368 786 404 794 q 343 782 356 783 q 319 781 331 781 q 264 787 290 781 q 213 801 238 793 q 165 817 188 810 q 119 824 142 824 q 57 803 81 824 q 33 751 33 783 q 41 713 33 726 q 63 688 49 699 q 75 677 68 682 q 89 667 82 672 l 78 650 q 29 687 50 660 q 8 744 8 714 q 60 855 8 808 q 172 914 111 901 q 193 917 183 915 q 213 918 203 918 q 266 913 242 918 q 313 900 290 907 q 318 899 315 900 q 324 897 321 899 q 337 894 331 896 q 350 889 343 892 q 389 879 369 883 q 429 875 408 875 q 469 881 453 875 q 500 899 485 886 q 511 908 506 903 q 522 918 517 913 l 536 903 q 535 901 536 901 q 533 900 533 900 q 526 892 529 897 q 524 881 524 886 l 524 700 q 539 696 531 697 q 557 692 547 694 q 581 688 568 690 q 607 685 594 686 q 637 682 622 683 q 664 681 651 681 q 672 681 668 681 q 681 681 676 681 q 741 685 711 682 q 797 693 771 689 q 808 694 803 693 q 817 696 813 694 l 817 782 l 749 824 l 697 794 l 692 819 l 865 919 l 925 878 q 933 871 929 874 q 939 865 936 868 q 942 863 940 864 q 946 860 944 861 q 961 849 953 854 q 978 844 969 844 q 989 845 983 844 q 1001 849 994 846 q 1024 858 1013 851 q 1044 869 1036 864 l 1054 847 l 933 768 l 933 103 l 1010 57 l 1053 79 l 1069 61 l 961 3 q 949 -3 956 0 q 938 -11 943 -7 q 924 -20 931 -15 q 913 -31 918 -25 l 878 -31 q 863 -19 872 -26 q 843 -1 854 -11 q 825 10 835 4 q 806 22 815 17 q 792 27 799 25 q 778 29 785 29 q 753 22 765 29 q 732 6 742 14 q 724 0 728 3 q 717 -6 721 -3 l 699 14 l 817 96 l 817 203 q 799 204 808 203 q 779 208 789 206 q 731 215 756 211 q 681 219 706 218 q 672 219 676 219 q 664 219 668 219 q 637 218 651 219 q 607 214 622 217 q 586 211 597 213 q 565 207 575 210 q 542 202 553 204 q 524 199 532 200 l 524 61 l 585 99 l 594 72 l 419 -31 l 388 -31 q 365 -22 378 -26 q 338 -11 353 -17 q 272 6 310 -1 q 185 14 235 14 q 78 -17 125 14 q 32 -112 32 -47 q 89 -220 32 -185 q 214 -268 146 -256 q 267 -276 240 -274 q 315 -278 293 -278 l 315 -303 q 288 -302 301 -303 q 258 -300 274 -301 q 85 -249 164 -293 q 7 -94 7 -206 q 70 36 7 -11 q 208 103 133 83 q 257 111 233 108 q 303 114 281 114 q 390 101 347 114 q 474 72 432 88 q 486 67 479 69 q 499 63 493 65 l 499 64 m 817 231 l 817 418 l 524 418 l 524 228 q 540 229 531 228 q 558 233 549 231 q 582 237 569 235 q 607 240 594 239 q 638 243 622 242 q 667 244 653 244 q 673 244 669 244 q 681 244 676 244 q 742 240 711 243 q 799 232 772 236 q 808 231 803 232 q 817 229 813 231 l 817 231 m 524 678 l 524 518 l 817 518 l 817 675 q 799 671 808 672 q 781 667 790 669 q 733 660 758 664 q 681 656 707 657 q 673 656 676 656 q 667 656 669 656 q 638 657 653 656 q 607 661 622 658 q 586 665 596 663 q 567 668 576 667 q 544 673 554 671 q 524 676 533 675 l 524 678 m 451 775 l 456 750 q 427 729 439 742 q 415 689 415 717 l 415 247 q 375 187 415 208 q 269 147 335 165 q 263 147 267 147 q 257 144 260 146 l 257 165 q 263 167 260 165 q 268 169 265 168 q 289 190 279 176 q 299 225 299 204 l 299 418 l 250 418 q 194 391 213 417 q 176 329 176 365 l 142 331 q 136 352 139 340 q 133 376 133 364 q 132 388 132 382 q 132 400 132 394 q 163 490 132 463 q 233 517 194 517 l 299 518 l 299 607 q 329 694 299 660 q 397 750 360 729 q 425 763 411 757 q 451 774 439 769 l 451 775 z "},"I":{"ha":1003,"x_min":17,"x_max":918,"o":"m 318 -278 l 335 -303 q 291 -300 314 -303 q 246 -293 268 -297 q 88 -215 160 -274 q 17 -56 17 -157 q 88 128 17 46 q 267 210 160 210 q 390 176 343 210 q 475 101 438 142 q 486 90 481 96 q 497 78 492 83 q 565 19 529 44 q 650 -6 600 -6 q 743 35 717 -6 q 769 171 769 75 l 769 732 q 794 826 769 788 q 849 886 819 865 q 888 909 869 901 q 918 918 907 917 l 918 894 q 916 892 917 893 q 914 892 915 892 q 895 862 904 885 q 886 813 886 839 l 886 222 q 834 60 886 114 q 719 -12 782 7 q 653 -26 685 -22 q 597 -31 621 -31 q 449 -7 501 -31 q 360 46 397 17 q 346 57 353 51 q 333 68 339 63 q 272 107 304 90 q 188 124 239 124 q 85 75 122 124 q 42 -29 47 26 q 42 -37 42 -33 q 42 -44 42 -40 q 127 -213 42 -154 q 318 -278 213 -272 l 318 -278 m 722 797 l 731 776 q 721 769 726 772 q 710 760 715 765 q 687 731 697 749 q 676 686 676 714 l 676 269 q 638 150 676 183 q 521 103 599 117 l 521 122 q 549 145 538 129 q 560 179 560 161 l 560 418 l 532 418 q 465 405 485 417 q 435 349 444 393 l 410 350 q 428 469 410 428 q 503 511 447 511 l 560 513 l 560 639 q 588 703 560 672 q 649 756 615 733 q 690 781 669 771 q 722 796 710 790 l 722 797 m 728 919 l 744 907 q 731 889 738 897 q 717 872 724 881 q 634 799 681 832 q 535 767 588 767 q 470 776 503 767 q 406 797 438 785 q 344 819 375 810 q 282 829 313 829 q 217 812 246 829 q 188 753 188 794 q 208 699 188 722 q 264 671 228 675 l 264 647 q 188 680 214 650 q 163 758 163 710 q 207 851 163 813 q 306 906 251 889 q 343 915 325 913 q 378 918 361 918 q 444 912 414 918 q 503 894 475 906 q 557 876 531 885 q 610 867 583 867 q 674 881 643 867 q 728 918 704 896 l 728 919 z "},"J":{"ha":772,"x_min":11,"x_max":707,"o":"m 699 919 l 707 897 q 676 867 685 888 q 668 810 668 846 l 668 89 q 563 -120 668 -60 q 319 -181 457 -181 q 131 -131 214 -181 q 47 38 47 -81 q 78 121 47 85 q 161 157 110 157 q 214 135 193 157 q 235 78 235 114 q 214 22 235 43 q 161 0 193 0 q 134 5 144 0 q 115 18 124 10 q 109 24 113 21 q 103 29 106 26 q 94 34 99 32 q 86 36 90 36 q 75 29 78 36 q 72 10 72 22 q 127 -99 72 -58 q 247 -151 182 -140 q 272 -155 260 -154 q 294 -156 283 -156 q 491 -99 431 -156 q 551 89 551 -42 l 551 726 q 582 843 551 804 q 686 913 613 882 q 692 915 689 914 q 699 918 696 917 l 699 919 m 289 -25 l 279 -3 q 319 21 307 4 q 331 61 331 38 l 331 374 l 303 374 q 235 360 256 372 q 206 304 215 349 l 181 306 q 199 425 181 383 q 274 467 218 467 l 332 468 l 331 622 q 365 720 331 686 q 439 769 399 754 q 466 779 453 775 q 492 786 479 783 l 501 775 q 464 740 481 761 q 447 675 447 719 l 447 111 q 399 26 447 56 q 289 -25 350 -4 l 289 -25 m 525 918 l 538 901 q 532 894 535 897 q 526 889 529 892 q 435 813 483 847 q 324 779 388 779 q 260 785 288 779 q 208 800 232 792 q 203 801 206 800 q 199 803 201 801 q 174 810 186 807 q 151 818 163 814 q 128 822 140 821 q 104 824 117 824 q 55 800 74 824 q 36 744 36 776 q 67 685 36 699 q 135 668 99 671 q 154 668 144 668 q 174 668 164 668 l 174 644 q 151 644 163 643 q 126 646 139 644 q 47 672 83 651 q 11 744 11 693 q 72 868 11 821 q 206 918 133 915 q 210 918 208 918 q 214 918 213 918 q 231 917 222 918 q 247 915 239 917 q 281 908 264 913 q 314 899 299 904 q 363 885 339 892 q 406 879 386 879 q 428 881 417 879 q 451 886 440 883 q 490 899 471 892 q 525 917 510 907 l 525 918 z "},"K":{"ha":1081,"x_min":21,"x_max":1061,"o":"m 636 86 l 636 521 l 556 467 l 556 367 q 522 231 556 269 q 400 165 488 193 q 396 165 399 165 q 390 163 393 164 l 382 186 q 423 217 407 199 q 439 261 439 235 l 439 672 q 497 788 439 732 q 624 878 554 843 q 697 908 661 897 q 758 918 732 918 q 837 903 803 918 q 903 868 871 889 q 908 865 906 867 q 913 863 910 864 l 982 906 l 997 888 l 810 756 q 764 836 799 807 q 683 865 729 865 q 658 862 674 865 q 626 851 643 858 q 578 813 600 838 q 556 746 556 788 l 556 499 l 636 554 l 636 715 l 661 715 l 661 572 l 800 665 l 985 488 l 810 364 q 885 267 856 321 q 940 157 915 213 q 946 144 943 150 q 951 131 949 138 q 954 124 953 128 q 957 117 956 121 q 976 83 967 97 q 999 68 985 68 q 1023 76 1011 68 q 1046 93 1035 83 l 1061 78 l 917 -31 l 890 -31 q 856 57 875 8 q 815 156 838 106 q 778 233 799 194 q 735 306 758 271 l 661 261 l 661 63 l 736 114 l 756 94 l 599 -18 q 583 -27 592 -24 q 564 -31 575 -31 q 525 -20 549 -31 q 469 1 501 -10 q 401 24 439 14 q 317 35 363 35 q 313 35 315 35 q 308 35 311 35 q 171 -6 233 33 q 108 -129 108 -44 q 162 -237 108 -207 q 279 -275 215 -268 q 310 -277 294 -276 q 342 -278 326 -278 q 394 -276 368 -278 q 443 -267 419 -274 l 460 -293 q 448 -294 454 -293 q 436 -296 442 -294 q 394 -301 414 -299 q 357 -303 375 -303 q 333 -303 346 -303 q 310 -301 321 -303 q 154 -261 225 -297 q 83 -118 83 -225 q 140 13 83 -39 q 267 93 197 65 q 337 114 303 107 q 397 121 371 121 q 528 112 471 121 q 636 85 585 103 l 636 86 m 661 540 l 661 293 l 869 439 l 728 585 l 661 540 l 661 540 m 397 749 l 401 724 q 373 703 385 715 q 361 663 361 690 l 361 265 q 319 172 361 207 q 217 118 278 138 l 203 139 q 208 140 206 139 q 214 143 211 142 q 235 164 225 150 q 244 199 244 178 l 244 418 l 207 418 q 151 406 167 417 q 129 375 136 394 l 106 376 q 128 474 106 442 q 176 514 150 506 q 190 517 183 517 q 203 518 197 518 l 246 519 l 244 581 q 275 668 244 633 q 343 724 306 703 q 371 737 357 731 q 397 747 385 743 l 397 749 m 521 921 l 535 900 q 530 895 532 897 q 526 890 528 893 q 424 813 476 846 q 303 781 372 781 q 251 787 276 781 q 201 800 225 793 q 157 813 179 807 q 113 818 135 818 q 66 803 86 818 q 46 760 46 788 q 72 698 46 721 q 132 667 97 675 l 132 646 q 51 685 81 654 q 21 769 21 715 q 64 860 21 825 q 160 908 107 894 q 193 916 176 914 q 225 918 210 918 q 276 912 251 918 q 325 897 301 906 q 369 882 349 889 q 406 875 390 875 q 467 888 438 875 q 521 919 496 900 l 521 921 z "},"L":{"ha":1003,"x_min":17,"x_max":988,"o":"m 818 119 l 818 549 q 808 553 813 549 q 804 568 804 558 q 811 584 804 578 q 831 590 818 590 q 850 584 843 590 q 858 568 857 578 q 854 555 858 560 q 846 549 850 550 q 845 547 846 547 q 843 547 844 547 l 843 113 l 933 71 l 976 99 l 988 75 l 839 -31 l 815 -31 q 781 -14 800 -24 q 736 4 761 -4 q 622 40 689 24 q 467 57 556 57 q 407 52 440 57 q 339 36 374 47 q 207 -29 267 15 q 147 -144 147 -74 q 194 -244 147 -211 q 301 -278 240 -278 q 320 -277 311 -278 q 339 -275 329 -276 q 348 -274 343 -275 q 357 -274 353 -274 l 356 -294 q 343 -296 350 -294 q 329 -299 336 -297 q 314 -301 322 -300 q 296 -303 306 -303 q 173 -261 224 -303 q 122 -142 122 -219 q 216 24 122 -37 q 422 114 310 85 q 550 138 488 131 q 656 146 613 146 q 680 145 668 146 q 704 143 692 144 q 765 132 736 139 q 818 118 794 125 l 818 119 m 425 767 l 429 742 q 401 721 413 733 q 389 681 389 708 l 389 256 q 358 174 389 207 q 272 110 328 140 q 247 96 260 103 q 219 82 233 89 l 217 111 q 228 119 222 114 q 239 128 233 124 q 263 156 254 142 q 272 189 272 171 l 272 418 l 240 418 q 188 403 207 417 q 168 353 168 389 l 139 354 q 138 360 139 357 q 136 368 138 364 q 136 371 136 369 q 136 374 136 372 q 133 394 135 383 q 132 415 132 404 q 149 475 132 453 q 189 506 167 497 q 203 511 196 510 q 218 513 211 513 l 272 514 l 272 599 q 303 690 272 656 q 371 743 333 724 q 399 756 385 750 q 425 765 413 761 l 425 767 m 426 154 l 421 174 q 454 217 443 188 q 465 293 465 246 l 465 685 q 467 701 465 692 q 471 719 468 711 q 554 841 488 785 q 697 914 621 897 q 721 917 710 915 q 743 918 732 918 q 819 901 783 918 q 885 863 856 883 q 888 860 886 861 q 890 858 889 860 l 950 896 l 963 875 l 785 756 q 782 762 783 758 q 779 768 781 765 q 777 774 778 771 q 775 781 776 778 q 744 845 763 817 q 678 874 725 874 q 604 838 626 874 q 582 747 582 803 l 582 314 q 553 235 582 267 q 488 182 524 203 q 455 165 471 172 q 426 153 439 158 l 426 154 m 519 919 l 535 906 q 509 878 522 890 q 483 854 496 865 q 397 799 442 818 q 297 781 353 781 q 238 787 264 781 q 190 800 213 793 q 165 808 178 804 q 140 814 153 813 q 125 817 133 817 q 108 818 117 818 q 60 803 78 818 q 42 758 42 788 q 64 709 42 728 q 118 686 86 690 l 106 663 q 44 694 72 667 q 17 756 17 721 q 72 874 17 831 q 196 918 128 918 q 258 910 235 918 q 299 893 281 903 q 302 891 300 892 q 306 890 304 890 q 308 888 307 889 q 310 888 308 888 q 342 873 325 879 q 385 867 360 867 q 432 872 411 867 q 472 888 453 878 q 495 901 483 894 q 519 918 507 908 l 519 919 z "},"M":{"ha":1389,"x_min":7,"x_max":1367,"o":"m 1346 872 l 1364 854 l 1242 772 l 1242 147 q 1259 103 1242 122 q 1300 67 1276 85 q 1307 63 1304 65 q 1313 58 1310 61 l 1356 90 l 1367 71 l 1261 -6 q 1255 -10 1258 -7 q 1247 -17 1251 -14 q 1241 -22 1244 -19 q 1235 -25 1238 -24 q 1227 -29 1231 -28 q 1219 -31 1224 -31 q 1206 -28 1213 -31 q 1193 -18 1200 -25 l 1151 29 q 1133 57 1142 39 q 1125 110 1125 75 l 1125 418 l 961 418 l 961 75 l 1017 113 l 1033 94 l 851 -31 l 829 -31 q 824 -28 826 -29 q 819 -25 822 -26 q 809 -18 814 -21 q 799 -11 804 -15 q 744 18 772 4 q 681 32 715 32 q 664 29 674 32 q 644 21 654 26 q 629 14 636 18 q 615 4 622 10 q 610 1 613 3 q 607 0 608 0 l 589 18 l 733 119 l 733 418 l 578 418 l 578 156 q 523 16 578 63 q 375 -31 468 -31 q 309 -24 340 -31 q 247 -11 278 -18 q 237 -8 242 -10 q 226 -6 232 -7 q 217 -3 222 -4 q 208 -1 213 -3 q 170 6 189 3 q 131 10 151 10 q 55 -19 78 10 q 32 -97 32 -47 q 90 -216 32 -174 q 217 -271 147 -258 q 252 -276 235 -275 q 286 -278 269 -278 q 377 -272 338 -278 q 440 -254 417 -265 l 458 -276 q 382 -297 431 -292 q 279 -303 333 -303 q 90 -251 174 -303 q 7 -94 7 -200 q 67 59 7 6 q 213 113 128 113 q 267 107 240 113 q 318 94 293 101 q 324 94 321 94 q 331 92 328 93 q 337 90 333 90 q 343 89 340 89 q 392 76 368 82 q 440 71 417 71 q 519 93 486 71 q 553 176 553 115 l 553 797 l 525 786 q 485 755 500 774 q 471 696 471 736 l 471 286 q 439 192 471 229 q 338 138 407 154 l 325 161 q 346 172 338 164 q 354 189 354 179 l 354 418 l 306 418 q 250 391 268 417 q 232 329 232 365 l 197 331 q 192 352 194 340 q 189 376 189 364 q 188 388 188 382 q 188 400 188 394 q 219 490 188 463 q 289 517 250 517 l 354 518 l 354 611 q 383 715 354 672 q 474 789 413 758 l 738 919 l 757 919 q 763 915 760 917 q 768 911 765 913 q 826 865 803 890 q 850 799 850 840 l 850 735 l 936 786 l 936 879 q 935 883 936 881 q 932 890 933 886 q 929 896 931 893 q 928 901 928 899 q 933 914 928 910 q 949 918 939 918 q 964 914 958 918 q 969 901 969 910 q 968 896 969 899 q 965 890 967 893 q 963 883 964 886 q 961 878 961 881 l 961 804 l 1160 919 l 1174 919 l 1288 835 l 1346 872 l 1346 872 m 850 701 l 850 111 l 936 68 l 936 753 l 850 701 l 850 701 m 578 807 l 578 518 l 733 518 l 733 742 q 717 782 733 765 q 674 813 700 799 q 656 822 665 818 q 636 832 646 826 l 578 807 l 578 807 m 961 772 l 961 518 l 1125 518 l 1125 771 l 1049 822 l 961 772 l 961 772 z "},"N":{"ha":1157,"x_min":21,"x_max":1136,"o":"m 350 107 l 350 386 q 326 394 339 390 q 301 400 314 399 q 286 402 294 401 q 269 403 278 403 q 263 403 267 403 q 257 403 260 403 q 203 388 225 400 q 179 339 182 375 l 154 340 q 194 471 154 425 q 293 517 233 517 l 350 518 l 350 765 q 297 796 328 782 q 236 815 267 810 q 217 817 226 817 q 200 818 208 818 q 138 808 164 818 q 89 776 113 797 q 76 765 83 771 q 63 750 69 758 l 44 758 q 132 872 69 826 q 268 918 194 918 q 422 863 353 918 q 542 743 490 808 q 596 669 572 704 q 638 608 619 633 q 670 593 650 600 q 711 582 690 586 q 748 576 731 578 q 778 574 765 574 q 797 574 788 574 q 814 575 806 574 q 877 583 846 576 q 936 607 908 590 l 936 778 q 886 785 910 776 q 839 806 863 793 l 743 739 l 726 760 l 942 919 l 967 919 q 989 891 974 900 q 1021 878 1004 882 q 1031 877 1025 878 q 1040 876 1036 876 q 1061 878 1051 876 q 1081 885 1071 881 q 1099 894 1089 889 q 1119 907 1108 900 l 1136 896 q 1067 808 1111 840 q 961 776 1024 776 l 961 -51 l 938 -51 q 855 35 893 -14 q 783 135 817 83 q 738 209 760 172 q 697 278 717 246 q 675 287 686 283 q 651 294 664 290 q 574 312 613 307 q 510 317 536 317 q 476 316 493 317 q 443 314 460 315 q 408 308 425 311 q 375 301 392 306 l 375 107 q 458 92 418 106 q 532 57 497 79 l 642 133 l 660 115 l 447 -31 l 403 -31 q 390 -21 399 -26 q 369 -10 381 -15 q 317 8 349 0 q 246 17 285 17 q 230 16 238 17 q 214 14 222 15 q 98 -33 150 6 q 46 -142 46 -72 q 92 -249 46 -219 q 210 -278 139 -278 q 244 -276 226 -278 q 279 -269 261 -274 q 289 -267 283 -268 q 299 -265 294 -267 q 306 -265 303 -265 q 314 -262 310 -264 l 324 -286 q 265 -298 293 -293 q 211 -303 238 -303 q 76 -269 132 -303 q 21 -146 21 -236 q 97 14 21 -47 q 267 96 174 75 q 308 103 288 101 q 350 106 329 106 l 350 107 m 936 125 l 936 581 q 884 560 911 568 q 829 550 857 553 q 815 549 822 549 q 801 549 808 549 q 725 553 761 549 q 653 574 689 558 l 650 572 q 706 481 678 526 q 763 392 733 436 q 847 257 804 324 q 933 124 890 190 l 936 125 l 936 125 m 375 747 l 375 331 q 450 339 413 336 q 525 342 488 342 q 601 335 564 342 q 674 315 638 328 q 668 324 671 319 q 664 332 665 328 q 656 346 660 339 q 647 360 651 353 q 522 560 588 461 q 375 746 457 660 l 375 747 z "},"O":{"ha":1081,"x_min":46,"x_max":1028,"o":"m 411 900 l 419 876 q 232 679 271 810 q 193 406 193 549 q 193 402 193 404 q 193 399 193 400 q 290 97 193 199 q 594 -6 386 -6 l 594 818 l 513 778 l 513 228 q 476 139 513 174 q 393 88 439 104 q 384 83 389 85 q 374 81 379 82 l 347 100 q 385 142 375 118 q 396 204 396 167 l 396 721 l 304 676 l 296 699 l 594 847 l 594 919 l 619 919 l 619 858 l 736 919 l 758 919 q 767 912 763 915 q 778 906 772 908 q 953 747 879 835 q 1028 488 1028 660 q 1028 481 1028 485 q 1028 474 1028 478 q 893 116 1028 263 q 544 -31 758 -31 q 199 92 351 -31 q 46 418 46 215 q 158 708 46 582 q 411 899 271 835 l 411 900 m 619 269 l 619 -6 q 793 85 721 8 q 885 254 865 161 q 819 283 856 274 q 744 293 783 293 q 724 292 735 293 q 703 290 713 292 q 661 282 682 288 q 619 268 640 276 l 619 269 m 619 556 l 619 297 q 640 303 631 300 q 661 308 650 306 q 703 315 682 313 q 744 318 724 318 q 823 308 786 318 q 893 281 860 297 q 903 326 899 303 q 910 374 907 350 q 913 405 913 389 q 914 436 914 421 q 913 461 914 449 q 911 485 913 474 q 905 522 908 504 q 897 558 901 540 q 863 544 883 550 q 821 533 843 538 q 795 529 808 531 q 771 528 782 528 q 694 533 732 528 q 619 554 657 539 l 619 556 m 621 829 l 619 582 q 665 566 642 572 q 714 556 689 560 q 738 553 725 554 q 761 553 750 553 q 829 561 796 553 q 892 581 863 569 q 801 728 860 665 q 678 821 742 792 q 658 830 668 826 q 639 836 649 833 l 621 829 l 621 829 z "},"P":{"ha":1003,"x_min":8,"x_max":988,"o":"m 383 715 l 478 765 l 478 919 l 504 919 l 504 781 q 642 845 574 811 q 775 918 711 879 l 789 919 l 883 846 q 903 833 893 838 q 924 828 913 828 q 942 832 933 828 q 958 842 950 836 q 964 845 961 843 q 969 849 967 847 l 988 829 l 885 758 l 885 117 l 946 86 l 946 54 q 938 53 942 53 q 929 56 933 54 q 921 56 925 56 q 913 57 917 57 q 894 59 903 58 q 878 60 886 60 q 748 39 803 60 q 657 -6 693 18 q 639 -18 647 -11 q 624 -31 631 -25 l 601 -31 l 503 19 l 503 -304 l 367 -201 l 206 -297 l 196 -285 q 203 -280 200 -282 q 210 -275 206 -278 q 253 -226 240 -251 q 267 -169 267 -201 l 267 54 q 145 22 199 53 q 60 -68 92 -8 l 43 -62 q 126 71 65 18 q 267 143 186 124 l 267 418 l 218 418 q 159 393 181 417 q 133 329 138 369 l 110 331 q 104 352 107 340 q 101 376 101 364 q 100 388 100 382 q 100 400 100 394 q 147 489 100 463 q 267 517 194 515 l 267 703 q 232 786 267 754 q 153 818 197 818 q 72 794 93 818 q 38 733 51 769 q 35 728 36 731 q 33 722 35 725 l 8 724 q 62 859 13 800 q 200 918 111 918 q 329 867 275 918 q 383 746 383 817 l 383 715 l 383 715 m 478 -246 l 478 732 l 383 685 l 383 -179 l 478 -246 l 478 -246 m 504 290 l 504 154 q 614 116 564 144 q 711 51 664 88 l 768 74 l 768 288 q 701 308 736 300 q 631 317 667 317 q 582 313 606 317 q 535 301 558 308 q 520 295 528 299 q 504 289 513 292 l 504 290 m 504 589 l 504 317 q 556 331 529 325 q 608 340 582 338 q 627 341 618 340 q 644 342 636 342 q 669 340 657 342 q 694 336 682 339 q 733 326 714 332 q 768 313 751 319 l 768 586 q 705 565 738 572 q 639 558 672 558 q 622 558 631 558 q 604 560 613 558 q 552 569 578 563 q 504 588 526 575 l 504 589 m 768 614 l 768 756 l 663 829 l 504 747 l 504 614 q 541 598 522 604 q 581 588 560 592 q 603 585 592 586 q 626 583 615 583 q 699 590 664 583 q 768 613 735 597 l 768 614 z "},"Q":{"ha":1081,"x_min":46,"x_max":1028,"o":"m 513 778 l 513 228 q 476 139 513 174 q 393 88 439 104 q 384 83 389 85 q 374 81 379 82 l 347 100 q 385 142 375 118 q 396 204 396 167 l 396 721 l 304 676 l 296 699 l 594 847 l 594 919 l 619 919 l 619 858 l 736 919 l 758 919 q 767 912 763 915 q 778 906 772 908 q 953 747 879 835 q 1028 488 1028 660 q 1028 481 1028 485 q 1028 474 1028 478 q 943 180 1028 308 q 718 0 858 51 q 721 -3 719 -1 q 724 -7 722 -6 q 738 -31 731 -19 q 754 -51 746 -42 q 797 -101 775 -81 q 846 -122 818 -122 q 865 -121 856 -122 q 882 -117 874 -119 q 891 -114 886 -115 q 900 -110 896 -112 l 917 -133 q 844 -172 882 -156 q 756 -189 806 -189 q 672 -153 710 -189 q 607 -76 635 -118 q 592 -52 600 -64 q 579 -29 585 -40 q 561 -31 569 -31 q 544 -31 553 -31 q 199 92 351 -31 q 46 418 46 215 q 158 708 46 582 q 411 899 271 835 l 419 876 q 232 679 271 810 q 193 406 193 549 q 193 402 193 404 q 193 399 193 400 q 282 105 193 207 q 564 -3 371 3 q 559 3 561 0 q 554 11 557 7 q 531 39 544 26 q 503 51 518 51 q 481 46 493 51 q 453 33 468 40 l 443 54 q 497 90 468 76 q 560 104 525 104 q 578 103 569 104 q 594 100 588 103 l 594 818 l 513 778 l 513 778 m 619 269 l 619 93 q 664 62 644 81 q 701 19 683 43 q 820 117 771 53 q 885 254 869 181 q 819 283 856 274 q 744 293 783 293 q 724 292 735 293 q 703 290 713 292 q 661 282 682 288 q 619 268 640 276 l 619 269 m 619 556 l 619 297 q 640 303 631 300 q 661 308 650 306 q 703 315 682 313 q 744 318 724 318 q 823 308 786 318 q 893 281 860 297 q 903 326 899 303 q 910 374 907 350 q 913 405 913 389 q 914 436 914 421 q 913 461 914 449 q 911 485 913 474 q 905 522 908 504 q 897 558 901 540 q 863 544 883 550 q 821 533 843 538 q 795 529 808 531 q 771 528 782 528 q 694 533 732 528 q 619 554 657 539 l 619 556 m 621 829 l 619 582 q 665 566 642 572 q 714 556 689 560 q 738 553 725 554 q 761 553 750 553 q 829 561 796 553 q 892 581 863 569 q 801 728 860 665 q 678 821 742 792 q 658 830 668 826 q 639 836 649 833 l 621 829 l 621 829 z "},"R":{"ha":1081,"x_min":31,"x_max":1058,"o":"m 301 135 l 301 418 l 250 418 q 193 397 213 417 q 171 349 174 376 l 142 350 q 141 358 142 353 q 139 368 140 363 q 137 388 138 378 q 136 410 136 397 q 180 487 136 458 q 301 517 224 515 l 301 686 q 277 771 301 738 q 193 804 253 804 q 116 781 150 804 q 72 715 82 757 l 47 721 q 105 857 54 796 q 236 918 156 918 q 368 874 318 918 q 418 760 418 829 l 418 708 l 522 761 l 522 875 q 513 881 517 876 q 508 896 508 886 q 515 912 508 906 q 535 918 522 918 q 554 912 547 918 q 563 896 561 906 q 558 883 563 888 q 550 875 554 878 q 549 874 550 875 q 547 874 549 874 l 547 775 l 821 919 l 833 919 q 852 903 842 913 q 874 879 863 893 q 915 817 896 854 q 933 731 933 779 q 873 587 933 639 q 740 497 813 535 q 733 494 736 496 q 725 490 729 492 q 829 404 796 465 q 883 275 863 343 q 891 249 888 263 q 899 222 894 236 q 933 122 914 167 q 990 57 953 76 l 1042 92 l 1058 72 l 908 -31 l 881 -31 q 865 -21 874 -28 q 847 -1 857 -14 q 823 34 835 13 q 806 82 811 56 q 790 147 799 113 q 772 218 782 182 q 724 358 751 292 q 660 449 696 424 l 547 396 l 547 96 q 576 74 563 85 q 603 51 590 63 l 696 111 l 714 93 l 532 -31 l 500 -31 q 491 -23 496 -26 q 481 -15 486 -19 q 398 27 449 7 q 282 47 347 47 q 280 47 281 47 q 278 47 279 47 q 125 12 194 47 q 56 -121 56 -24 q 111 -233 56 -200 q 235 -274 167 -265 q 273 -277 254 -276 q 310 -278 292 -278 q 331 -276 321 -278 q 353 -274 342 -275 q 364 -271 358 -272 q 374 -268 369 -269 q 385 -266 379 -267 q 396 -264 390 -265 l 396 -290 q 369 -296 382 -293 q 343 -300 356 -299 q 316 -302 329 -301 q 289 -303 303 -303 q 107 -263 183 -303 q 31 -103 31 -224 q 114 67 31 1 q 297 133 197 132 q 299 133 299 133 q 301 133 300 133 l 301 135 m 522 732 l 418 682 l 418 129 q 456 124 435 128 q 497 114 476 121 q 510 109 504 111 q 522 104 517 107 l 522 732 l 522 732 m 547 746 l 547 425 l 696 499 q 795 576 771 535 q 819 667 819 618 q 804 741 819 708 q 769 794 789 774 q 740 822 754 813 q 722 832 726 832 q 706 827 717 832 q 681 815 696 822 l 547 746 l 547 746 z "},"S":{"ha":1157,"x_min":-26,"x_max":1096,"o":"m 550 169 l 642 306 l 444 351 q 275 419 351 372 q 199 550 199 465 q 200 570 199 560 q 206 592 201 581 q 218 624 210 608 q 238 651 226 640 l 258 646 q 258 640 258 642 q 256 635 257 638 q 255 630 256 632 q 254 625 254 628 q 252 615 253 619 q 251 606 251 610 q 319 516 251 554 q 501 453 388 478 l 703 410 l 743 468 l 597 500 q 365 588 426 536 q 303 718 303 639 q 361 836 303 790 q 489 903 419 882 q 542 914 515 910 q 592 918 568 918 q 737 896 665 918 q 867 829 808 874 l 958 892 l 975 872 l 749 715 q 651 822 708 779 q 525 865 594 865 q 510 865 518 865 q 494 864 503 864 q 406 835 446 858 q 367 760 367 811 q 434 677 367 713 q 582 619 501 642 q 606 614 594 617 q 629 608 618 611 l 813 569 q 829 587 821 578 q 846 604 838 596 q 951 710 896 660 q 1078 789 1007 761 l 1090 772 q 957 679 1017 736 q 846 561 897 622 l 876 554 q 1050 464 1004 518 q 1096 319 1096 410 q 1042 194 1096 253 q 922 86 988 135 q 819 16 868 46 q 756 -33 771 -14 l 714 -33 q 617 21 672 -4 q 501 64 561 46 q 462 15 483 40 q 417 -36 440 -10 q 260 -178 347 -114 q 79 -243 174 -243 q 2 -219 31 -243 q -26 -144 -26 -196 q 78 47 -26 -33 q 308 160 182 126 q 381 174 344 169 q 451 179 418 179 q 476 178 464 179 q 501 175 489 176 q 506 174 503 174 q 511 174 508 174 q 531 171 521 172 q 550 168 540 169 l 550 169 m 475 74 q 406 87 440 81 q 336 93 372 93 q 277 87 308 93 q 213 69 246 81 q 65 -16 132 42 q -1 -153 -1 -74 q 20 -202 -1 -186 q 72 -218 42 -218 q 77 -218 75 -218 q 82 -218 79 -218 q 249 -154 167 -214 q 394 -24 331 -94 q 438 25 418 0 q 475 72 458 50 l 475 74 m 767 461 l 731 407 l 789 390 q 913 340 864 368 q 963 251 963 313 q 940 190 963 217 q 890 143 918 163 l 874 157 q 876 158 875 157 q 879 161 878 160 q 888 173 883 167 q 896 186 893 179 q 898 193 897 189 q 899 200 899 197 q 851 244 899 226 q 746 278 803 263 q 744 278 744 278 q 742 279 743 279 l 668 300 l 576 164 q 706 119 646 151 q 822 49 765 88 q 862 76 840 61 q 907 107 883 90 q 993 185 954 142 q 1032 278 1032 228 q 970 388 1032 354 q 835 442 908 422 q 833 442 833 442 q 831 443 832 443 l 767 461 l 767 461 z "},"T":{"ha":1003,"x_min":28,"x_max":967,"o":"m 949 896 l 967 886 q 901 792 944 829 q 797 738 858 754 l 797 93 q 883 142 846 111 q 950 213 921 174 l 967 197 q 804 28 899 86 q 567 -31 710 -31 q 261 58 399 -31 q 124 340 124 146 q 201 596 124 482 q 411 761 279 710 l 422 742 q 302 632 347 704 q 244 481 257 560 q 242 453 243 467 q 240 425 240 439 q 355 159 240 261 q 629 57 469 57 q 701 64 665 57 q 772 83 738 71 l 772 739 q 744 738 758 738 q 715 739 731 739 q 677 744 696 740 q 642 751 658 747 l 592 721 l 592 288 q 553 179 592 218 q 456 129 514 140 l 447 151 q 452 153 450 151 q 457 157 454 156 q 469 173 464 164 q 475 194 475 182 l 475 636 l 374 567 l 358 592 l 608 761 q 546 773 581 764 q 474 793 511 782 q 455 797 464 794 q 438 801 446 800 q 351 821 393 813 q 275 829 308 829 q 235 826 257 829 q 192 818 214 824 q 96 772 139 806 q 53 679 53 739 q 65 624 53 649 q 110 593 76 599 l 101 569 q 52 597 72 571 q 28 654 32 624 q 28 660 28 657 q 28 665 28 663 q 103 822 28 763 q 269 904 179 882 q 324 915 297 911 q 376 918 351 918 q 491 908 433 918 q 607 886 549 899 q 726 864 667 874 q 846 854 786 854 q 866 856 856 854 q 888 860 876 857 q 922 873 906 864 q 949 894 939 882 l 949 896 z "},"U":{"ha":1081,"x_min":26,"x_max":1050,"o":"m 300 132 l 300 408 l 253 408 q 203 392 218 407 q 181 349 189 376 l 154 350 q 151 357 153 351 q 149 369 150 363 q 147 375 147 372 q 146 381 146 378 q 142 398 143 390 q 140 411 140 406 q 172 477 140 457 q 242 503 204 497 q 272 507 257 506 q 300 510 288 508 l 300 696 q 264 778 300 751 q 182 804 228 804 q 100 773 135 804 q 50 700 65 742 l 28 701 q 85 850 33 782 q 226 918 138 918 q 363 869 308 918 q 417 735 417 821 l 417 129 q 450 117 435 124 q 481 103 465 111 q 497 94 489 99 q 513 85 504 90 l 513 919 l 538 919 l 538 639 q 599 616 567 622 q 665 608 632 610 q 678 608 672 608 q 692 608 685 608 q 706 609 699 608 q 719 610 713 610 q 762 617 740 613 q 806 629 783 622 l 806 765 q 775 778 790 769 q 747 796 760 786 q 740 801 743 799 q 733 807 736 804 l 686 778 l 674 799 l 842 919 l 860 919 q 869 906 864 913 q 881 893 875 900 q 908 869 893 881 q 936 850 922 858 q 953 844 944 846 q 969 842 961 842 q 996 849 983 842 q 1019 865 1008 857 q 1024 870 1022 868 q 1029 874 1026 872 l 1044 856 l 922 775 l 922 110 q 952 78 935 90 q 989 58 969 67 l 1035 89 l 1050 68 l 903 -31 l 876 -31 q 865 -24 871 -28 q 856 -14 860 -19 q 822 24 838 0 q 806 75 807 49 q 806 78 806 76 q 806 81 806 79 l 806 167 l 483 -31 l 442 -31 q 423 -18 435 -25 q 394 -3 411 -11 q 333 19 368 8 q 257 31 297 31 q 115 -8 178 31 q 51 -135 51 -46 q 108 -247 51 -215 q 236 -278 165 -278 q 256 -277 246 -278 q 278 -275 267 -276 q 299 -272 289 -274 q 319 -268 310 -271 l 319 -292 q 294 -297 307 -294 q 267 -301 281 -300 q 248 -302 257 -301 q 231 -303 239 -303 q 88 -262 150 -303 q 26 -131 26 -221 q 111 49 26 -21 q 300 131 196 119 l 300 132 m 571 54 l 806 196 l 806 331 q 770 343 788 338 q 736 353 753 349 q 702 358 719 356 q 667 360 685 360 q 622 357 643 360 q 579 349 600 354 q 559 342 569 346 q 538 333 549 338 l 538 75 l 571 54 l 571 54 m 538 614 l 538 357 q 589 374 563 368 q 643 383 615 381 q 665 384 654 383 q 686 385 675 385 q 740 378 713 385 q 794 361 767 371 q 800 360 797 361 q 806 358 803 360 l 806 604 q 738 588 771 593 q 672 583 704 583 q 658 583 665 583 q 644 585 651 583 q 590 594 617 588 q 538 613 563 601 l 538 614 z "},"V":{"ha":1003,"x_min":13,"x_max":983,"o":"m 38 710 l 13 722 q 19 749 15 735 q 31 776 24 763 q 99 874 53 829 q 218 918 144 918 q 319 890 282 918 q 374 829 356 863 q 388 793 383 811 q 392 763 392 775 l 392 715 l 485 764 l 485 919 l 510 919 l 510 776 l 738 900 q 761 910 751 906 q 781 917 771 915 q 787 918 783 918 q 794 918 790 918 q 822 903 807 918 q 856 872 838 889 q 894 841 874 856 q 935 826 914 826 q 943 827 938 826 q 954 828 949 828 q 963 831 958 829 q 971 835 968 832 l 983 815 l 893 753 l 893 156 l 942 128 l 942 103 q 770 79 846 103 q 642 26 694 56 q 589 -5 611 10 q 553 -31 567 -19 l 511 -31 q 476 -12 494 -24 q 433 13 457 0 q 361 47 401 32 q 269 63 321 63 q 163 33 208 63 q 118 -64 118 3 q 158 -172 118 -128 q 254 -236 197 -217 l 240 -254 q 138 -190 183 -235 q 93 -68 93 -144 q 148 65 93 8 q 275 140 203 122 l 275 418 l 226 418 q 171 391 189 417 q 153 329 153 365 l 118 331 q 113 352 115 340 q 110 376 110 364 q 108 388 108 382 q 108 400 108 394 q 140 490 108 463 q 210 517 171 517 l 275 518 l 275 703 q 247 781 275 751 q 172 810 218 810 q 83 782 117 810 q 38 708 50 754 l 38 710 m 510 288 l 510 122 q 574 89 543 107 q 635 51 606 71 q 704 83 669 68 q 776 108 739 97 l 776 285 q 758 291 767 288 q 739 297 749 294 q 683 310 711 306 q 625 314 654 314 q 608 313 617 314 q 592 311 600 313 q 549 302 569 308 q 510 286 528 296 l 510 288 m 485 129 l 485 733 l 392 685 l 392 151 q 403 147 397 149 q 414 144 408 146 q 422 142 418 143 q 428 140 425 142 q 456 134 442 138 q 485 128 469 131 l 485 129 m 510 585 l 510 318 q 579 335 544 332 q 650 339 614 339 q 682 337 667 339 q 714 332 697 335 q 744 324 729 328 q 776 314 760 319 l 776 583 q 714 567 746 572 q 650 561 682 561 q 607 563 628 561 q 565 569 586 565 q 538 576 551 572 q 510 583 524 579 l 510 585 m 510 750 l 510 617 q 540 603 522 608 q 578 593 558 597 q 611 588 594 590 q 640 586 628 586 q 709 591 675 586 q 776 610 743 596 l 776 767 l 671 835 l 510 750 l 510 750 z "},"W":{"ha":1311,"x_min":29,"x_max":1296,"o":"m 282 119 l 282 418 l 233 418 q 174 393 196 417 q 153 329 153 369 l 125 331 q 119 352 122 340 q 117 376 117 364 q 115 388 115 382 q 115 400 115 394 q 147 490 115 463 q 217 517 178 517 l 282 518 l 282 725 q 253 785 282 765 q 178 804 224 804 q 167 803 172 804 q 156 803 161 803 q 86 774 118 797 q 54 714 54 751 l 29 715 q 87 856 29 794 q 226 918 144 918 q 354 859 310 918 q 399 724 399 800 l 490 786 l 490 919 l 515 919 l 515 800 l 679 919 l 703 919 l 760 869 q 764 865 763 867 q 768 861 765 863 q 788 826 782 846 q 793 761 793 806 l 793 714 l 885 776 l 885 919 l 910 919 l 910 794 l 1089 919 l 1106 919 l 1235 831 l 1278 858 l 1296 838 l 1188 768 l 1188 129 l 1228 83 l 1228 61 q 1199 71 1217 67 q 1161 76 1181 75 q 1142 78 1151 78 q 1124 79 1132 79 q 1001 62 1054 79 q 906 24 947 44 q 838 -14 865 3 q 792 -31 810 -31 q 751 -19 774 -31 q 704 6 729 -7 q 652 30 679 18 q 597 42 625 42 q 545 30 565 42 q 510 6 525 18 q 501 -3 506 0 q 492 -11 496 -7 q 473 -25 483 -19 q 450 -31 463 -31 q 441 -30 446 -31 q 432 -28 436 -29 q 406 -19 419 -25 q 376 -6 393 -12 q 323 10 354 3 q 246 18 292 18 q 237 18 242 18 q 228 18 232 18 q 109 -20 163 14 q 56 -128 56 -54 q 97 -216 56 -181 q 188 -261 138 -251 q 193 -263 190 -262 q 199 -264 196 -264 l 186 -283 q 76 -231 122 -276 q 31 -110 31 -185 q 106 46 31 -12 q 271 117 181 104 q 276 117 274 117 q 282 118 279 118 l 282 119 m 1071 106 l 1071 296 q 1027 303 1049 300 q 983 306 1006 306 q 958 303 971 306 q 935 297 946 300 q 922 294 928 296 q 910 292 915 293 l 910 58 q 944 71 926 64 q 979 85 961 78 q 1026 97 1003 92 q 1071 104 1050 103 l 1071 106 m 515 296 l 515 96 q 528 87 521 92 q 544 76 536 82 q 550 72 547 74 q 556 68 553 69 q 560 64 558 65 q 564 61 563 63 q 615 90 589 78 q 676 111 642 101 l 676 299 q 633 307 654 304 q 589 310 611 310 q 561 307 575 310 q 535 300 547 304 q 525 297 531 299 q 515 294 519 296 l 515 296 m 885 743 l 793 685 l 793 111 q 822 105 807 110 q 853 93 838 100 q 869 86 861 90 q 885 78 878 82 l 885 743 l 885 743 m 490 103 l 490 753 l 399 688 l 399 122 q 443 113 421 118 q 490 101 465 108 l 490 103 m 515 540 l 515 322 q 527 324 521 322 q 540 326 533 325 q 564 332 551 329 q 589 335 576 335 q 633 332 611 335 q 676 324 654 329 l 676 538 q 633 528 654 531 q 589 526 611 526 q 563 528 576 526 q 538 533 550 531 q 526 536 532 535 q 515 539 521 538 l 515 540 m 910 538 l 910 322 q 922 324 915 322 q 935 326 928 325 q 958 332 946 329 q 983 335 971 335 q 1027 332 1006 335 q 1071 324 1049 329 l 1071 535 q 1027 526 1049 528 q 983 524 1006 524 q 958 526 971 524 q 932 531 944 528 q 921 533 926 532 q 910 536 915 535 l 910 538 m 910 763 l 910 564 q 922 560 915 561 q 935 557 928 558 q 958 551 946 554 q 983 549 971 549 q 1027 551 1006 549 q 1071 560 1049 554 l 1071 765 l 990 815 l 910 763 l 910 763 m 676 564 l 676 717 q 670 762 676 747 q 649 785 664 776 l 589 819 l 515 768 l 515 567 q 527 563 521 564 q 540 560 533 561 q 564 554 551 557 q 589 551 576 551 q 633 554 611 551 q 676 563 654 557 l 676 564 z "},"X":{"ha":1003,"x_min":10,"x_max":982,"o":"m 510 413 l 293 -31 l 274 -31 q 238 -9 258 -18 q 196 4 217 0 q 174 8 185 7 q 153 10 163 10 q 139 9 146 10 q 125 7 132 8 q 72 -7 97 3 q 38 -31 47 -17 l 10 -31 q 76 93 21 46 q 208 140 131 140 q 278 129 250 140 q 325 103 307 118 l 488 422 l 208 422 l 178 364 l 150 364 l 236 531 l 446 531 l 333 719 q 278 783 308 760 q 196 807 249 807 q 155 802 174 807 q 118 786 136 797 q 98 772 108 781 q 76 753 88 764 l 57 754 q 124 871 68 824 q 253 918 181 918 q 341 894 304 918 q 413 822 378 871 q 429 798 421 811 q 446 769 438 785 l 564 565 l 742 919 l 764 919 q 811 886 783 897 q 868 875 839 875 q 915 883 892 875 q 958 906 939 892 l 976 889 q 906 794 950 835 q 796 753 861 753 q 747 758 769 753 q 701 779 724 763 l 579 531 l 876 531 l 906 575 l 922 564 l 833 422 l 647 422 l 811 149 q 812 145 811 146 q 814 143 813 144 q 847 98 828 119 q 885 71 865 76 q 891 69 888 69 q 897 68 894 68 q 912 69 904 68 q 928 74 919 71 q 948 84 938 78 q 967 97 958 90 l 982 78 l 868 -3 q 861 -8 865 -6 q 853 -14 857 -11 q 832 -25 843 -19 q 808 -31 821 -31 q 780 -20 792 -31 q 757 6 768 -10 q 752 12 754 8 q 749 18 750 15 l 510 413 l 510 413 z "},"Y":{"ha":1003,"x_min":18,"x_max":982,"o":"m 44 714 l 19 714 q 76 860 18 803 q 222 918 133 918 q 358 861 310 918 q 406 719 406 804 l 496 767 l 496 919 l 521 919 l 521 783 l 714 888 q 725 892 719 889 q 736 899 731 896 q 744 903 740 901 q 753 908 749 906 q 770 915 761 913 q 786 918 779 918 q 815 905 796 918 q 856 875 835 892 q 858 874 857 875 q 858 874 858 874 q 900 843 881 857 q 928 829 919 829 q 945 831 938 829 q 958 836 953 833 q 963 838 961 838 q 967 840 965 839 l 982 824 l 892 765 l 892 221 q 807 45 892 97 q 621 -33 722 -7 q 568 -47 594 -40 q 517 -58 542 -53 q 398 -94 446 -74 q 350 -156 350 -114 q 367 -186 350 -179 q 404 -194 383 -193 q 410 -194 407 -194 q 417 -194 414 -194 q 501 -176 456 -194 q 594 -135 546 -158 q 697 -91 644 -111 q 800 -71 749 -71 q 808 -71 804 -71 q 814 -71 811 -71 q 903 -108 863 -76 q 944 -193 944 -140 q 910 -271 944 -249 q 835 -299 875 -293 q 804 -302 819 -301 q 776 -303 789 -303 l 758 -278 q 785 -277 769 -278 q 815 -275 800 -276 q 872 -259 846 -271 q 897 -221 897 -247 q 874 -181 897 -192 q 822 -171 850 -171 q 820 -171 821 -171 q 818 -171 819 -171 q 745 -190 789 -171 q 651 -232 701 -210 q 647 -234 650 -233 q 643 -236 644 -235 q 609 -251 626 -243 q 575 -265 592 -258 q 512 -286 543 -278 q 450 -294 481 -294 q 447 -294 449 -294 q 442 -294 444 -294 q 352 -267 393 -293 q 311 -185 311 -242 q 360 -76 311 -106 q 467 -31 408 -46 q 481 -28 474 -29 q 494 -24 488 -26 q 498 -23 496 -24 q 501 -22 500 -22 l 501 -19 q 355 31 421 -11 q 289 157 289 72 l 289 418 l 240 418 q 185 391 203 417 q 167 329 167 365 l 132 331 q 126 352 129 340 q 124 376 124 364 q 122 388 122 382 q 122 400 122 394 q 153 490 122 463 q 224 517 185 517 l 289 518 l 289 696 q 257 774 289 747 q 172 801 225 801 q 83 779 121 801 q 44 713 44 757 l 44 714 m 519 257 l 519 6 q 558 6 538 4 q 599 10 579 7 q 720 47 665 18 q 775 138 775 76 l 775 261 q 714 275 744 268 q 651 282 683 282 q 635 281 643 282 q 618 281 626 281 q 568 272 593 278 q 519 256 543 265 l 519 257 m 494 736 l 406 692 l 406 118 q 430 49 406 78 q 494 8 454 19 l 494 736 l 494 736 m 519 543 l 519 286 q 588 303 556 299 q 644 307 621 307 q 710 301 682 307 q 763 289 738 296 q 769 288 765 289 q 775 286 772 288 l 775 544 q 733 531 757 536 q 685 522 710 525 q 661 520 674 521 q 638 519 649 519 q 617 520 628 519 q 594 522 606 521 q 554 531 574 525 q 519 542 535 536 l 519 543 m 775 765 l 664 829 l 519 753 l 519 569 q 562 557 540 563 q 606 547 583 551 q 626 545 615 546 q 649 544 638 544 q 665 545 657 544 q 679 546 672 546 q 726 556 703 549 q 775 571 750 563 l 775 765 l 775 765 z "},"Z":{"ha":926,"x_min":42,"x_max":879,"o":"m 42 -31 l 42 -11 q 192 134 125 49 q 307 315 258 219 l 354 408 l 147 408 l 111 349 l 83 349 l 172 508 l 410 508 l 436 553 q 579 715 493 646 q 760 840 665 785 l 750 857 q 672 819 710 836 q 596 789 633 803 q 480 756 539 768 q 351 744 421 744 q 249 758 299 744 q 151 793 199 771 l 108 747 l 88 760 l 217 919 q 337 856 271 881 q 488 831 403 831 q 683 856 586 831 q 868 918 779 881 l 876 894 q 703 747 775 838 q 579 554 631 657 l 556 508 l 749 508 l 796 579 l 815 561 l 718 408 l 504 408 l 481 369 q 458 333 469 350 q 436 300 447 317 q 342 187 390 235 q 229 94 293 139 q 185 64 208 79 q 135 33 161 49 l 135 17 q 199 47 167 32 q 263 76 231 63 q 415 131 338 110 q 582 151 493 151 q 703 138 643 151 q 819 99 764 124 l 861 144 l 879 126 l 746 -31 l 726 -31 q 610 26 685 6 q 456 51 536 47 q 441 51 449 51 q 426 51 433 51 q 279 34 351 51 q 136 -4 207 17 q 89 -18 113 -11 q 42 -31 65 -25 l 42 -31 z "},"[":{"ha":463,"x_min":88,"x_max":408,"o":"m 88 919 l 406 919 l 406 878 l 193 878 l 193 -192 l 408 -192 l 408 -233 l 88 -233 l 88 919 l 88 919 z "},"\\":{"ha":386,"x_min":-92,"x_max":478,"o":"m -92 919 l -28 919 l 478 -31 l 414 -31 l -92 919 l -92 919 z "},"]":{"ha":463,"x_min":54,"x_max":375,"o":"m 375 -233 l 57 -233 l 57 -192 l 269 -192 l 269 878 l 54 878 l 54 919 l 375 919 l 375 -233 l 375 -233 z "},"^":{"ha":833,"x_min":126,"x_max":707,"o":"m 213 243 l 126 243 l 381 750 l 453 750 l 707 243 l 621 243 l 417 653 l 213 243 l 213 243 z "},"_":{"ha":694,"x_min":0,"x_max":694,"o":"m 694 -174 l 0 -174 l 0 -104 l 694 -104 l 694 -174 l 694 -174 z "},"`":{"ha":386,"x_min":58,"x_max":278,"o":"m 58 749 l 58 774 l 211 774 l 278 586 l 256 586 l 58 749 l 58 749 z "},"a":{"ha":617,"x_min":32,"x_max":586,"o":"m 571 481 l 583 461 l 479 389 l 479 119 l 539 69 l 572 92 l 586 75 l 460 -17 l 444 -17 l 406 18 q 405 17 406 17 q 404 18 404 18 q 381 49 389 32 q 374 108 374 67 l 168 -17 l 144 -17 q 132 -12 139 -15 q 119 -7 125 -10 q 59 38 86 8 q 32 107 32 67 q 72 198 32 158 q 158 263 111 238 q 193 281 176 272 q 225 294 210 289 l 110 410 q 103 415 106 411 q 97 422 100 418 q 85 443 89 433 q 81 460 81 453 q 98 503 81 488 q 142 518 115 518 q 145 518 143 518 q 149 518 147 518 q 186 501 169 515 q 203 465 203 488 q 196 439 203 451 q 178 419 189 426 l 181 418 q 219 424 199 418 q 263 438 240 429 q 322 465 293 449 q 372 499 351 481 q 383 508 378 503 q 392 518 388 513 l 414 519 q 419 507 415 513 q 426 494 422 501 q 451 468 436 481 q 479 449 465 456 q 492 444 486 446 q 504 443 499 443 q 519 447 511 443 q 535 456 526 450 q 540 459 538 457 q 547 463 543 461 q 560 472 554 468 q 571 479 567 476 l 571 481 m 244 58 l 374 140 l 374 383 l 313 431 q 242 400 279 411 q 167 386 206 389 l 310 246 l 293 228 l 243 278 l 206 258 q 158 220 178 243 q 138 161 138 197 q 165 100 138 124 q 224 64 192 76 q 234 60 229 63 q 244 57 239 58 l 244 58 z "},"b":{"ha":617,"x_min":8,"x_max":608,"o":"m 74 829 l 89 840 q 111 812 103 826 q 126 781 119 797 q 130 773 128 776 q 133 765 132 769 q 166 805 149 786 q 201 842 183 824 q 204 844 203 843 q 207 847 206 846 q 223 863 215 856 q 238 879 231 871 l 256 864 q 213 802 226 838 q 200 713 200 767 l 200 396 l 400 521 l 419 521 q 438 507 428 514 q 457 492 447 500 q 460 489 458 490 q 464 486 463 488 q 503 460 485 472 q 531 449 521 449 q 544 451 536 449 q 558 460 551 454 q 565 464 561 461 q 571 468 568 467 q 581 476 576 472 q 590 482 586 479 l 608 464 l 518 406 l 518 119 l 549 97 l 549 69 q 531 69 540 68 q 514 69 522 69 q 495 70 504 69 q 478 71 486 71 q 366 54 418 71 q 264 14 314 38 q 238 3 251 8 q 211 -10 225 -3 q 203 -13 207 -11 q 196 -17 200 -15 q 185 -9 190 -12 q 176 -3 181 -6 q 119 31 146 17 q 75 46 92 46 q 49 38 61 46 q 28 19 38 31 l 8 38 l 94 100 l 94 747 q 89 788 94 768 q 74 828 83 808 l 74 829 m 200 364 l 200 119 q 207 115 204 117 q 214 111 210 113 q 245 94 231 103 q 275 75 260 86 q 287 67 281 71 q 299 57 293 63 q 338 73 321 67 q 372 83 356 79 q 381 86 376 85 q 390 89 386 88 q 401 93 396 92 q 413 96 407 94 l 413 386 l 319 440 l 200 364 l 200 364 z "},"c":{"ha":463,"x_min":11,"x_max":447,"o":"m 88 111 l 88 392 l 58 407 l 58 432 q 112 436 82 431 q 172 453 142 442 q 242 481 208 464 q 299 518 275 499 l 318 519 q 319 516 318 517 q 321 515 319 515 q 368 473 342 490 q 447 453 394 456 l 447 433 q 401 394 429 411 q 342 375 372 378 q 334 374 338 374 q 326 374 331 374 q 267 394 292 374 q 226 446 242 414 l 193 432 l 193 125 q 257 97 225 111 q 318 64 289 83 l 422 129 l 439 111 l 238 -17 l 208 -17 q 192 -3 201 -10 q 172 11 182 4 q 158 21 165 17 q 144 29 151 25 q 104 52 124 43 q 75 61 85 61 q 49 53 61 61 q 26 36 38 46 l 11 56 l 88 111 l 88 111 z "},"d":{"ha":617,"x_min":0,"x_max":604,"o":"m 604 456 l 518 389 l 518 115 l 550 94 l 550 69 q 539 69 544 68 q 528 71 533 69 q 517 72 522 71 q 506 72 511 72 q 465 70 486 72 q 424 64 444 68 q 331 38 376 54 q 253 3 286 21 q 235 -6 243 -1 q 219 -17 226 -11 l 192 -17 q 175 -3 185 -12 q 154 18 165 7 q 119 45 139 33 q 74 57 100 57 q 64 56 69 57 q 53 53 58 54 q 35 43 43 49 q 21 32 26 38 l 0 49 l 90 115 l 90 399 l 58 417 l 58 442 q 83 441 71 440 q 107 442 94 442 q 209 459 158 446 q 303 504 260 472 l 44 742 l 117 815 l 475 485 q 482 476 478 481 q 490 469 486 472 q 496 465 493 467 q 501 460 499 463 q 518 448 510 453 q 532 443 526 443 q 544 445 538 443 q 557 450 550 447 q 571 459 564 454 q 583 468 578 464 q 584 470 583 469 q 586 472 585 471 l 604 456 l 604 456 m 196 428 l 196 125 l 324 61 l 413 92 l 413 401 l 319 483 q 260 449 292 464 q 196 426 229 433 l 196 428 z "},"e":{"ha":463,"x_min":1,"x_max":438,"o":"m 82 100 l 82 396 q 65 406 72 399 q 53 421 57 414 q 49 428 50 425 q 49 435 49 432 q 94 439 69 435 q 146 450 119 443 q 204 471 175 460 q 256 493 233 482 q 278 506 268 500 q 296 518 289 513 l 311 519 l 438 356 l 438 335 l 188 192 l 188 122 l 304 63 l 414 124 l 433 104 l 218 -17 l 196 -17 q 177 -3 188 -11 q 156 14 167 4 q 143 24 150 18 q 129 33 136 29 q 100 50 114 43 q 74 57 86 57 q 65 56 69 57 q 56 53 60 56 q 47 49 51 51 q 38 46 42 47 q 28 40 32 43 q 21 36 24 38 l 1 53 l 82 100 l 82 100 m 188 221 l 344 313 l 235 458 q 226 453 231 456 q 217 450 221 451 q 214 448 215 449 q 211 447 213 447 q 199 442 206 444 q 188 439 193 440 l 188 221 l 188 221 z "},"f":{"ha":463,"x_min":57,"x_max":453,"o":"m 93 519 l 167 519 l 167 601 q 165 640 167 619 q 161 681 164 660 q 158 709 160 694 q 154 739 157 724 q 153 750 154 744 q 151 761 153 756 q 176 770 164 765 q 203 781 189 775 q 269 817 236 796 q 324 869 301 839 l 343 871 q 345 866 344 868 q 347 863 346 864 q 363 843 354 853 q 381 828 372 833 q 392 822 386 824 q 401 819 397 819 q 422 824 413 819 q 436 832 431 828 q 438 833 438 832 q 439 835 439 833 l 453 829 q 424 759 447 785 q 364 733 400 733 q 315 743 338 733 q 278 774 293 753 l 272 772 l 272 519 l 350 519 q 374 524 363 518 q 390 540 385 529 l 408 531 l 371 447 l 272 447 l 272 122 l 344 71 l 394 104 l 408 88 l 265 -17 l 243 -17 q 230 -6 238 -11 q 214 6 222 0 q 204 14 210 10 q 194 21 199 18 q 163 41 178 33 q 139 49 149 49 q 125 46 133 49 q 108 39 117 43 q 100 35 104 38 q 93 31 96 33 q 81 24 86 28 q 72 18 76 21 l 57 35 l 167 110 l 167 447 l 118 447 q 94 443 106 446 q 74 431 82 440 l 58 439 l 93 519 l 93 519 z "},"g":{"ha":617,"x_min":10,"x_max":596,"o":"m 40 38 l 19 50 l 94 106 l 94 394 q 79 403 86 396 q 68 419 72 411 q 64 428 65 424 q 63 438 63 433 q 113 440 86 438 q 167 444 139 442 q 292 470 232 453 q 381 518 353 488 l 406 519 q 426 504 413 514 q 454 483 439 494 q 460 480 457 482 q 465 476 463 478 q 498 456 482 464 q 522 447 514 447 q 545 451 536 447 q 563 461 554 456 q 568 466 565 464 q 574 469 571 468 l 590 450 l 514 399 l 514 69 q 522 63 518 65 q 529 58 525 61 q 575 9 554 40 q 596 -69 596 -22 q 565 -163 596 -126 q 479 -229 535 -200 l 276 -329 l 261 -329 q 190 -260 228 -290 q 96 -229 151 -229 q 65 -235 81 -229 q 36 -250 49 -242 q 33 -251 35 -250 q 31 -253 32 -251 l 10 -236 l 257 -18 l 154 31 q 147 33 150 31 q 139 36 143 35 q 131 40 135 39 q 124 44 128 42 q 102 52 113 49 q 83 56 92 56 q 61 49 72 56 q 40 36 50 43 l 40 38 m 407 78 l 82 -203 l 89 -208 q 144 -190 114 -196 q 210 -183 175 -183 q 297 -202 258 -183 q 368 -250 335 -221 l 443 -214 q 488 -184 471 -201 q 513 -149 504 -167 q 517 -135 515 -142 q 518 -121 518 -128 q 505 -76 518 -93 q 474 -43 492 -58 q 468 -39 471 -42 q 463 -35 465 -36 q 424 6 442 -17 q 407 71 407 29 q 407 72 407 71 q 407 74 407 72 q 407 76 407 75 q 407 76 407 76 l 407 78 m 200 419 l 200 124 l 356 69 l 408 113 l 408 386 l 283 440 l 200 419 l 200 419 z "},"h":{"ha":617,"x_min":3,"x_max":600,"o":"m 199 349 l 199 114 l 250 75 l 293 104 l 307 85 l 163 -17 l 144 -17 q 134 -5 140 -11 q 121 8 128 1 q 108 22 114 15 q 94 33 101 28 q 72 49 83 43 q 53 54 61 54 q 42 52 47 54 q 33 47 38 50 q 27 43 31 46 q 21 38 24 40 l 3 58 l 93 113 l 93 708 q 89 765 93 733 q 74 836 85 797 l 92 851 q 107 826 100 839 q 119 801 114 814 q 121 797 119 799 q 122 792 122 794 q 128 780 125 786 q 135 768 132 774 q 179 827 153 799 q 235 879 206 856 l 251 863 q 233 835 242 847 q 219 813 225 824 q 203 767 208 790 q 199 707 199 743 l 199 376 l 419 519 l 436 519 q 455 504 443 514 q 479 485 467 494 q 481 483 481 483 q 483 482 482 482 q 515 458 500 468 q 535 447 529 447 q 544 449 539 447 q 554 451 550 450 q 567 456 561 453 q 578 463 574 460 q 581 463 579 463 q 583 465 582 464 l 600 446 l 514 392 l 514 93 l 560 57 l 553 39 q 533 43 544 40 q 510 46 521 46 q 501 47 506 47 q 493 47 497 47 q 479 46 486 47 q 464 42 472 44 q 428 17 444 33 q 413 -18 413 1 q 423 -58 413 -42 q 446 -86 433 -74 q 452 -94 449 -90 q 458 -101 456 -97 q 460 -103 460 -101 q 463 -106 461 -104 q 467 -111 465 -108 q 472 -117 469 -114 q 476 -122 474 -119 q 479 -125 478 -124 q 503 -159 493 -142 q 514 -200 514 -176 q 485 -267 514 -240 q 422 -303 457 -293 q 415 -305 418 -304 q 408 -306 411 -306 l 389 -287 q 417 -261 408 -276 q 428 -229 426 -246 q 428 -224 428 -226 q 428 -219 428 -222 q 426 -197 428 -207 q 421 -178 424 -187 q 411 -155 417 -167 q 399 -128 406 -143 q 385 -85 389 -107 q 382 -42 382 -64 q 385 -9 382 -22 q 394 15 389 4 q 395 17 394 17 q 397 19 396 18 q 406 42 403 31 q 408 71 408 53 l 408 392 l 339 433 l 199 349 l 199 349 z "},"i":{"ha":386,"x_min":24,"x_max":353,"o":"m 24 425 l 165 525 l 178 525 q 192 512 183 519 q 208 497 200 504 q 216 492 213 494 q 222 486 219 489 q 247 471 235 478 q 265 464 258 464 q 275 466 269 464 q 286 471 281 468 q 294 476 290 474 q 301 481 297 478 q 309 486 306 483 q 315 492 313 489 l 333 472 l 233 396 l 233 140 q 245 103 233 119 q 271 78 257 88 q 282 71 276 74 q 292 67 288 68 l 339 99 l 353 81 l 219 -17 l 186 -17 q 176 -8 182 -12 q 164 1 169 -3 q 139 31 150 14 q 128 65 128 47 l 128 399 l 86 435 l 44 408 l 24 425 l 24 425 m 51 689 l 175 789 l 192 789 l 258 735 l 297 764 l 313 746 l 193 644 l 175 644 l 110 703 l 71 672 l 51 689 l 51 689 z "},"j":{"ha":386,"x_min":29,"x_max":339,"o":"m 321 488 l 339 467 l 239 390 l 239 72 q 278 37 263 60 q 301 -11 294 14 q 303 -24 303 -18 q 304 -37 304 -31 q 277 -122 304 -90 q 218 -179 250 -153 q 163 -231 188 -203 q 139 -301 139 -258 q 139 -305 139 -303 q 139 -308 139 -307 q 140 -312 139 -310 q 140 -315 140 -314 l 115 -315 q 110 -294 113 -304 q 108 -275 108 -285 q 121 -227 108 -247 q 149 -189 133 -207 q 152 -185 150 -186 q 156 -181 154 -183 q 188 -137 174 -160 q 201 -81 201 -114 q 191 -35 201 -53 q 168 -4 181 -18 q 166 -2 167 -3 q 165 -1 165 -1 q 143 28 153 13 q 133 68 133 43 l 133 393 l 92 429 l 50 403 l 29 419 l 171 519 l 183 519 q 197 506 189 514 q 214 492 206 499 q 222 486 218 489 q 228 481 225 483 q 252 465 240 472 q 271 458 264 458 q 281 460 275 458 q 292 465 286 463 q 299 470 296 468 q 307 475 303 472 q 315 481 311 478 q 321 486 318 483 l 321 488 m 63 689 l 186 789 l 203 789 l 269 735 l 308 764 l 324 746 l 204 644 l 186 644 l 121 703 l 82 672 l 63 689 l 63 689 z "},"k":{"ha":617,"x_min":28,"x_max":596,"o":"m 96 826 l 113 829 q 115 824 114 826 q 118 819 117 822 q 119 817 118 818 q 122 814 121 815 q 139 785 131 800 q 150 754 147 771 q 189 805 167 782 q 235 849 211 828 q 238 853 236 851 q 243 857 240 854 q 254 867 249 863 q 265 878 260 872 l 278 867 q 276 863 276 864 q 274 860 275 861 q 235 779 253 826 q 218 682 218 732 l 218 407 l 400 519 l 422 519 l 547 376 l 547 369 l 410 290 q 429 258 419 274 q 447 225 439 242 q 481 156 465 189 q 507 100 496 122 q 508 98 507 99 q 508 96 508 97 q 523 71 515 82 q 539 60 531 60 q 548 61 543 60 q 557 65 553 63 q 563 69 560 67 q 568 72 565 71 q 575 77 572 75 q 581 81 578 79 l 596 65 l 476 -17 l 454 -17 q 435 1 444 -12 q 415 36 425 15 q 398 74 407 53 q 381 118 389 96 q 351 188 367 154 q 319 240 336 222 l 218 186 l 218 119 l 279 75 l 314 94 l 329 79 l 196 -17 l 175 -17 q 167 -11 171 -14 q 158 -4 163 -8 q 147 5 153 0 q 136 17 142 10 q 110 43 122 31 q 92 56 99 56 q 72 49 82 56 q 51 32 61 42 q 49 31 50 32 q 47 29 49 31 l 28 49 l 113 106 l 113 714 q 109 761 113 738 q 101 804 106 785 q 99 815 100 810 q 96 825 97 821 l 96 826 m 346 453 l 218 374 l 218 215 l 442 340 l 346 453 l 346 453 z "},"l":{"ha":386,"x_min":33,"x_max":354,"o":"m 122 814 l 142 826 l 174 758 q 180 765 176 761 q 186 772 183 768 q 191 777 189 775 q 194 782 193 779 q 237 832 215 807 q 285 879 258 857 l 300 860 q 265 803 278 835 q 247 738 253 771 q 242 699 243 718 q 240 661 240 679 l 240 113 l 303 71 l 339 94 l 354 78 l 231 -17 l 204 -17 q 188 1 196 -7 q 171 15 179 8 q 138 39 154 31 q 108 47 122 47 q 103 47 106 47 q 97 46 100 46 q 81 39 89 43 q 67 31 74 35 q 59 26 63 29 q 53 22 56 24 l 33 43 l 135 96 l 135 708 q 134 726 135 717 q 133 746 133 736 q 128 781 131 764 q 122 813 125 799 l 122 814 z "},"m":{"ha":926,"x_min":8,"x_max":926,"o":"m 215 349 l 215 114 l 271 76 l 313 97 l 329 78 l 186 -17 l 174 -17 q 160 -4 168 -11 q 144 10 153 3 q 139 15 142 13 q 133 21 136 18 q 102 45 117 35 q 82 56 88 56 q 66 50 75 56 q 46 38 57 44 q 43 35 44 36 q 40 32 42 33 q 31 26 35 29 q 22 22 26 24 l 8 43 l 110 111 l 110 357 q 99 394 110 378 q 75 419 88 411 q 63 427 68 425 q 51 429 57 429 q 42 427 47 429 q 32 422 36 425 q 26 419 29 421 q 21 417 24 418 l 11 440 l 121 519 l 144 519 l 189 481 q 196 471 193 475 q 201 463 199 467 q 214 427 213 446 q 215 386 215 408 q 215 383 215 385 q 215 381 215 382 l 421 519 l 443 519 l 492 471 q 512 436 506 456 q 519 375 518 417 l 721 519 l 740 519 q 745 511 743 515 q 750 504 747 507 q 768 485 758 494 q 789 469 778 476 q 807 460 797 464 q 824 456 817 456 q 857 464 839 456 q 893 486 875 472 l 908 469 l 818 407 l 818 143 q 829 101 818 115 q 856 76 840 88 q 863 72 860 74 q 869 67 867 69 l 907 96 l 926 74 l 797 -17 l 782 -17 q 769 -7 776 -12 q 756 3 763 -1 q 726 36 739 17 q 713 83 713 56 l 713 392 l 643 433 l 517 343 l 517 110 l 565 75 l 613 101 l 626 85 l 485 -17 l 471 -17 q 448 -1 460 -8 q 425 15 436 7 q 391 36 407 26 q 361 56 375 46 l 411 92 l 411 344 q 395 399 411 375 q 347 436 379 422 l 215 349 l 215 349 z "},"n":{"ha":694,"x_min":19,"x_max":669,"o":"m 669 71 l 549 -17 l 528 -17 q 519 -10 524 -14 q 511 -4 515 -7 q 471 36 488 14 q 454 96 454 58 l 454 385 l 393 435 l 238 315 l 238 114 l 299 75 l 335 97 l 351 81 l 217 -17 l 197 -17 q 186 -6 192 -11 q 174 6 181 0 q 151 24 163 15 q 126 39 139 33 q 116 42 121 40 q 107 43 111 43 q 93 40 101 43 q 78 33 85 38 q 62 21 69 28 q 47 6 54 14 l 25 25 l 132 103 l 132 381 l 74 435 l 40 407 l 19 426 l 147 519 l 174 519 l 222 465 q 233 435 229 457 q 238 351 236 413 l 471 519 l 494 519 q 503 507 499 513 q 511 497 507 501 q 525 482 518 489 q 540 468 532 475 q 562 453 551 460 q 581 447 572 447 q 614 457 599 447 q 643 478 629 467 q 645 480 644 479 q 647 482 646 481 l 664 463 l 560 390 l 560 172 q 576 108 560 132 q 622 72 592 85 l 654 94 l 669 71 l 669 71 z "},"o":{"ha":617,"x_min":13,"x_max":603,"o":"m 586 478 l 603 458 l 517 399 l 517 115 q 522 111 519 113 q 526 108 524 110 q 544 96 536 103 q 553 82 553 89 q 544 73 553 76 q 519 69 535 69 q 382 52 443 69 q 282 13 321 35 q 256 -3 267 4 q 238 -17 244 -10 l 208 -17 q 194 -6 201 -11 q 178 4 186 0 q 172 9 175 7 q 164 14 168 11 q 118 43 140 31 q 85 56 96 56 q 67 51 75 56 q 53 42 60 47 q 50 41 51 42 q 49 39 49 40 q 41 34 44 36 q 33 29 38 32 l 13 47 l 96 103 l 96 392 q 89 394 93 392 q 81 399 85 396 q 74 404 78 401 q 68 410 71 407 q 61 417 64 414 q 58 424 58 421 q 58 424 58 424 q 58 426 58 425 q 61 429 60 428 q 65 431 63 431 q 133 435 94 431 q 211 450 171 440 q 302 478 258 461 q 375 518 346 496 l 400 519 q 415 505 407 513 q 433 490 424 497 q 447 481 440 486 q 460 472 453 476 q 497 451 479 460 q 524 443 514 443 q 537 446 529 443 q 551 451 544 449 q 567 460 560 456 q 579 471 574 465 q 583 474 581 472 q 586 476 585 475 l 586 478 m 411 376 l 281 442 l 201 418 l 201 125 l 329 60 q 347 66 338 63 q 367 72 357 69 q 390 79 379 76 q 411 83 401 82 l 411 376 l 411 376 z "},"p":{"ha":617,"x_min":7,"x_max":606,"o":"m 35 -307 l 110 -261 l 110 71 q 78 58 93 65 q 51 43 64 51 q 47 41 49 42 q 44 39 46 40 q 34 33 39 36 q 24 28 29 31 l 10 44 q 56 78 32 63 q 110 108 81 94 l 110 376 q 94 412 110 394 q 54 435 78 429 l 24 417 l 7 431 l 122 519 l 142 519 q 158 509 150 514 q 171 499 165 504 q 206 453 199 476 q 215 401 213 429 q 215 398 215 400 q 215 393 215 396 l 417 519 l 439 519 l 547 456 l 550 456 l 590 481 l 606 463 l 531 411 l 531 115 q 556 104 546 111 q 568 90 565 97 q 569 88 569 89 q 569 85 569 86 q 562 77 569 79 q 542 75 554 75 q 437 51 486 75 q 343 -17 388 26 l 325 -17 q 277 31 306 10 q 215 60 249 53 l 215 -235 l 51 -329 l 35 -307 l 35 -307 m 339 439 l 215 364 l 215 139 q 240 137 228 138 q 265 133 253 136 q 348 109 308 126 q 411 63 388 92 l 425 72 l 425 397 l 339 439 l 339 439 z "},"q":{"ha":617,"x_min":1,"x_max":600,"o":"m 583 476 l 600 457 l 511 392 l 511 -232 l 326 -329 l 318 -307 l 406 -260 l 406 81 l 258 3 q 233 -11 243 -6 q 214 -17 222 -17 q 184 -5 201 -17 q 147 21 167 7 q 138 27 143 24 q 129 33 133 31 q 99 52 114 44 q 71 60 83 60 q 60 58 65 60 q 50 56 56 57 q 35 46 43 51 q 18 33 26 40 l 1 54 l 90 119 l 90 396 q 77 402 83 399 q 65 410 71 406 q 53 422 57 415 q 49 439 49 429 q 53 439 51 439 q 57 439 54 439 q 60 439 58 439 q 64 439 63 439 q 85 439 75 439 q 107 440 96 439 q 263 467 189 446 q 376 518 338 488 l 408 519 q 428 503 417 513 q 453 485 439 494 q 459 480 456 482 q 467 475 463 478 q 503 451 486 461 q 529 442 521 442 q 542 445 535 442 q 558 454 550 449 q 565 460 561 457 q 572 465 568 463 q 578 470 575 468 q 583 475 581 472 l 583 476 m 196 421 l 196 122 l 315 63 l 406 114 l 406 386 q 397 388 401 386 q 389 392 393 389 q 361 404 375 397 q 333 418 347 411 q 307 433 319 426 q 283 446 294 440 q 258 438 271 442 q 233 431 246 433 q 215 425 224 428 q 196 419 206 422 l 196 421 z "},"r":{"ha":540,"x_min":35,"x_max":508,"o":"m 254 119 l 338 68 l 397 106 l 417 89 l 263 -17 l 236 -17 q 234 -15 235 -15 q 232 -12 233 -14 q 218 1 225 -6 q 203 15 211 8 q 162 48 182 35 q 126 61 142 61 q 99 52 111 61 q 75 33 86 43 q 74 32 75 32 q 74 32 74 32 q 67 25 69 28 q 60 19 64 22 l 40 39 l 149 119 l 149 383 l 119 413 q 117 414 118 413 q 114 418 115 415 q 104 426 110 422 q 93 429 99 429 q 78 424 85 429 q 65 413 71 419 q 60 409 63 411 q 57 406 58 407 l 35 429 l 158 519 l 176 519 l 224 482 q 240 461 233 472 q 249 438 246 450 q 253 411 253 424 q 254 390 254 399 l 381 519 l 400 519 q 406 509 403 514 q 413 500 408 504 q 440 472 424 485 q 472 460 456 460 q 500 455 492 460 q 508 438 508 450 q 501 424 508 432 q 485 407 494 415 q 461 391 474 399 q 436 378 449 383 q 419 373 428 375 q 404 371 411 371 q 358 380 376 371 q 321 408 339 389 q 318 412 319 410 q 315 415 317 414 l 254 357 l 254 119 l 254 119 z "},"s":{"ha":617,"x_min":49,"x_max":567,"o":"m 533 519 l 550 507 l 360 303 l 547 303 q 563 298 558 301 q 567 286 567 294 q 565 282 567 285 q 560 276 564 279 q 549 268 556 272 q 535 263 542 264 l 535 110 q 549 101 542 106 q 558 90 556 96 q 563 83 561 86 q 564 78 564 81 q 560 71 564 72 q 546 68 556 69 q 543 68 544 68 q 540 68 542 68 q 415 39 474 63 q 326 -17 356 15 l 304 -17 q 265 3 286 -6 q 221 18 243 13 q 193 24 207 22 q 167 26 179 26 q 117 15 142 26 q 72 -8 93 4 q 69 -10 71 -10 q 67 -12 68 -11 l 49 0 l 253 218 l 78 218 q 76 217 76 217 q 75 217 75 217 q 60 222 67 218 q 54 232 54 225 q 56 238 54 235 q 60 243 57 240 q 68 251 64 247 q 78 257 72 254 l 94 265 l 94 399 q 76 409 85 404 q 64 418 68 414 q 58 424 60 421 q 57 429 57 426 q 67 440 57 438 q 93 443 78 442 q 101 444 97 443 q 108 444 104 444 q 117 445 113 444 q 126 446 122 446 q 216 471 172 451 q 297 518 260 490 l 318 519 q 329 513 324 515 q 342 507 335 510 q 381 489 360 497 q 426 481 403 481 q 484 492 458 481 q 533 518 510 504 l 533 519 m 429 67 l 429 242 l 306 242 l 140 63 l 143 60 q 158 67 150 63 q 175 76 165 71 q 219 94 194 86 q 268 106 243 103 q 277 107 272 107 q 288 107 282 107 q 304 106 296 107 q 321 104 313 106 q 369 90 346 100 q 408 65 393 79 l 429 67 l 429 67 m 200 286 l 314 286 l 464 449 l 461 451 q 458 448 460 449 q 454 446 456 447 q 389 415 424 429 q 317 401 354 401 q 281 406 296 401 q 254 421 267 411 q 240 433 247 426 q 224 447 232 439 l 200 438 l 200 286 l 200 286 z "},"t":{"ha":386,"x_min":26,"x_max":365,"o":"m 326 447 l 236 447 l 236 114 l 297 72 l 349 108 l 365 92 l 222 -17 l 206 -17 q 193 -6 200 -11 q 178 4 186 0 q 167 13 172 8 q 156 21 161 17 q 123 40 139 32 q 96 49 107 49 q 83 47 90 49 q 69 42 76 46 q 55 35 61 39 q 42 25 49 31 l 26 44 l 131 113 l 131 447 l 88 447 q 63 441 75 446 q 43 421 51 436 l 26 429 l 64 519 l 131 519 l 131 711 l 236 776 l 236 519 l 293 519 q 299 518 296 518 q 304 519 301 518 q 329 528 317 521 q 351 546 342 536 l 364 538 l 326 447 l 326 447 z "},"u":{"ha":694,"x_min":25,"x_max":665,"o":"m 25 431 l 154 519 l 176 519 l 219 474 q 235 447 231 461 q 239 404 239 432 l 239 115 l 311 69 l 449 163 l 449 383 l 394 428 l 358 406 l 349 429 l 469 518 l 490 518 q 499 507 494 513 q 508 497 503 501 q 523 482 515 489 q 538 469 531 475 q 560 453 549 460 q 581 447 571 447 q 594 450 588 447 q 610 458 601 453 q 617 463 614 460 q 625 468 621 465 q 636 475 631 471 q 646 482 642 479 l 660 463 l 561 393 l 561 131 l 621 72 l 651 88 l 665 72 l 546 -17 l 519 -17 l 469 38 q 454 67 458 49 q 450 126 450 86 l 236 -17 l 214 -17 q 203 -8 208 -12 q 193 0 199 -4 q 187 4 190 1 q 179 10 183 7 q 141 37 160 25 q 107 49 122 49 q 76 39 93 49 q 39 13 58 29 l 25 32 l 133 108 l 133 390 l 86 439 l 43 408 l 25 431 l 25 431 z "},"v":{"ha":617,"x_min":8,"x_max":592,"o":"m 517 408 l 517 115 l 544 103 l 544 81 q 342 51 418 72 q 226 -17 267 29 l 200 -17 q 186 -6 193 -11 q 171 7 179 0 q 139 33 156 21 q 107 53 122 46 q 90 59 99 57 q 74 61 82 61 q 63 60 68 61 q 53 57 58 60 q 38 51 44 56 q 25 43 31 47 l 8 63 l 96 122 l 96 383 q 52 436 69 406 q 35 506 35 467 q 102 660 35 590 q 250 767 169 729 q 299 786 275 778 q 346 799 324 794 l 347 774 q 335 769 342 771 q 322 765 329 767 q 199 691 256 742 q 143 556 143 640 q 144 536 143 546 q 147 518 144 526 q 163 474 151 497 q 199 418 175 451 l 397 519 l 431 519 q 443 508 436 514 q 457 497 450 503 q 467 491 463 494 q 476 485 471 488 q 508 467 493 475 q 529 460 522 460 q 542 462 536 460 q 553 468 547 464 q 561 477 557 472 q 571 488 565 482 l 592 465 l 517 408 l 517 408 m 201 390 l 201 131 l 314 68 q 333 73 324 69 q 353 79 343 76 q 381 87 367 83 q 411 92 394 90 l 411 397 l 311 444 l 201 390 l 201 390 z "},"w":{"ha":926,"x_min":29,"x_max":897,"o":"m 879 478 l 897 457 l 807 396 l 807 110 q 810 108 808 108 q 815 107 813 107 q 833 99 825 104 q 842 85 842 93 q 833 74 842 78 q 813 69 824 71 q 808 69 810 69 q 806 69 807 69 q 668 52 725 68 q 575 18 611 36 q 544 -1 557 8 q 525 -17 532 -10 l 503 -17 l 418 81 l 306 22 q 292 13 300 18 q 274 4 283 8 q 269 1 272 3 q 264 -1 267 0 q 238 -12 250 -7 q 219 -17 226 -17 q 216 -16 218 -17 q 213 -15 214 -15 q 193 -1 203 -11 q 171 24 183 10 q 141 51 158 39 q 101 64 124 64 q 90 62 96 64 q 79 56 85 60 q 72 51 75 53 q 65 46 68 49 q 55 38 60 42 q 47 32 50 35 l 29 49 l 113 115 l 113 379 q 88 406 99 392 q 71 435 78 419 q 61 467 65 450 q 57 506 57 485 q 123 652 57 586 q 268 754 189 718 q 325 775 297 767 q 378 786 353 783 l 378 763 q 363 758 371 760 q 347 754 356 756 q 220 681 278 733 q 163 550 163 629 q 169 492 163 517 q 192 442 176 467 q 203 426 197 435 q 215 410 208 418 l 424 519 l 443 519 q 451 510 447 514 q 460 504 456 507 q 476 490 468 497 q 489 475 483 482 q 506 453 500 464 q 513 432 513 442 l 513 411 l 711 519 l 735 519 q 746 507 740 513 q 757 496 751 501 q 761 492 760 494 q 765 489 763 490 q 799 458 783 471 q 822 443 815 444 q 835 447 828 443 q 851 456 843 450 q 860 461 856 458 q 868 467 864 464 q 874 472 871 469 q 879 476 876 474 l 879 478 m 324 61 l 407 106 l 407 386 l 336 440 l 218 386 l 218 139 l 324 61 l 324 61 m 701 88 l 701 390 l 625 442 l 513 382 l 513 175 q 515 156 513 164 q 522 138 517 147 q 554 103 532 121 q 614 61 576 85 l 701 88 l 701 88 z "},"x":{"ha":617,"x_min":24,"x_max":571,"o":"m 218 114 l 275 228 q 256 267 268 243 q 229 318 244 292 q 197 369 214 344 q 163 410 181 393 q 142 426 153 421 q 121 432 131 432 q 97 427 107 432 q 79 413 88 422 l 64 435 q 83 450 72 440 q 107 469 94 460 q 118 478 113 474 q 129 488 124 482 q 163 509 146 500 q 192 518 179 518 q 197 517 194 518 q 203 517 200 517 q 247 481 225 510 q 286 421 268 453 q 311 371 300 394 q 329 335 322 347 l 425 519 l 435 519 q 449 510 440 518 q 467 492 457 501 q 488 474 476 482 q 511 465 499 465 q 532 468 522 465 q 549 476 542 471 l 565 468 q 563 458 564 463 q 561 450 563 454 q 526 392 550 418 q 469 365 503 365 q 467 365 468 365 q 463 365 465 365 q 420 377 440 367 q 390 399 400 388 l 343 308 q 358 273 350 290 q 376 238 367 256 q 394 203 385 221 q 414 169 404 186 q 464 97 440 126 q 500 68 488 68 q 530 77 515 68 q 554 97 544 86 l 571 81 l 453 -17 l 435 -17 q 360 63 396 6 q 288 193 324 121 l 183 0 l 160 0 q 124 31 144 22 q 78 40 103 40 q 69 40 75 40 q 56 38 63 39 q 47 35 51 36 q 39 31 42 33 l 24 43 q 74 110 43 81 q 151 140 104 140 q 188 132 171 140 q 218 113 204 124 l 218 114 z "},"y":{"ha":617,"x_min":7,"x_max":599,"o":"m 583 479 l 599 458 l 517 401 l 517 151 q 457 28 517 58 q 326 -12 397 -3 q 301 -17 314 -15 q 278 -19 289 -18 q 178 -39 221 -26 q 136 -93 136 -51 q 136 -96 136 -94 q 138 -99 136 -97 q 150 -118 139 -110 q 181 -126 161 -126 q 237 -119 207 -126 q 299 -101 267 -111 q 305 -99 301 -100 q 311 -99 308 -99 q 371 -84 340 -90 q 432 -78 401 -78 q 513 -101 478 -78 q 547 -175 547 -124 q 495 -274 547 -240 q 379 -319 443 -307 q 319 -328 349 -326 q 265 -331 289 -331 q 255 -331 260 -331 q 244 -331 250 -331 q 203 -325 224 -329 q 164 -315 182 -321 l 164 -293 q 217 -302 190 -299 q 269 -306 243 -306 q 317 -303 288 -306 q 379 -293 347 -300 q 468 -262 428 -283 q 508 -203 508 -240 q 495 -176 508 -187 q 460 -164 482 -164 q 408 -170 435 -164 q 353 -185 381 -176 q 347 -185 350 -185 q 340 -187 343 -186 q 274 -205 308 -197 q 203 -212 239 -212 q 130 -190 163 -212 q 97 -124 97 -168 q 134 -46 97 -71 q 215 -10 171 -21 q 229 -7 222 -8 q 243 -4 236 -6 l 243 -1 q 128 40 167 7 q 90 139 90 74 l 90 401 l 54 443 l 22 425 l 7 443 l 119 519 l 146 519 q 181 492 165 508 q 196 435 196 475 l 196 360 l 431 519 l 458 519 q 475 508 467 515 q 492 490 483 500 q 494 488 493 489 q 496 486 494 488 q 518 463 507 474 q 538 453 529 453 q 556 458 547 453 q 571 468 564 463 q 578 474 575 471 q 583 478 581 476 l 583 479 m 411 400 l 356 436 l 196 328 l 196 101 q 221 38 196 57 q 303 18 246 18 q 385 38 360 18 q 411 100 411 57 l 411 400 l 411 400 z "},"z":{"ha":540,"x_min":17,"x_max":513,"o":"m 99 194 l 79 214 l 144 289 l 289 289 l 389 393 l 386 396 q 381 392 383 393 q 376 390 379 392 q 311 374 349 382 q 235 365 274 365 q 185 373 204 365 q 151 390 165 381 q 135 401 142 396 q 121 411 128 407 q 113 414 117 413 q 104 415 108 415 q 88 411 97 415 q 69 399 79 407 l 51 415 q 83 440 67 425 q 114 471 99 454 q 129 487 122 479 q 143 503 136 494 q 150 510 146 507 q 157 518 154 514 l 178 519 q 186 512 182 515 q 196 506 190 508 q 247 478 218 492 q 306 457 276 465 q 331 453 318 454 q 354 451 343 451 q 407 457 385 451 q 450 472 429 463 q 474 488 463 479 q 500 506 486 496 l 513 493 l 324 289 l 394 289 q 425 294 413 288 q 446 307 438 300 q 451 313 449 310 q 456 318 454 315 l 471 304 l 411 225 l 264 225 l 140 92 l 143 89 q 152 90 147 89 q 163 94 157 92 q 236 116 199 106 q 314 126 274 126 q 333 126 324 126 q 353 124 343 125 q 412 108 383 119 q 463 79 440 97 l 497 104 l 511 89 q 484 66 499 81 q 454 35 469 51 q 446 26 450 31 q 438 17 442 21 q 427 8 432 13 q 418 0 422 3 q 415 -2 417 -1 q 414 -4 414 -3 q 401 -13 407 -10 q 385 -17 394 -17 q 354 -8 371 -17 q 317 7 338 0 q 313 9 315 8 q 310 11 311 10 q 260 31 288 22 q 200 40 233 40 q 142 36 165 40 q 97 22 118 32 q 68 6 83 15 q 35 -17 53 -3 l 17 0 l 231 225 l 168 225 q 162 224 165 224 q 154 222 158 224 q 120 213 136 221 q 99 193 104 206 l 99 194 z "},"{":{"ha":463,"x_min":79,"x_max":351,"o":"m 175 -79 l 175 167 q 157 268 175 232 q 79 322 139 304 q 157 377 139 342 q 175 479 175 413 l 175 726 q 224 883 175 849 q 351 918 272 918 l 351 903 q 298 845 315 886 q 281 732 281 804 l 281 501 q 258 385 281 428 q 147 324 236 342 l 147 322 q 258 260 236 303 q 281 144 281 218 l 281 -86 q 298 -199 281 -158 q 351 -256 315 -240 l 351 -272 q 224 -237 272 -272 q 175 -79 175 -203 l 175 -79 z "},"|":{"ha":308,"x_min":122,"x_max":186,"o":"m 122 0 l 122 881 l 186 881 l 186 0 l 122 0 l 122 0 z "},"}":{"ha":463,"x_min":111,"x_max":383,"o":"m 288 726 l 288 481 q 306 377 288 413 q 383 322 324 342 q 306 268 324 304 q 288 165 288 232 l 288 -79 q 239 -237 288 -203 q 111 -272 190 -272 l 111 -256 q 165 -199 147 -240 q 182 -86 182 -158 l 182 146 q 204 260 182 218 q 315 321 226 303 l 315 325 q 204 385 226 342 q 182 500 182 428 l 182 733 q 165 845 182 804 q 111 901 147 886 l 111 919 q 239 883 190 918 q 288 725 288 849 l 288 726 z "},"~":{"ha":833,"x_min":96,"x_max":738,"o":"m 688 343 l 738 285 q 735 280 736 282 q 732 276 733 278 q 663 199 701 233 q 564 164 625 164 q 501 174 529 164 q 444 199 472 185 q 432 205 438 201 q 419 211 426 208 q 348 244 385 229 q 263 258 311 258 q 193 229 219 258 q 150 165 167 200 q 148 162 149 164 q 146 158 147 160 l 96 218 q 98 220 97 218 q 100 224 99 222 q 163 301 124 267 q 269 336 203 336 q 309 332 289 336 q 350 321 329 328 q 390 306 369 315 q 429 289 410 297 q 504 256 469 271 q 565 242 539 242 q 632 271 604 242 q 682 335 660 300 q 685 338 683 336 q 688 342 686 340 l 688 343 z "},"":{"ha":1157,"x_min":32,"x_max":1125,"o":"m 828 279 l 417 279 l 343 119 q 348 118 346 118 q 351 118 350 118 q 474 105 415 117 q 568 63 533 93 l 647 114 l 664 99 l 476 -31 l 444 -31 q 429 -21 438 -26 q 411 -10 421 -15 q 343 17 383 4 q 250 29 303 29 q 233 28 242 29 q 215 26 224 28 q 106 -19 156 18 q 57 -121 57 -56 q 113 -233 57 -200 q 235 -274 168 -265 q 276 -277 256 -276 q 314 -278 296 -278 q 366 -274 340 -278 q 417 -265 392 -271 l 425 -293 q 403 -295 414 -294 q 383 -297 393 -296 q 348 -301 365 -300 q 313 -303 331 -303 q 276 -302 294 -303 q 239 -299 257 -301 q 97 -251 161 -290 q 32 -121 32 -212 q 89 13 32 -44 q 215 96 146 69 q 265 113 240 107 q 311 118 289 118 l 503 543 q 468 576 489 564 q 419 588 447 588 q 366 572 392 588 q 326 531 340 556 l 306 540 q 360 641 321 600 q 468 682 400 682 q 513 677 492 682 q 554 660 535 672 l 608 775 q 565 797 589 789 q 518 808 542 806 q 505 810 511 810 q 493 810 499 810 q 433 801 458 810 q 385 775 408 792 q 367 761 375 768 q 349 746 358 754 l 331 757 q 416 869 358 821 q 547 918 474 918 q 610 906 581 918 q 665 875 639 894 l 688 919 l 706 919 q 726 831 713 872 q 757 749 740 789 l 1007 142 q 1021 114 1013 126 q 1038 90 1029 101 q 1057 70 1047 78 q 1072 61 1067 63 l 1111 85 l 1125 68 l 1028 -3 q 1021 -8 1025 -6 q 1014 -14 1017 -11 q 1013 -15 1013 -15 q 1011 -15 1013 -15 q 1002 -24 1007 -21 q 994 -31 997 -28 l 968 -31 q 918 40 940 -6 q 878 136 896 86 q 851 213 864 175 q 828 278 839 250 l 828 279 m 783 379 l 626 756 l 458 379 l 783 379 l 783 379 m 549 999 l 485 1057 l 485 1072 l 549 1132 l 613 1072 l 613 1057 l 549 999 l 549 999 m 788 999 l 724 1057 l 724 1072 l 788 1132 l 851 1072 l 851 1057 l 788 999 l 788 999 z "},"":{"ha":1157,"x_min":32,"x_max":1125,"o":"m 828 279 l 417 279 l 343 119 q 348 118 346 118 q 351 118 350 118 q 474 105 415 117 q 568 63 533 93 l 647 114 l 664 99 l 476 -31 l 444 -31 q 429 -21 438 -26 q 411 -10 421 -15 q 343 17 383 4 q 250 29 303 29 q 233 28 242 29 q 215 26 224 28 q 106 -19 156 18 q 57 -121 57 -56 q 113 -233 57 -200 q 235 -274 168 -265 q 276 -277 256 -276 q 314 -278 296 -278 q 366 -274 340 -278 q 417 -265 392 -271 l 425 -293 q 403 -295 414 -294 q 383 -297 393 -296 q 348 -301 365 -300 q 313 -303 331 -303 q 276 -302 294 -303 q 239 -299 257 -301 q 97 -251 161 -290 q 32 -121 32 -212 q 89 13 32 -44 q 215 96 146 69 q 265 113 240 107 q 311 118 289 118 l 503 543 q 468 576 489 564 q 419 588 447 588 q 366 572 392 588 q 326 531 340 556 l 306 540 q 360 641 321 600 q 468 682 400 682 q 513 677 492 682 q 554 660 535 672 l 608 775 q 565 797 589 789 q 518 808 542 806 q 505 810 511 810 q 493 810 499 810 q 433 801 458 810 q 385 775 408 792 q 367 761 375 768 q 349 746 358 754 l 331 757 q 416 869 358 821 q 547 918 474 918 q 610 906 581 918 q 665 875 639 894 l 688 919 l 706 919 q 726 831 713 872 q 757 749 740 789 l 1007 142 q 1021 114 1013 126 q 1038 90 1029 101 q 1057 70 1047 78 q 1072 61 1067 63 l 1111 85 l 1125 68 l 1028 -3 q 1021 -8 1025 -6 q 1014 -14 1017 -11 q 1013 -15 1013 -15 q 1011 -15 1013 -15 q 1002 -24 1007 -21 q 994 -31 997 -28 l 968 -31 q 918 40 940 -6 q 878 136 896 86 q 851 213 864 175 q 828 278 839 250 l 828 279 m 783 379 l 626 756 l 458 379 l 783 379 l 783 379 m 668 1263 q 772 1217 731 1261 q 813 1115 813 1174 q 772 1014 813 1057 q 668 971 731 971 q 565 1014 606 971 q 524 1115 524 1057 q 565 1217 524 1174 q 668 1261 606 1261 l 668 1263 m 668 1224 q 592 1190 621 1222 q 563 1115 563 1158 q 592 1041 563 1072 q 668 1010 621 1010 q 744 1041 715 1010 q 774 1115 774 1072 q 744 1190 774 1158 q 668 1222 715 1222 l 668 1224 z "},"":{"ha":926,"x_min":49,"x_max":897,"o":"m 496 797 l 496 317 q 457 203 496 249 q 356 146 418 158 l 350 167 q 370 193 364 176 q 378 226 376 210 q 379 235 379 231 q 379 243 379 239 l 379 704 l 240 604 l 240 633 l 615 919 l 631 919 q 643 909 636 914 q 660 899 650 904 q 696 881 675 889 q 742 874 717 874 q 806 883 776 874 q 863 907 836 892 l 869 894 q 807 819 853 854 q 706 774 761 785 l 706 76 q 801 122 758 93 q 882 186 843 151 l 897 172 q 728 21 824 72 q 510 -31 633 -31 l 506 -31 l 476 -93 q 499 -94 488 -93 q 522 -96 510 -94 q 601 -119 565 -100 q 638 -183 638 -139 q 600 -259 638 -236 q 518 -287 563 -282 q 492 -290 504 -289 q 467 -290 479 -290 q 438 -287 454 -290 q 404 -281 422 -285 q 358 -262 381 -274 q 326 -237 336 -251 l 383 -196 q 419 -244 399 -224 q 474 -265 439 -265 q 528 -245 506 -265 q 551 -192 551 -225 q 519 -134 551 -150 q 444 -118 486 -118 l 481 -28 q 170 92 292 -21 q 49 403 49 206 q 144 698 49 564 q 388 888 239 832 l 392 872 q 224 716 283 818 q 165 494 165 614 q 266 181 165 308 q 567 54 367 54 q 628 58 601 54 q 681 67 656 61 l 681 775 q 606 786 642 774 q 539 825 569 799 l 496 797 l 496 797 z "},"":{"ha":1003,"x_min":15,"x_max":982,"o":"m 493 163 l 493 692 q 570 856 494 793 q 743 918 646 918 q 805 908 776 918 q 861 886 833 899 q 884 874 872 879 q 907 861 896 868 q 915 858 911 860 q 921 854 918 856 l 967 885 l 982 867 l 815 744 q 784 771 799 758 q 756 793 769 783 q 706 820 732 811 q 638 829 679 829 q 619 828 629 829 q 600 824 610 826 q 544 784 569 814 q 518 690 518 754 l 518 524 q 596 569 554 550 q 683 589 638 589 q 767 571 732 589 q 833 517 803 553 l 892 558 l 911 535 l 743 425 l 743 132 q 806 103 775 119 q 865 68 836 88 l 915 104 l 932 85 l 774 -31 l 738 -31 q 710 -13 733 -28 q 647 19 686 1 q 540 56 603 39 q 399 72 478 72 q 359 70 379 72 q 318 64 339 68 q 192 10 249 50 q 135 -107 135 -31 q 189 -222 135 -181 q 308 -274 243 -262 q 333 -276 321 -275 q 358 -278 346 -278 q 458 -271 408 -278 q 551 -249 507 -264 l 571 -271 q 467 -294 518 -286 q 364 -303 415 -303 q 348 -302 356 -303 q 332 -301 340 -301 q 179 -245 249 -294 q 110 -103 110 -196 q 187 51 110 -10 q 357 140 264 113 q 428 156 393 150 q 493 161 463 161 l 493 163 m 518 493 l 518 163 q 617 156 567 161 q 718 140 667 151 l 718 397 q 687 467 717 439 q 622 507 657 496 q 601 512 611 510 q 581 514 590 514 q 549 508 564 514 q 518 492 533 501 l 518 493 m 438 753 l 447 736 q 439 730 443 733 q 431 722 435 726 q 410 693 419 711 q 401 651 401 675 l 401 297 q 359 203 401 239 q 256 143 317 167 l 243 171 q 249 172 246 171 q 254 175 251 174 q 275 196 265 182 q 285 231 285 210 l 285 406 l 257 406 q 190 394 210 404 q 160 350 169 385 l 135 351 q 153 466 135 419 q 228 513 172 513 l 286 514 l 285 613 q 315 679 285 651 q 383 725 346 707 q 411 740 397 733 q 438 751 425 746 l 438 753 m 519 918 l 533 908 q 433 806 488 836 q 294 776 378 776 q 246 783 271 776 q 196 796 221 789 q 149 809 172 803 q 106 815 125 815 q 60 797 79 815 q 40 750 40 778 q 56 699 40 722 q 93 661 71 676 l 79 644 q 67 653 74 649 q 57 664 61 658 q 26 706 36 683 q 15 761 15 728 q 57 851 15 813 q 149 906 99 889 q 182 915 165 913 q 214 918 199 918 q 249 915 231 918 q 285 908 267 913 q 308 902 296 906 q 332 896 321 899 q 383 883 360 889 q 421 876 407 876 q 473 888 449 876 q 519 917 497 899 l 519 918 m 653 1160 l 653 1135 l 456 972 l 433 972 l 500 1160 l 653 1160 l 653 1160 z "},"":{"ha":1157,"x_min":21,"x_max":1136,"o":"m 350 107 l 350 386 q 326 394 339 390 q 301 400 314 399 q 286 402 294 401 q 269 403 278 403 q 263 403 267 403 q 257 403 260 403 q 203 388 225 400 q 179 339 182 375 l 154 340 q 194 471 154 425 q 293 517 233 517 l 350 518 l 350 765 q 297 796 328 782 q 236 815 267 810 q 217 817 226 817 q 200 818 208 818 q 138 808 164 818 q 89 776 113 797 q 76 765 83 771 q 63 750 69 758 l 44 758 q 132 872 69 826 q 268 918 194 918 q 422 863 353 918 q 542 743 490 808 q 596 669 572 704 q 638 608 619 633 q 670 593 650 600 q 711 582 690 586 q 748 576 731 578 q 778 574 765 574 q 797 574 788 574 q 814 575 806 574 q 877 583 846 576 q 936 607 908 590 l 936 778 q 886 785 910 776 q 839 806 863 793 l 743 739 l 726 760 l 942 919 l 967 919 q 989 891 974 900 q 1021 878 1004 882 q 1031 877 1025 878 q 1040 876 1036 876 q 1061 878 1051 876 q 1081 885 1071 881 q 1099 894 1089 889 q 1119 907 1108 900 l 1136 896 q 1067 808 1111 840 q 961 776 1024 776 l 961 -51 l 938 -51 q 855 35 893 -14 q 783 135 817 83 q 738 209 760 172 q 697 278 717 246 q 675 287 686 283 q 651 294 664 290 q 574 312 613 307 q 510 317 536 317 q 476 316 493 317 q 443 314 460 315 q 408 308 425 311 q 375 301 392 306 l 375 107 q 458 92 418 106 q 532 57 497 79 l 642 133 l 660 115 l 447 -31 l 403 -31 q 390 -21 399 -26 q 369 -10 381 -15 q 317 8 349 0 q 246 17 285 17 q 230 16 238 17 q 214 14 222 15 q 98 -33 150 6 q 46 -142 46 -72 q 92 -249 46 -219 q 210 -278 139 -278 q 244 -276 226 -278 q 279 -269 261 -274 q 289 -267 283 -268 q 299 -265 294 -267 q 306 -265 303 -265 q 314 -262 310 -264 l 324 -286 q 265 -298 293 -293 q 211 -303 238 -303 q 76 -269 132 -303 q 21 -146 21 -236 q 97 14 21 -47 q 267 96 174 75 q 308 103 288 101 q 350 106 329 106 l 350 107 m 936 125 l 936 581 q 884 560 911 568 q 829 550 857 553 q 815 549 822 549 q 801 549 808 549 q 725 553 761 549 q 653 574 689 558 l 650 572 q 706 481 678 526 q 763 392 733 436 q 847 257 804 324 q 933 124 890 190 l 936 125 l 936 125 m 375 747 l 375 331 q 450 339 413 336 q 525 342 488 342 q 601 335 564 342 q 674 315 638 328 q 668 324 671 319 q 664 332 665 328 q 656 346 660 339 q 647 360 651 353 q 522 560 588 461 q 375 746 457 660 l 375 747 m 500 992 l 467 992 q 468 1007 467 999 q 472 1024 469 1015 q 515 1088 485 1058 q 579 1117 544 1117 q 609 1114 594 1117 q 638 1107 624 1111 q 652 1103 644 1106 q 667 1099 660 1101 q 672 1097 669 1097 q 678 1096 675 1096 q 716 1085 697 1090 q 754 1081 735 1081 q 797 1095 782 1081 q 821 1132 811 1110 l 853 1133 q 850 1121 851 1126 q 847 1110 849 1115 q 806 1040 835 1072 q 735 1008 778 1008 q 700 1012 719 1008 q 661 1021 681 1015 q 656 1022 658 1021 q 651 1024 654 1022 q 645 1024 649 1024 q 639 1026 642 1025 q 592 1039 614 1033 q 558 1044 571 1044 q 520 1029 535 1044 q 500 990 506 1014 l 500 992 z "},"":{"ha":1081,"x_min":46,"x_max":1028,"o":"m 411 900 l 419 876 q 232 679 271 810 q 193 406 193 549 q 193 402 193 404 q 193 399 193 400 q 290 97 193 199 q 594 -6 386 -6 l 594 818 l 513 778 l 513 228 q 476 139 513 174 q 393 88 439 104 q 384 83 389 85 q 374 81 379 82 l 347 100 q 385 142 375 118 q 396 204 396 167 l 396 721 l 304 676 l 296 699 l 594 847 l 594 919 l 619 919 l 619 858 l 736 919 l 758 919 q 767 912 763 915 q 778 906 772 908 q 953 747 879 835 q 1028 488 1028 660 q 1028 481 1028 485 q 1028 474 1028 478 q 893 116 1028 263 q 544 -31 758 -31 q 199 92 351 -31 q 46 418 46 215 q 158 708 46 582 q 411 899 271 835 l 411 900 m 619 269 l 619 -6 q 793 85 721 8 q 885 254 865 161 q 819 283 856 274 q 744 293 783 293 q 724 292 735 293 q 703 290 713 292 q 661 282 682 288 q 619 268 640 276 l 619 269 m 619 556 l 619 297 q 640 303 631 300 q 661 308 650 306 q 703 315 682 313 q 744 318 724 318 q 823 308 786 318 q 893 281 860 297 q 903 326 899 303 q 910 374 907 350 q 913 405 913 389 q 914 436 914 421 q 913 461 914 449 q 911 485 913 474 q 905 522 908 504 q 897 558 901 540 q 863 544 883 550 q 821 533 843 538 q 795 529 808 531 q 771 528 782 528 q 694 533 732 528 q 619 554 657 539 l 619 556 m 621 829 l 619 582 q 665 566 642 572 q 714 556 689 560 q 738 553 725 554 q 761 553 750 553 q 829 561 796 553 q 892 581 863 569 q 801 728 860 665 q 678 821 742 792 q 658 830 668 826 q 639 836 649 833 l 621 829 l 621 829 m 438 999 l 374 1057 l 374 1072 l 438 1132 l 501 1072 l 501 1057 l 438 999 l 438 999 m 676 999 l 613 1057 l 613 1072 l 676 1132 l 740 1072 l 740 1057 l 676 999 l 676 999 z "},"":{"ha":1081,"x_min":26,"x_max":1050,"o":"m 300 132 l 300 408 l 253 408 q 203 392 218 407 q 181 349 189 376 l 154 350 q 151 357 153 351 q 149 369 150 363 q 147 375 147 372 q 146 381 146 378 q 142 398 143 390 q 140 411 140 406 q 172 477 140 457 q 242 503 204 497 q 272 507 257 506 q 300 510 288 508 l 300 696 q 264 778 300 751 q 182 804 228 804 q 100 773 135 804 q 50 700 65 742 l 28 701 q 85 850 33 782 q 226 918 138 918 q 363 869 308 918 q 417 735 417 821 l 417 129 q 450 117 435 124 q 481 103 465 111 q 497 94 489 99 q 513 85 504 90 l 513 919 l 538 919 l 538 639 q 599 616 567 622 q 665 608 632 610 q 678 608 672 608 q 692 608 685 608 q 706 609 699 608 q 719 610 713 610 q 762 617 740 613 q 806 629 783 622 l 806 765 q 775 778 790 769 q 747 796 760 786 q 740 801 743 799 q 733 807 736 804 l 686 778 l 674 799 l 842 919 l 860 919 q 869 906 864 913 q 881 893 875 900 q 908 869 893 881 q 936 850 922 858 q 953 844 944 846 q 969 842 961 842 q 996 849 983 842 q 1019 865 1008 857 q 1024 870 1022 868 q 1029 874 1026 872 l 1044 856 l 922 775 l 922 110 q 952 78 935 90 q 989 58 969 67 l 1035 89 l 1050 68 l 903 -31 l 876 -31 q 865 -24 871 -28 q 856 -14 860 -19 q 822 24 838 0 q 806 75 807 49 q 806 78 806 76 q 806 81 806 79 l 806 167 l 483 -31 l 442 -31 q 423 -18 435 -25 q 394 -3 411 -11 q 333 19 368 8 q 257 31 297 31 q 115 -8 178 31 q 51 -135 51 -46 q 108 -247 51 -215 q 236 -278 165 -278 q 256 -277 246 -278 q 278 -275 267 -276 q 299 -272 289 -274 q 319 -268 310 -271 l 319 -292 q 294 -297 307 -294 q 267 -301 281 -300 q 248 -302 257 -301 q 231 -303 239 -303 q 88 -262 150 -303 q 26 -131 26 -221 q 111 49 26 -21 q 300 131 196 119 l 300 132 m 571 54 l 806 196 l 806 331 q 770 343 788 338 q 736 353 753 349 q 702 358 719 356 q 667 360 685 360 q 622 357 643 360 q 579 349 600 354 q 559 342 569 346 q 538 333 549 338 l 538 75 l 571 54 l 571 54 m 538 614 l 538 357 q 589 374 563 368 q 643 383 615 381 q 665 384 654 383 q 686 385 675 385 q 740 378 713 385 q 794 361 767 371 q 800 360 797 361 q 806 358 803 360 l 806 604 q 738 588 771 593 q 672 583 704 583 q 658 583 665 583 q 644 585 651 583 q 590 594 617 588 q 538 613 563 601 l 538 614 m 469 999 l 406 1057 l 406 1072 l 469 1132 l 533 1072 l 533 1057 l 469 999 l 469 999 m 708 999 l 644 1057 l 644 1072 l 708 1132 l 772 1072 l 772 1057 l 708 999 l 708 999 z "},"":{"ha":617,"x_min":32,"x_max":586,"o":"m 571 481 l 583 461 l 479 389 l 479 119 l 539 69 l 572 92 l 586 75 l 460 -17 l 444 -17 l 406 18 q 405 17 406 17 q 404 18 404 18 q 381 49 389 32 q 374 108 374 67 l 168 -17 l 144 -17 q 132 -12 139 -15 q 119 -7 125 -10 q 59 38 86 8 q 32 107 32 67 q 72 198 32 158 q 158 263 111 238 q 193 281 176 272 q 225 294 210 289 l 110 410 q 103 415 106 411 q 97 422 100 418 q 85 443 89 433 q 81 460 81 453 q 98 503 81 488 q 142 518 115 518 q 145 518 143 518 q 149 518 147 518 q 186 501 169 515 q 203 465 203 488 q 196 439 203 451 q 178 419 189 426 l 181 418 q 219 424 199 418 q 263 438 240 429 q 322 465 293 449 q 372 499 351 481 q 383 508 378 503 q 392 518 388 513 l 414 519 q 419 507 415 513 q 426 494 422 501 q 451 468 436 481 q 479 449 465 456 q 492 444 486 446 q 504 443 499 443 q 519 447 511 443 q 535 456 526 450 q 540 459 538 457 q 547 463 543 461 q 560 472 554 468 q 571 479 567 476 l 571 481 m 244 58 l 374 140 l 374 383 l 313 431 q 242 400 279 411 q 167 386 206 389 l 310 246 l 293 228 l 243 278 l 206 258 q 158 220 178 243 q 138 161 138 197 q 165 100 138 124 q 224 64 192 76 q 234 60 229 63 q 244 57 239 58 l 244 58 m 443 774 l 443 749 l 246 586 l 224 586 l 290 774 l 443 774 l 443 774 z "},"":{"ha":617,"x_min":32,"x_max":586,"o":"m 571 481 l 583 461 l 479 389 l 479 119 l 539 69 l 572 92 l 586 75 l 460 -17 l 444 -17 l 406 18 q 405 17 406 17 q 404 18 404 18 q 381 49 389 32 q 374 108 374 67 l 168 -17 l 144 -17 q 132 -12 139 -15 q 119 -7 125 -10 q 59 38 86 8 q 32 107 32 67 q 72 198 32 158 q 158 263 111 238 q 193 281 176 272 q 225 294 210 289 l 110 410 q 103 415 106 411 q 97 422 100 418 q 85 443 89 433 q 81 460 81 453 q 98 503 81 488 q 142 518 115 518 q 145 518 143 518 q 149 518 147 518 q 186 501 169 515 q 203 465 203 488 q 196 439 203 451 q 178 419 189 426 l 181 418 q 219 424 199 418 q 263 438 240 429 q 322 465 293 449 q 372 499 351 481 q 383 508 378 503 q 392 518 388 513 l 414 519 q 419 507 415 513 q 426 494 422 501 q 451 468 436 481 q 479 449 465 456 q 492 444 486 446 q 504 443 499 443 q 519 447 511 443 q 535 456 526 450 q 540 459 538 457 q 547 463 543 461 q 560 472 554 468 q 571 479 567 476 l 571 481 m 244 58 l 374 140 l 374 383 l 313 431 q 242 400 279 411 q 167 386 206 389 l 310 246 l 293 228 l 243 278 l 206 258 q 158 220 178 243 q 138 161 138 197 q 165 100 138 124 q 224 64 192 76 q 234 60 229 63 q 244 57 239 58 l 244 58 m 174 749 l 174 774 l 326 774 l 393 586 l 371 586 l 174 749 l 174 749 z "},"":{"ha":617,"x_min":32,"x_max":586,"o":"m 571 481 l 583 461 l 479 389 l 479 119 l 539 69 l 572 92 l 586 75 l 460 -17 l 444 -17 l 406 18 q 405 17 406 17 q 404 18 404 18 q 381 49 389 32 q 374 108 374 67 l 168 -17 l 144 -17 q 132 -12 139 -15 q 119 -7 125 -10 q 59 38 86 8 q 32 107 32 67 q 72 198 32 158 q 158 263 111 238 q 193 281 176 272 q 225 294 210 289 l 110 410 q 103 415 106 411 q 97 422 100 418 q 85 443 89 433 q 81 460 81 453 q 98 503 81 488 q 142 518 115 518 q 145 518 143 518 q 149 518 147 518 q 186 501 169 515 q 203 465 203 488 q 196 439 203 451 q 178 419 189 426 l 181 418 q 219 424 199 418 q 263 438 240 429 q 322 465 293 449 q 372 499 351 481 q 383 508 378 503 q 392 518 388 513 l 414 519 q 419 507 415 513 q 426 494 422 501 q 451 468 436 481 q 479 449 465 456 q 492 444 486 446 q 504 443 499 443 q 519 447 511 443 q 535 456 526 450 q 540 459 538 457 q 547 463 543 461 q 560 472 554 468 q 571 479 567 476 l 571 481 m 244 58 l 374 140 l 374 383 l 313 431 q 242 400 279 411 q 167 386 206 389 l 310 246 l 293 228 l 243 278 l 206 258 q 158 220 178 243 q 138 161 138 197 q 165 100 138 124 q 224 64 192 76 q 234 60 229 63 q 244 57 239 58 l 244 58 m 263 774 l 354 774 l 465 586 l 438 586 l 310 692 l 183 586 l 150 586 l 263 774 l 263 774 z "},"":{"ha":617,"x_min":32,"x_max":586,"o":"m 571 481 l 583 461 l 479 389 l 479 119 l 539 69 l 572 92 l 586 75 l 460 -17 l 444 -17 l 406 18 q 405 17 406 17 q 404 18 404 18 q 381 49 389 32 q 374 108 374 67 l 168 -17 l 144 -17 q 132 -12 139 -15 q 119 -7 125 -10 q 59 38 86 8 q 32 107 32 67 q 72 198 32 158 q 158 263 111 238 q 193 281 176 272 q 225 294 210 289 l 110 410 q 103 415 106 411 q 97 422 100 418 q 85 443 89 433 q 81 460 81 453 q 98 503 81 488 q 142 518 115 518 q 145 518 143 518 q 149 518 147 518 q 186 501 169 515 q 203 465 203 488 q 196 439 203 451 q 178 419 189 426 l 181 418 q 219 424 199 418 q 263 438 240 429 q 322 465 293 449 q 372 499 351 481 q 383 508 378 503 q 392 518 388 513 l 414 519 q 419 507 415 513 q 426 494 422 501 q 451 468 436 481 q 479 449 465 456 q 492 444 486 446 q 504 443 499 443 q 519 447 511 443 q 535 456 526 450 q 540 459 538 457 q 547 463 543 461 q 560 472 554 468 q 571 479 567 476 l 571 481 m 244 58 l 374 140 l 374 383 l 313 431 q 242 400 279 411 q 167 386 206 389 l 310 246 l 293 228 l 243 278 l 206 258 q 158 220 178 243 q 138 161 138 197 q 165 100 138 124 q 224 64 192 76 q 234 60 229 63 q 244 57 239 58 l 244 58 m 189 613 l 125 671 l 125 686 l 189 746 l 253 686 l 253 671 l 189 613 l 189 613 m 428 613 l 364 671 l 364 686 l 428 746 l 492 686 l 492 671 l 428 613 l 428 613 z "},"":{"ha":617,"x_min":32,"x_max":586,"o":"m 571 481 l 583 461 l 479 389 l 479 119 l 539 69 l 572 92 l 586 75 l 460 -17 l 444 -17 l 406 18 q 405 17 406 17 q 404 18 404 18 q 381 49 389 32 q 374 108 374 67 l 168 -17 l 144 -17 q 132 -12 139 -15 q 119 -7 125 -10 q 59 38 86 8 q 32 107 32 67 q 72 198 32 158 q 158 263 111 238 q 193 281 176 272 q 225 294 210 289 l 110 410 q 103 415 106 411 q 97 422 100 418 q 85 443 89 433 q 81 460 81 453 q 98 503 81 488 q 142 518 115 518 q 145 518 143 518 q 149 518 147 518 q 186 501 169 515 q 203 465 203 488 q 196 439 203 451 q 178 419 189 426 l 181 418 q 219 424 199 418 q 263 438 240 429 q 322 465 293 449 q 372 499 351 481 q 383 508 378 503 q 392 518 388 513 l 414 519 q 419 507 415 513 q 426 494 422 501 q 451 468 436 481 q 479 449 465 456 q 492 444 486 446 q 504 443 499 443 q 519 447 511 443 q 535 456 526 450 q 540 459 538 457 q 547 463 543 461 q 560 472 554 468 q 571 479 567 476 l 571 481 m 244 58 l 374 140 l 374 383 l 313 431 q 242 400 279 411 q 167 386 206 389 l 310 246 l 293 228 l 243 278 l 206 258 q 158 220 178 243 q 138 161 138 197 q 165 100 138 124 q 224 64 192 76 q 234 60 229 63 q 244 57 239 58 l 244 58 m 149 606 l 115 606 q 117 621 115 613 q 121 638 118 629 q 163 701 133 672 q 228 731 193 731 q 258 728 243 731 q 286 721 272 725 q 301 717 293 719 q 315 713 308 715 q 321 710 318 711 q 326 710 324 710 q 365 699 346 704 q 403 694 383 694 q 445 709 431 694 q 469 746 460 724 l 501 747 q 499 735 500 740 q 496 724 497 729 q 455 654 483 686 q 383 622 426 622 q 349 626 368 622 q 310 635 329 629 q 305 635 307 635 q 300 638 303 636 q 294 638 297 638 q 288 640 290 639 q 241 653 263 647 q 207 658 219 658 q 169 643 183 658 q 149 604 154 628 l 149 606 z "},"":{"ha":617,"x_min":32,"x_max":586,"o":"m 571 481 l 583 461 l 479 389 l 479 119 l 539 69 l 572 92 l 586 75 l 460 -17 l 444 -17 l 406 18 q 405 17 406 17 q 404 18 404 18 q 381 49 389 32 q 374 108 374 67 l 168 -17 l 144 -17 q 132 -12 139 -15 q 119 -7 125 -10 q 59 38 86 8 q 32 107 32 67 q 72 198 32 158 q 158 263 111 238 q 193 281 176 272 q 225 294 210 289 l 110 410 q 103 415 106 411 q 97 422 100 418 q 85 443 89 433 q 81 460 81 453 q 98 503 81 488 q 142 518 115 518 q 145 518 143 518 q 149 518 147 518 q 186 501 169 515 q 203 465 203 488 q 196 439 203 451 q 178 419 189 426 l 181 418 q 219 424 199 418 q 263 438 240 429 q 322 465 293 449 q 372 499 351 481 q 383 508 378 503 q 392 518 388 513 l 414 519 q 419 507 415 513 q 426 494 422 501 q 451 468 436 481 q 479 449 465 456 q 492 444 486 446 q 504 443 499 443 q 519 447 511 443 q 535 456 526 450 q 540 459 538 457 q 547 463 543 461 q 560 472 554 468 q 571 479 567 476 l 571 481 m 244 58 l 374 140 l 374 383 l 313 431 q 242 400 279 411 q 167 386 206 389 l 310 246 l 293 228 l 243 278 l 206 258 q 158 220 178 243 q 138 161 138 197 q 165 100 138 124 q 224 64 192 76 q 234 60 229 63 q 244 57 239 58 l 244 58 m 308 876 q 412 831 371 875 q 453 729 453 788 q 412 628 453 671 q 308 585 371 585 q 205 628 246 585 q 164 729 164 671 q 205 831 164 788 q 308 875 246 875 l 308 876 m 308 838 q 232 804 261 836 q 203 729 203 772 q 232 655 203 686 q 308 624 261 624 q 385 655 356 624 q 414 729 414 686 q 385 804 414 772 q 308 836 356 836 l 308 838 z "},"":{"ha":463,"x_min":11,"x_max":447,"o":"m 88 111 l 88 392 l 58 407 l 58 432 q 112 436 82 431 q 172 453 142 442 q 242 481 208 464 q 299 518 275 499 l 318 519 q 319 516 318 517 q 321 515 319 515 q 368 473 342 490 q 447 453 394 456 l 447 433 q 401 394 429 411 q 342 375 372 378 q 334 374 338 374 q 326 374 331 374 q 267 394 292 374 q 226 446 242 414 l 193 432 l 193 125 q 257 97 225 111 q 318 64 289 83 l 422 129 l 439 111 l 238 -17 l 200 -93 q 222 -94 211 -93 q 246 -96 233 -94 q 325 -119 289 -100 q 361 -183 361 -139 q 324 -259 361 -236 q 242 -287 286 -282 q 215 -290 228 -289 q 190 -290 203 -290 q 162 -287 178 -290 q 128 -281 146 -285 q 82 -262 104 -274 q 50 -237 60 -251 l 107 -196 q 142 -244 122 -224 q 197 -265 163 -265 q 252 -245 229 -265 q 275 -192 275 -225 q 242 -134 275 -150 q 168 -118 210 -118 l 208 -17 q 197 -8 203 -12 q 185 1 192 -3 q 167 15 176 8 q 150 26 158 21 q 106 51 126 42 q 75 61 85 61 q 49 53 61 61 q 26 36 38 46 l 11 56 l 88 111 l 88 111 z "},"":{"ha":463,"x_min":1,"x_max":438,"o":"m 82 100 l 82 396 q 65 406 72 399 q 53 421 57 414 q 49 428 50 425 q 49 435 49 432 q 94 439 69 435 q 146 450 119 443 q 204 471 175 460 q 256 493 233 482 q 278 506 268 500 q 296 518 289 513 l 311 519 l 438 356 l 438 335 l 188 192 l 188 122 l 304 63 l 414 124 l 433 104 l 218 -17 l 196 -17 q 177 -3 188 -11 q 156 14 167 4 q 143 24 150 18 q 129 33 136 29 q 100 50 114 43 q 74 57 86 57 q 65 56 69 57 q 56 53 60 56 q 47 49 51 51 q 38 46 42 47 q 28 40 32 43 q 21 36 24 38 l 1 53 l 82 100 l 82 100 m 188 221 l 344 313 l 235 458 q 226 453 231 456 q 217 450 221 451 q 214 448 215 449 q 211 447 213 447 q 199 442 206 444 q 188 439 193 440 l 188 221 l 188 221 m 367 774 l 367 749 l 169 586 l 147 586 l 214 774 l 367 774 l 367 774 z "},"":{"ha":463,"x_min":1,"x_max":438,"o":"m 82 100 l 82 396 q 65 406 72 399 q 53 421 57 414 q 49 428 50 425 q 49 435 49 432 q 94 439 69 435 q 146 450 119 443 q 204 471 175 460 q 256 493 233 482 q 278 506 268 500 q 296 518 289 513 l 311 519 l 438 356 l 438 335 l 188 192 l 188 122 l 304 63 l 414 124 l 433 104 l 218 -17 l 196 -17 q 177 -3 188 -11 q 156 14 167 4 q 143 24 150 18 q 129 33 136 29 q 100 50 114 43 q 74 57 86 57 q 65 56 69 57 q 56 53 60 56 q 47 49 51 51 q 38 46 42 47 q 28 40 32 43 q 21 36 24 38 l 1 53 l 82 100 l 82 100 m 188 221 l 344 313 l 235 458 q 226 453 231 456 q 217 450 221 451 q 214 448 215 449 q 211 447 213 447 q 199 442 206 444 q 188 439 193 440 l 188 221 l 188 221 m 97 749 l 97 774 l 250 774 l 317 586 l 294 586 l 97 749 l 97 749 z "},"":{"ha":463,"x_min":1,"x_max":438,"o":"m 82 100 l 82 396 q 65 406 72 399 q 53 421 57 414 q 49 428 50 425 q 49 435 49 432 q 94 439 69 435 q 146 450 119 443 q 204 471 175 460 q 256 493 233 482 q 278 506 268 500 q 296 518 289 513 l 311 519 l 438 356 l 438 335 l 188 192 l 188 122 l 304 63 l 414 124 l 433 104 l 218 -17 l 196 -17 q 177 -3 188 -11 q 156 14 167 4 q 143 24 150 18 q 129 33 136 29 q 100 50 114 43 q 74 57 86 57 q 65 56 69 57 q 56 53 60 56 q 47 49 51 51 q 38 46 42 47 q 28 40 32 43 q 21 36 24 38 l 1 53 l 82 100 l 82 100 m 188 221 l 344 313 l 235 458 q 226 453 231 456 q 217 450 221 451 q 214 448 215 449 q 211 447 213 447 q 199 442 206 444 q 188 439 193 440 l 188 221 l 188 221 m 186 774 l 278 774 l 389 586 l 361 586 l 233 692 l 107 586 l 74 586 l 186 774 l 186 774 z "},"":{"ha":463,"x_min":1,"x_max":438,"o":"m 82 100 l 82 396 q 65 406 72 399 q 53 421 57 414 q 49 428 50 425 q 49 435 49 432 q 94 439 69 435 q 146 450 119 443 q 204 471 175 460 q 256 493 233 482 q 278 506 268 500 q 296 518 289 513 l 311 519 l 438 356 l 438 335 l 188 192 l 188 122 l 304 63 l 414 124 l 433 104 l 218 -17 l 196 -17 q 177 -3 188 -11 q 156 14 167 4 q 143 24 150 18 q 129 33 136 29 q 100 50 114 43 q 74 57 86 57 q 65 56 69 57 q 56 53 60 56 q 47 49 51 51 q 38 46 42 47 q 28 40 32 43 q 21 36 24 38 l 1 53 l 82 100 l 82 100 m 188 221 l 344 313 l 235 458 q 226 453 231 456 q 217 450 221 451 q 214 448 215 449 q 211 447 213 447 q 199 442 206 444 q 188 439 193 440 l 188 221 l 188 221 m 113 613 l 49 671 l 49 686 l 113 746 l 176 686 l 176 671 l 113 613 l 113 613 m 351 613 l 288 671 l 288 686 l 351 746 l 415 686 l 415 671 l 351 613 l 351 613 z "},"":{"ha":386,"x_min":24,"x_max":353,"o":"m 24 425 l 165 525 l 178 525 q 192 512 183 519 q 208 497 200 504 q 216 492 213 494 q 222 486 219 489 q 247 471 235 478 q 265 464 258 464 q 275 466 269 464 q 286 471 281 468 q 294 476 290 474 q 301 481 297 478 q 309 486 306 483 q 315 492 313 489 l 333 472 l 233 396 l 233 140 q 245 103 233 119 q 271 78 257 88 q 282 71 276 74 q 292 67 288 68 l 339 99 l 353 81 l 219 -17 l 186 -17 q 176 -8 182 -12 q 164 1 169 -3 q 139 31 150 14 q 128 65 128 47 l 128 399 l 86 435 l 44 408 l 24 425 l 24 425 m 328 774 l 328 749 l 131 586 l 108 586 l 175 774 l 328 774 l 328 774 z "},"":{"ha":386,"x_min":24,"x_max":353,"o":"m 24 425 l 165 525 l 178 525 q 192 512 183 519 q 208 497 200 504 q 216 492 213 494 q 222 486 219 489 q 247 471 235 478 q 265 464 258 464 q 275 466 269 464 q 286 471 281 468 q 294 476 290 474 q 301 481 297 478 q 309 486 306 483 q 315 492 313 489 l 333 472 l 233 396 l 233 140 q 245 103 233 119 q 271 78 257 88 q 282 71 276 74 q 292 67 288 68 l 339 99 l 353 81 l 219 -17 l 186 -17 q 176 -8 182 -12 q 164 1 169 -3 q 139 31 150 14 q 128 65 128 47 l 128 399 l 86 435 l 44 408 l 24 425 l 24 425 m 58 749 l 58 774 l 211 774 l 278 586 l 256 586 l 58 749 l 58 749 z "},"":{"ha":386,"x_min":24,"x_max":353,"o":"m 24 425 l 165 525 l 178 525 q 192 512 183 519 q 208 497 200 504 q 216 492 213 494 q 222 486 219 489 q 247 471 235 478 q 265 464 258 464 q 275 466 269 464 q 286 471 281 468 q 294 476 290 474 q 301 481 297 478 q 309 486 306 483 q 315 492 313 489 l 333 472 l 233 396 l 233 140 q 245 103 233 119 q 271 78 257 88 q 282 71 276 74 q 292 67 288 68 l 339 99 l 353 81 l 219 -17 l 186 -17 q 176 -8 182 -12 q 164 1 169 -3 q 139 31 150 14 q 128 65 128 47 l 128 399 l 86 435 l 44 408 l 24 425 l 24 425 m 147 774 l 239 774 l 350 586 l 322 586 l 194 692 l 68 586 l 35 586 l 147 774 l 147 774 z "},"":{"ha":386,"x_min":10,"x_max":376,"o":"m 24 425 l 165 525 l 178 525 q 192 512 183 519 q 208 497 200 504 q 216 492 213 494 q 222 486 219 489 q 247 471 235 478 q 265 464 258 464 q 275 466 269 464 q 286 471 281 468 q 294 476 290 474 q 301 481 297 478 q 309 486 306 483 q 315 492 313 489 l 333 472 l 233 396 l 233 140 q 245 103 233 119 q 271 78 257 88 q 282 71 276 74 q 292 67 288 68 l 339 99 l 353 81 l 219 -17 l 186 -17 q 176 -8 182 -12 q 164 1 169 -3 q 139 31 150 14 q 128 65 128 47 l 128 399 l 86 435 l 44 408 l 24 425 l 24 425 m 74 613 l 10 671 l 10 686 l 74 746 l 138 686 l 138 671 l 74 613 l 74 613 m 313 613 l 249 671 l 249 686 l 313 746 l 376 686 l 376 671 l 313 613 l 313 613 z "},"":{"ha":694,"x_min":19,"x_max":669,"o":"m 669 71 l 549 -17 l 528 -17 q 519 -10 524 -14 q 511 -4 515 -7 q 471 36 488 14 q 454 96 454 58 l 454 385 l 393 435 l 238 315 l 238 114 l 299 75 l 335 97 l 351 81 l 217 -17 l 197 -17 q 186 -6 192 -11 q 174 6 181 0 q 151 24 163 15 q 126 39 139 33 q 116 42 121 40 q 107 43 111 43 q 93 40 101 43 q 78 33 85 38 q 62 21 69 28 q 47 6 54 14 l 25 25 l 132 103 l 132 381 l 74 435 l 40 407 l 19 426 l 147 519 l 174 519 l 222 465 q 233 435 229 457 q 238 351 236 413 l 471 519 l 494 519 q 503 507 499 513 q 511 497 507 501 q 525 482 518 489 q 540 468 532 475 q 562 453 551 460 q 581 447 572 447 q 614 457 599 447 q 643 478 629 467 q 645 480 644 479 q 647 482 646 481 l 664 463 l 560 390 l 560 172 q 576 108 560 132 q 622 72 592 85 l 654 94 l 669 71 l 669 71 m 188 606 l 154 606 q 156 621 154 613 q 160 638 157 629 q 202 701 172 672 q 267 731 232 731 q 297 728 282 731 q 325 721 311 725 q 340 717 332 719 q 354 713 347 715 q 360 710 357 711 q 365 710 363 710 q 403 699 385 704 q 442 694 422 694 q 484 709 469 694 q 508 746 499 724 l 540 747 q 538 735 539 740 q 535 724 536 729 q 494 654 522 686 q 422 622 465 622 q 388 626 407 622 q 349 635 368 629 q 344 635 346 635 q 339 638 342 636 q 333 638 336 638 q 326 640 329 639 q 280 653 301 647 q 246 658 258 658 q 208 643 222 658 q 188 604 193 628 l 188 606 z "},"":{"ha":617,"x_min":13,"x_max":603,"o":"m 586 478 l 603 458 l 517 399 l 517 115 q 522 111 519 113 q 526 108 524 110 q 544 96 536 103 q 553 82 553 89 q 544 73 553 76 q 519 69 535 69 q 382 52 443 69 q 282 13 321 35 q 256 -3 267 4 q 238 -17 244 -10 l 208 -17 q 194 -6 201 -11 q 178 4 186 0 q 172 9 175 7 q 164 14 168 11 q 118 43 140 31 q 85 56 96 56 q 67 51 75 56 q 53 42 60 47 q 50 41 51 42 q 49 39 49 40 q 41 34 44 36 q 33 29 38 32 l 13 47 l 96 103 l 96 392 q 89 394 93 392 q 81 399 85 396 q 74 404 78 401 q 68 410 71 407 q 61 417 64 414 q 58 424 58 421 q 58 424 58 424 q 58 426 58 425 q 61 429 60 428 q 65 431 63 431 q 133 435 94 431 q 211 450 171 440 q 302 478 258 461 q 375 518 346 496 l 400 519 q 415 505 407 513 q 433 490 424 497 q 447 481 440 486 q 460 472 453 476 q 497 451 479 460 q 524 443 514 443 q 537 446 529 443 q 551 451 544 449 q 567 460 560 456 q 579 471 574 465 q 583 474 581 472 q 586 476 585 475 l 586 478 m 411 376 l 281 442 l 201 418 l 201 125 l 329 60 q 347 66 338 63 q 367 72 357 69 q 390 79 379 76 q 411 83 401 82 l 411 376 l 411 376 m 443 774 l 443 749 l 246 586 l 224 586 l 290 774 l 443 774 l 443 774 z "},"":{"ha":617,"x_min":13,"x_max":603,"o":"m 586 478 l 603 458 l 517 399 l 517 115 q 522 111 519 113 q 526 108 524 110 q 544 96 536 103 q 553 82 553 89 q 544 73 553 76 q 519 69 535 69 q 382 52 443 69 q 282 13 321 35 q 256 -3 267 4 q 238 -17 244 -10 l 208 -17 q 194 -6 201 -11 q 178 4 186 0 q 172 9 175 7 q 164 14 168 11 q 118 43 140 31 q 85 56 96 56 q 67 51 75 56 q 53 42 60 47 q 50 41 51 42 q 49 39 49 40 q 41 34 44 36 q 33 29 38 32 l 13 47 l 96 103 l 96 392 q 89 394 93 392 q 81 399 85 396 q 74 404 78 401 q 68 410 71 407 q 61 417 64 414 q 58 424 58 421 q 58 424 58 424 q 58 426 58 425 q 61 429 60 428 q 65 431 63 431 q 133 435 94 431 q 211 450 171 440 q 302 478 258 461 q 375 518 346 496 l 400 519 q 415 505 407 513 q 433 490 424 497 q 447 481 440 486 q 460 472 453 476 q 497 451 479 460 q 524 443 514 443 q 537 446 529 443 q 551 451 544 449 q 567 460 560 456 q 579 471 574 465 q 583 474 581 472 q 586 476 585 475 l 586 478 m 411 376 l 281 442 l 201 418 l 201 125 l 329 60 q 347 66 338 63 q 367 72 357 69 q 390 79 379 76 q 411 83 401 82 l 411 376 l 411 376 m 174 749 l 174 774 l 326 774 l 393 586 l 371 586 l 174 749 l 174 749 z "},"":{"ha":617,"x_min":13,"x_max":603,"o":"m 586 478 l 603 458 l 517 399 l 517 115 q 522 111 519 113 q 526 108 524 110 q 544 96 536 103 q 553 82 553 89 q 544 73 553 76 q 519 69 535 69 q 382 52 443 69 q 282 13 321 35 q 256 -3 267 4 q 238 -17 244 -10 l 208 -17 q 194 -6 201 -11 q 178 4 186 0 q 172 9 175 7 q 164 14 168 11 q 118 43 140 31 q 85 56 96 56 q 67 51 75 56 q 53 42 60 47 q 50 41 51 42 q 49 39 49 40 q 41 34 44 36 q 33 29 38 32 l 13 47 l 96 103 l 96 392 q 89 394 93 392 q 81 399 85 396 q 74 404 78 401 q 68 410 71 407 q 61 417 64 414 q 58 424 58 421 q 58 424 58 424 q 58 426 58 425 q 61 429 60 428 q 65 431 63 431 q 133 435 94 431 q 211 450 171 440 q 302 478 258 461 q 375 518 346 496 l 400 519 q 415 505 407 513 q 433 490 424 497 q 447 481 440 486 q 460 472 453 476 q 497 451 479 460 q 524 443 514 443 q 537 446 529 443 q 551 451 544 449 q 567 460 560 456 q 579 471 574 465 q 583 474 581 472 q 586 476 585 475 l 586 478 m 411 376 l 281 442 l 201 418 l 201 125 l 329 60 q 347 66 338 63 q 367 72 357 69 q 390 79 379 76 q 411 83 401 82 l 411 376 l 411 376 m 263 774 l 354 774 l 465 586 l 438 586 l 310 692 l 183 586 l 150 586 l 263 774 l 263 774 z "},"":{"ha":617,"x_min":13,"x_max":603,"o":"m 586 478 l 603 458 l 517 399 l 517 115 q 522 111 519 113 q 526 108 524 110 q 544 96 536 103 q 553 82 553 89 q 544 73 553 76 q 519 69 535 69 q 382 52 443 69 q 282 13 321 35 q 256 -3 267 4 q 238 -17 244 -10 l 208 -17 q 194 -6 201 -11 q 178 4 186 0 q 172 9 175 7 q 164 14 168 11 q 118 43 140 31 q 85 56 96 56 q 67 51 75 56 q 53 42 60 47 q 50 41 51 42 q 49 39 49 40 q 41 34 44 36 q 33 29 38 32 l 13 47 l 96 103 l 96 392 q 89 394 93 392 q 81 399 85 396 q 74 404 78 401 q 68 410 71 407 q 61 417 64 414 q 58 424 58 421 q 58 424 58 424 q 58 426 58 425 q 61 429 60 428 q 65 431 63 431 q 133 435 94 431 q 211 450 171 440 q 302 478 258 461 q 375 518 346 496 l 400 519 q 415 505 407 513 q 433 490 424 497 q 447 481 440 486 q 460 472 453 476 q 497 451 479 460 q 524 443 514 443 q 537 446 529 443 q 551 451 544 449 q 567 460 560 456 q 579 471 574 465 q 583 474 581 472 q 586 476 585 475 l 586 478 m 411 376 l 281 442 l 201 418 l 201 125 l 329 60 q 347 66 338 63 q 367 72 357 69 q 390 79 379 76 q 411 83 401 82 l 411 376 l 411 376 m 189 613 l 125 671 l 125 686 l 189 746 l 253 686 l 253 671 l 189 613 l 189 613 m 428 613 l 364 671 l 364 686 l 428 746 l 492 686 l 492 671 l 428 613 l 428 613 z "},"":{"ha":617,"x_min":13,"x_max":603,"o":"m 586 478 l 603 458 l 517 399 l 517 115 q 522 111 519 113 q 526 108 524 110 q 544 96 536 103 q 553 82 553 89 q 544 73 553 76 q 519 69 535 69 q 382 52 443 69 q 282 13 321 35 q 256 -3 267 4 q 238 -17 244 -10 l 208 -17 q 194 -6 201 -11 q 178 4 186 0 q 172 9 175 7 q 164 14 168 11 q 118 43 140 31 q 85 56 96 56 q 67 51 75 56 q 53 42 60 47 q 50 41 51 42 q 49 39 49 40 q 41 34 44 36 q 33 29 38 32 l 13 47 l 96 103 l 96 392 q 89 394 93 392 q 81 399 85 396 q 74 404 78 401 q 68 410 71 407 q 61 417 64 414 q 58 424 58 421 q 58 424 58 424 q 58 426 58 425 q 61 429 60 428 q 65 431 63 431 q 133 435 94 431 q 211 450 171 440 q 302 478 258 461 q 375 518 346 496 l 400 519 q 415 505 407 513 q 433 490 424 497 q 447 481 440 486 q 460 472 453 476 q 497 451 479 460 q 524 443 514 443 q 537 446 529 443 q 551 451 544 449 q 567 460 560 456 q 579 471 574 465 q 583 474 581 472 q 586 476 585 475 l 586 478 m 411 376 l 281 442 l 201 418 l 201 125 l 329 60 q 347 66 338 63 q 367 72 357 69 q 390 79 379 76 q 411 83 401 82 l 411 376 l 411 376 m 149 606 l 115 606 q 117 621 115 613 q 121 638 118 629 q 163 701 133 672 q 228 731 193 731 q 258 728 243 731 q 286 721 272 725 q 301 717 293 719 q 315 713 308 715 q 321 710 318 711 q 326 710 324 710 q 365 699 346 704 q 403 694 383 694 q 445 709 431 694 q 469 746 460 724 l 501 747 q 499 735 500 740 q 496 724 497 729 q 455 654 483 686 q 383 622 426 622 q 349 626 368 622 q 310 635 329 629 q 305 635 307 635 q 300 638 303 636 q 294 638 297 638 q 288 640 290 639 q 241 653 263 647 q 207 658 219 658 q 169 643 183 658 q 149 604 154 628 l 149 606 z "},"":{"ha":694,"x_min":25,"x_max":665,"o":"m 25 431 l 154 519 l 176 519 l 219 474 q 235 447 231 461 q 239 404 239 432 l 239 115 l 311 69 l 449 163 l 449 383 l 394 428 l 358 406 l 349 429 l 469 518 l 490 518 q 499 507 494 513 q 508 497 503 501 q 523 482 515 489 q 538 469 531 475 q 560 453 549 460 q 581 447 571 447 q 594 450 588 447 q 610 458 601 453 q 617 463 614 460 q 625 468 621 465 q 636 475 631 471 q 646 482 642 479 l 660 463 l 561 393 l 561 131 l 621 72 l 651 88 l 665 72 l 546 -17 l 519 -17 l 469 38 q 454 67 458 49 q 450 126 450 86 l 236 -17 l 214 -17 q 203 -8 208 -12 q 193 0 199 -4 q 187 4 190 1 q 179 10 183 7 q 141 37 160 25 q 107 49 122 49 q 76 39 93 49 q 39 13 58 29 l 25 32 l 133 108 l 133 390 l 86 439 l 43 408 l 25 431 l 25 431 m 482 774 l 482 749 l 285 586 l 263 586 l 329 774 l 482 774 l 482 774 z "},"":{"ha":694,"x_min":25,"x_max":665,"o":"m 25 431 l 154 519 l 176 519 l 219 474 q 235 447 231 461 q 239 404 239 432 l 239 115 l 311 69 l 449 163 l 449 383 l 394 428 l 358 406 l 349 429 l 469 518 l 490 518 q 499 507 494 513 q 508 497 503 501 q 523 482 515 489 q 538 469 531 475 q 560 453 549 460 q 581 447 571 447 q 594 450 588 447 q 610 458 601 453 q 617 463 614 460 q 625 468 621 465 q 636 475 631 471 q 646 482 642 479 l 660 463 l 561 393 l 561 131 l 621 72 l 651 88 l 665 72 l 546 -17 l 519 -17 l 469 38 q 454 67 458 49 q 450 126 450 86 l 236 -17 l 214 -17 q 203 -8 208 -12 q 193 0 199 -4 q 187 4 190 1 q 179 10 183 7 q 141 37 160 25 q 107 49 122 49 q 76 39 93 49 q 39 13 58 29 l 25 32 l 133 108 l 133 390 l 86 439 l 43 408 l 25 431 l 25 431 m 213 749 l 213 774 l 365 774 l 432 586 l 410 586 l 213 749 l 213 749 z "},"":{"ha":694,"x_min":25,"x_max":665,"o":"m 25 431 l 154 519 l 176 519 l 219 474 q 235 447 231 461 q 239 404 239 432 l 239 115 l 311 69 l 449 163 l 449 383 l 394 428 l 358 406 l 349 429 l 469 518 l 490 518 q 499 507 494 513 q 508 497 503 501 q 523 482 515 489 q 538 469 531 475 q 560 453 549 460 q 581 447 571 447 q 594 450 588 447 q 610 458 601 453 q 617 463 614 460 q 625 468 621 465 q 636 475 631 471 q 646 482 642 479 l 660 463 l 561 393 l 561 131 l 621 72 l 651 88 l 665 72 l 546 -17 l 519 -17 l 469 38 q 454 67 458 49 q 450 126 450 86 l 236 -17 l 214 -17 q 203 -8 208 -12 q 193 0 199 -4 q 187 4 190 1 q 179 10 183 7 q 141 37 160 25 q 107 49 122 49 q 76 39 93 49 q 39 13 58 29 l 25 32 l 133 108 l 133 390 l 86 439 l 43 408 l 25 431 l 25 431 m 301 774 l 393 774 l 504 586 l 476 586 l 349 692 l 222 586 l 189 586 l 301 774 l 301 774 z "},"":{"ha":694,"x_min":25,"x_max":665,"o":"m 25 431 l 154 519 l 176 519 l 219 474 q 235 447 231 461 q 239 404 239 432 l 239 115 l 311 69 l 449 163 l 449 383 l 394 428 l 358 406 l 349 429 l 469 518 l 490 518 q 499 507 494 513 q 508 497 503 501 q 523 482 515 489 q 538 469 531 475 q 560 453 549 460 q 581 447 571 447 q 594 450 588 447 q 610 458 601 453 q 617 463 614 460 q 625 468 621 465 q 636 475 631 471 q 646 482 642 479 l 660 463 l 561 393 l 561 131 l 621 72 l 651 88 l 665 72 l 546 -17 l 519 -17 l 469 38 q 454 67 458 49 q 450 126 450 86 l 236 -17 l 214 -17 q 203 -8 208 -12 q 193 0 199 -4 q 187 4 190 1 q 179 10 183 7 q 141 37 160 25 q 107 49 122 49 q 76 39 93 49 q 39 13 58 29 l 25 32 l 133 108 l 133 390 l 86 439 l 43 408 l 25 431 l 25 431 m 228 613 l 164 671 l 164 686 l 228 746 l 292 686 l 292 671 l 228 613 l 228 613 m 467 613 l 403 671 l 403 686 l 467 746 l 531 686 l 531 671 l 467 613 l 467 613 z "},"":{"ha":617,"x_min":31,"x_max":575,"o":"m 78 617 l 253 617 l 253 858 q 287 874 271 864 q 319 894 303 883 q 336 906 328 900 q 353 918 344 913 l 353 617 l 535 617 l 551 661 l 575 661 l 529 525 l 353 525 l 353 -247 q 318 -261 335 -253 q 286 -281 301 -269 q 269 -290 278 -285 q 253 -301 261 -296 l 253 525 l 74 525 l 58 479 l 31 479 l 78 617 l 78 617 z "},"":{"ha":694,"x_min":94,"x_max":547,"o":"m 424 376 l 306 113 q 356 90 332 101 q 401 64 379 79 l 506 129 l 522 111 l 321 -17 l 292 -17 q 285 -10 289 -14 q 278 -4 282 -7 q 269 3 274 0 q 260 8 264 6 l 185 -156 l 139 -156 l 224 33 q 186 53 204 44 q 158 61 168 61 q 133 53 144 61 q 110 36 121 46 l 94 56 l 171 111 l 171 392 l 142 407 l 142 432 q 195 436 165 431 q 256 453 225 442 q 325 481 292 464 q 382 518 358 499 l 401 519 q 416 502 408 510 q 431 489 424 494 l 504 653 l 547 653 l 465 469 q 492 458 476 463 q 531 453 508 454 l 531 433 q 484 394 513 410 q 424 375 456 378 l 424 376 m 279 150 l 381 381 q 340 403 358 386 q 310 446 322 421 l 276 432 l 276 150 l 279 150 l 279 150 z "},"":{"ha":694,"x_min":-61,"x_max":682,"o":"m 664 113 l 682 93 l 539 -17 l 511 -17 q 471 1 494 -7 q 424 17 447 10 q 383 28 403 24 q 346 35 363 32 l 346 -107 q 356 -115 353 -110 q 360 -131 360 -121 q 352 -147 360 -142 q 333 -153 344 -153 q 315 -147 322 -153 q 307 -131 307 -142 q 311 -115 307 -121 q 321 -107 315 -110 l 321 39 q 265 44 294 42 q 197 47 235 47 q 151 43 181 47 q 89 28 121 39 q 4 -19 42 13 q -33 -104 -33 -50 q -1 -186 -33 -153 q 72 -233 32 -219 q 78 -234 75 -233 q 83 -236 81 -235 l 83 -253 q -17 -201 25 -239 q -58 -99 -58 -162 q 17 47 -58 -10 q 185 128 93 103 q 256 142 221 138 q 321 147 290 147 l 321 406 l 243 406 l 243 304 q 205 219 243 250 q 119 174 167 189 q 111 171 115 172 q 103 168 107 169 l 92 190 q 115 209 106 199 q 129 231 124 219 q 135 247 133 239 q 138 263 138 256 l 138 406 l 4 406 l -42 361 l -61 371 l 33 464 l 138 464 l 138 569 q 189 722 138 663 q 321 801 240 781 l 321 871 l 346 871 l 346 808 q 367 811 356 810 q 392 814 379 813 q 399 814 394 814 q 407 814 403 814 q 457 811 426 814 q 519 799 488 808 q 563 778 542 790 q 603 747 585 767 l 664 790 l 679 772 l 514 661 q 508 674 511 667 q 501 690 506 682 q 449 752 483 724 q 378 781 415 781 q 363 779 371 781 q 346 775 356 778 l 346 464 l 556 464 l 607 503 l 622 492 l 526 406 l 346 406 l 346 149 q 454 131 401 144 q 551 103 507 118 q 589 89 571 96 q 622 76 607 82 l 664 113 l 664 113 m 243 656 l 243 464 l 321 464 l 321 775 q 258 728 274 756 q 243 654 243 700 l 243 656 z "},"":{"ha":617,"x_min":35,"x_max":575,"o":"m 60 -246 l 75 -50 l 96 -50 l 111 -172 q 149 -205 124 -190 q 200 -229 174 -219 q 243 -240 222 -236 q 278 -244 264 -244 q 285 -244 282 -244 q 293 -244 289 -244 q 433 -199 369 -240 q 497 -75 497 -158 q 433 39 497 4 q 286 99 368 74 q 276 102 281 100 q 267 106 271 104 q 107 174 179 132 q 35 318 35 217 q 68 417 35 369 q 140 492 101 464 q 87 550 108 515 q 65 625 65 585 q 149 833 65 749 q 354 918 232 918 q 434 906 394 918 q 508 874 474 893 l 493 678 l 469 678 l 461 803 q 390 844 431 828 q 308 860 350 860 q 303 860 306 860 q 297 860 300 860 q 174 815 229 856 q 118 700 118 775 q 184 581 118 614 q 332 524 250 547 q 340 522 336 524 q 347 521 343 521 q 503 458 432 496 q 575 317 575 419 q 545 212 575 261 q 471 131 515 163 q 531 71 511 106 q 550 -11 550 36 q 458 -217 550 -131 q 249 -303 367 -303 q 156 -293 197 -303 q 74 -256 114 -283 q 66 -251 69 -253 q 60 -246 63 -249 l 60 -246 m 171 478 q 119 431 138 460 q 101 364 101 401 q 157 259 101 293 q 292 199 213 225 q 344 181 317 190 q 399 163 371 172 q 422 153 410 158 q 446 143 435 149 q 452 149 449 146 q 458 157 456 153 q 494 206 481 181 q 508 265 508 231 q 450 366 508 332 q 322 422 392 400 q 294 431 308 426 q 267 439 281 435 q 214 456 239 447 q 171 476 189 465 l 171 478 z "},"":{"ha":833,"x_min":110,"x_max":728,"o":"m 728 889 l 728 856 q 651 833 686 849 q 617 786 617 818 l 617 -244 l 539 -244 l 539 844 l 456 844 l 456 -244 l 378 -244 l 378 333 q 174 413 239 332 q 110 619 110 493 q 175 824 110 761 q 392 888 240 888 l 728 889 l 728 889 z "},"":{"ha":617,"x_min":18,"x_max":575,"o":"m 32 22 l 18 39 l 129 113 l 129 453 l 89 453 q 58 447 71 451 q 33 433 44 443 l 18 444 l 54 519 l 129 519 l 129 642 q 126 701 129 671 q 113 761 122 731 q 118 763 115 763 q 122 765 121 764 q 213 809 169 783 q 286 876 257 835 l 304 878 q 309 866 306 872 q 317 854 313 860 q 334 834 325 843 q 353 821 343 825 q 358 820 356 821 q 363 819 360 819 q 381 823 372 819 q 394 831 389 826 q 399 835 397 833 q 401 838 400 836 l 415 831 q 413 824 414 826 q 411 818 413 821 q 378 764 400 789 q 324 739 356 739 q 290 744 304 739 q 264 758 276 750 q 251 767 257 763 q 239 776 246 771 l 235 778 l 235 350 l 460 519 l 479 519 q 490 510 485 514 q 499 501 494 506 q 537 460 521 482 q 553 404 553 439 q 543 353 553 376 q 510 310 533 331 q 476 284 496 297 q 431 256 457 271 l 431 240 q 451 235 440 238 q 474 229 463 233 q 544 193 513 219 q 575 110 575 167 q 551 20 575 57 q 499 -50 526 -17 q 489 -60 493 -56 q 481 -69 485 -65 q 439 -128 457 -99 q 421 -194 421 -157 q 431 -227 421 -212 q 460 -242 442 -242 q 483 -234 474 -242 q 501 -217 492 -226 q 504 -214 503 -215 q 507 -211 506 -212 q 513 -221 511 -215 q 514 -232 514 -226 q 501 -276 514 -257 q 460 -294 488 -294 q 410 -273 425 -294 q 396 -211 396 -251 q 408 -131 396 -178 q 433 -33 419 -83 q 458 63 446 15 q 469 143 469 110 q 460 192 469 171 q 418 213 450 213 q 395 208 406 213 q 376 193 385 203 l 356 206 q 367 215 361 210 q 378 228 372 221 q 420 284 400 253 q 446 347 440 315 q 447 356 446 351 q 447 367 447 361 q 438 412 447 390 q 413 447 428 433 l 235 321 l 235 125 l 304 72 l 354 104 l 368 86 l 226 -17 l 203 -17 q 190 -4 197 -11 q 174 11 182 3 q 147 31 161 21 q 119 44 133 40 q 109 48 114 47 q 99 49 104 49 q 85 47 93 49 q 69 42 78 44 q 60 37 65 39 q 51 33 56 35 q 40 26 46 29 q 32 21 35 24 l 32 22 z "},"":{"ha":1111,"x_min":92,"x_max":1019,"o":"m 556 919 q 884 779 749 918 q 1019 443 1019 640 q 884 108 1019 246 q 556 -31 749 -31 q 227 108 363 -31 q 92 443 92 246 q 227 779 92 640 q 556 918 363 918 l 556 919 m 556 864 q 279 737 394 863 q 164 443 164 611 q 279 149 164 275 q 556 24 394 24 q 832 149 717 24 q 947 443 947 275 q 832 737 947 611 q 556 863 717 863 l 556 864 m 335 686 l 335 704 l 572 704 q 685 673 635 703 q 735 578 735 643 q 703 487 735 524 q 622 433 671 450 l 703 325 q 722 299 713 311 q 740 275 731 286 q 778 233 760 251 q 811 207 797 215 l 811 196 l 731 196 q 676 255 703 222 q 626 321 650 288 q 591 371 608 346 q 557 419 574 396 l 485 421 l 485 286 q 502 237 485 251 q 553 219 519 222 l 553 196 l 333 196 l 333 221 q 384 237 367 222 q 401 285 401 251 l 401 617 q 401 619 401 617 q 401 622 401 621 q 397 668 401 658 q 360 682 392 678 q 349 683 356 682 q 335 685 342 683 l 335 686 m 485 679 l 485 446 l 549 446 q 626 479 600 444 q 651 574 651 514 q 619 655 651 632 q 544 678 588 678 l 485 679 l 485 679 z "},"":{"ha":1111,"x_min":92,"x_max":1019,"o":"m 556 919 q 884 779 749 918 q 1019 443 1019 640 q 884 108 1019 246 q 556 -31 749 -31 q 227 108 363 -31 q 92 443 92 246 q 227 779 92 640 q 556 918 363 918 l 556 919 m 556 864 q 279 737 394 863 q 164 443 164 611 q 279 149 164 275 q 556 24 394 24 q 832 149 717 24 q 947 443 947 275 q 832 737 947 611 q 556 863 717 863 l 556 864 m 765 326 l 786 326 l 764 232 q 758 217 764 221 q 740 208 751 213 q 735 206 738 207 q 729 204 732 206 q 719 201 725 203 q 706 197 713 199 q 653 185 683 190 q 585 181 622 181 q 381 244 467 181 q 294 454 294 307 q 297 488 294 471 q 306 524 300 506 q 398 657 328 596 q 592 718 468 718 q 665 712 638 718 q 715 699 693 706 q 725 696 721 697 q 733 693 729 694 q 757 681 750 689 q 764 665 764 674 l 764 571 l 739 571 q 738 578 739 574 q 736 586 738 582 q 697 660 729 626 q 588 693 664 693 q 438 627 486 693 q 389 460 389 561 q 438 278 389 350 q 597 206 488 206 q 708 243 669 206 q 765 325 747 281 l 765 326 z "},"":{"ha":1250,"x_min":92,"x_max":1158,"o":"m 324 864 l 324 507 q 335 455 324 467 q 383 443 347 443 l 383 419 l 192 419 l 192 444 q 240 455 228 443 q 251 506 251 467 l 251 864 l 193 864 q 140 840 157 863 q 117 785 122 817 l 92 786 l 92 889 l 486 889 l 486 786 l 461 786 q 438 840 456 817 q 385 863 421 863 l 324 864 l 324 864 m 826 419 l 650 778 l 647 778 l 647 515 q 658 461 647 476 q 707 443 669 446 l 707 419 l 557 419 l 557 444 q 606 461 594 446 q 617 514 617 476 l 617 808 q 585 848 607 833 q 538 863 563 863 l 538 889 l 671 889 l 854 522 l 1044 889 l 1158 889 l 1158 864 q 1106 846 1121 861 q 1092 799 1092 831 l 1092 499 q 1106 454 1092 464 q 1150 443 1119 444 l 1150 419 l 961 419 l 961 444 q 1006 454 993 444 q 1019 497 1019 464 l 1019 781 l 1017 781 l 836 419 l 826 419 l 826 419 z "},"":{"ha":386,"x_min":108,"x_max":328,"o":"m 328 774 l 328 749 l 131 586 l 108 586 l 175 774 l 328 774 l 328 774 z "},"":{"ha":386,"x_min":10,"x_max":376,"o":"m 74 613 l 10 671 l 10 686 l 74 746 l 138 686 l 138 671 l 74 613 l 74 613 m 313 613 l 249 671 l 249 686 l 313 746 l 376 686 l 376 671 l 313 613 l 313 613 z "},"":{"ha":347,"x_min":0,"x_max":0,"o":""},"":{"ha":1389,"x_min":-15,"x_max":1386,"o":"m 225 121 l 365 543 q 359 550 363 546 q 351 557 356 554 q 316 584 335 575 q 269 593 297 593 q 221 577 243 593 q 188 533 199 561 l 167 546 q 170 556 168 550 q 174 567 172 561 q 227 648 192 611 q 314 685 263 685 q 360 679 338 685 q 404 663 383 674 l 442 783 q 390 805 417 794 q 336 815 364 815 q 285 808 307 815 q 242 788 263 800 q 222 774 232 781 q 201 758 213 767 l 186 771 q 260 874 206 831 q 382 918 315 918 q 438 909 411 918 q 490 886 465 900 l 508 919 l 533 919 q 536 878 533 899 q 543 838 539 858 q 549 810 546 824 q 557 783 553 797 l 688 338 l 756 122 q 768 92 761 107 q 783 64 775 78 q 908 131 840 111 q 1049 150 976 150 l 1049 672 q 1093 847 1049 775 q 1225 918 1138 918 q 1289 906 1260 918 q 1340 867 1318 894 l 1371 886 l 1386 867 l 1253 768 q 1213 801 1235 786 q 1161 817 1190 817 q 1098 781 1122 817 q 1074 693 1074 746 l 1074 532 q 1085 536 1079 533 q 1097 543 1090 539 q 1118 553 1107 549 q 1142 563 1129 558 q 1164 569 1153 567 q 1185 571 1175 571 q 1238 558 1214 571 q 1286 528 1263 546 q 1292 523 1289 525 q 1297 518 1294 521 l 1319 535 l 1339 514 l 1218 438 l 1218 113 l 1294 69 l 1339 99 l 1356 78 l 1206 -31 l 1174 -31 q 1155 -15 1165 -24 q 1131 1 1144 -6 q 1044 46 1094 25 q 939 67 994 67 q 931 67 935 67 q 924 67 928 67 q 778 19 844 63 q 711 -112 711 -24 q 764 -221 711 -183 q 881 -271 817 -258 q 917 -276 899 -275 q 951 -278 935 -278 q 1008 -274 979 -278 q 1064 -264 1036 -269 q 1081 -260 1072 -262 q 1100 -257 1090 -258 l 1108 -281 q 1031 -296 1069 -289 q 956 -303 993 -303 q 948 -303 951 -303 q 940 -303 944 -303 q 765 -253 844 -300 q 686 -97 686 -206 q 690 -72 686 -85 q 697 -47 693 -60 q 698 -46 697 -46 q 699 -44 699 -46 q 702 -33 700 -39 q 706 -22 704 -28 q 649 88 669 29 q 613 208 628 147 q 608 226 610 217 q 603 244 606 235 q 598 263 600 253 q 593 282 596 272 l 306 283 l 253 121 q 340 103 297 119 q 421 60 383 88 l 492 114 l 508 93 l 342 -31 l 317 -31 q 306 -22 313 -26 q 293 -11 300 -17 q 237 13 271 1 q 163 25 203 25 q 53 -15 99 25 q 8 -119 8 -56 q 61 -231 8 -194 q 176 -275 114 -268 q 195 -277 186 -276 q 214 -278 204 -278 q 255 -276 235 -278 q 294 -271 275 -274 l 306 -297 q 289 -298 297 -297 q 272 -300 281 -299 q 258 -301 265 -300 q 244 -303 251 -301 q 235 -303 240 -303 q 225 -303 231 -303 q 58 -260 132 -303 q -15 -108 -15 -217 q 60 54 -15 -11 q 225 119 135 119 l 225 121 m 1193 122 l 1193 439 q 1173 469 1185 456 q 1149 489 1161 482 q 1133 496 1140 493 q 1118 499 1125 499 q 1092 494 1103 499 q 1074 479 1081 489 l 1074 151 q 1101 148 1086 150 q 1129 143 1115 146 q 1164 133 1147 139 q 1193 121 1181 128 l 1193 122 m 456 738 l 338 383 l 564 383 l 458 738 l 456 738 l 456 738 m 1001 743 l 1015 726 q 990 705 1001 719 q 978 665 978 690 l 978 364 q 947 229 978 276 q 879 161 917 182 q 856 151 868 156 q 833 143 844 146 l 826 167 q 860 196 849 175 q 875 240 871 217 q 877 257 876 249 q 878 274 878 265 l 878 418 l 826 418 q 822 417 824 417 q 817 415 819 417 q 785 400 800 413 q 764 365 771 388 l 739 367 q 762 474 739 431 q 842 517 785 517 l 878 518 l 878 625 q 913 697 878 667 q 990 739 949 728 q 996 741 993 740 q 1001 742 999 742 l 1001 743 m 1064 919 l 1093 919 q 1080 897 1086 907 q 1068 878 1074 888 q 1013 823 1043 842 q 928 804 983 804 q 894 807 911 804 q 861 814 878 810 q 854 815 857 814 q 847 817 851 817 q 805 826 826 822 q 760 829 783 829 q 699 811 724 829 q 674 754 674 793 q 679 724 674 739 q 692 696 685 710 q 692 692 692 694 q 694 689 693 690 l 672 682 q 660 706 665 692 q 653 735 654 719 q 649 754 650 744 q 649 772 649 764 q 699 883 649 849 q 818 918 750 918 q 870 914 850 918 q 906 906 890 910 q 910 905 908 906 q 913 904 911 904 q 915 903 914 904 q 917 903 915 903 q 955 892 935 897 q 1010 886 975 886 q 1037 892 1026 886 q 1057 908 1047 899 q 1060 913 1058 911 q 1064 918 1063 915 l 1064 919 z "},"":{"ha":1081,"x_min":46,"x_max":1028,"o":"m 619 858 l 736 919 l 758 919 q 774 907 767 913 q 789 897 782 901 q 805 886 797 892 q 819 875 813 881 l 917 1003 l 964 1003 l 849 854 q 976 710 925 793 q 1028 488 1028 628 q 1028 484 1028 486 q 1028 481 1028 482 q 1028 477 1028 479 q 1028 474 1028 475 q 893 116 1028 263 q 544 -31 758 -31 q 382 -6 461 -31 q 238 63 303 18 l 119 -89 l 74 -89 l 208 85 q 91 227 136 142 q 46 418 46 313 q 158 708 46 582 q 411 899 271 835 l 419 876 q 232 679 271 810 q 193 406 193 549 q 193 402 193 404 q 193 399 193 400 q 208 256 193 319 q 254 143 224 192 l 396 328 l 396 721 l 304 676 l 296 699 l 594 847 l 594 919 l 619 919 l 619 858 l 619 858 m 393 268 l 276 114 q 404 24 325 53 q 594 -6 483 -6 l 594 525 l 592 525 l 513 419 l 513 228 q 476 139 513 174 q 393 88 439 104 q 384 83 389 85 q 374 81 379 82 l 347 100 q 385 142 375 118 q 396 204 396 167 l 396 268 l 393 268 l 393 268 m 619 269 l 619 -6 q 793 85 721 8 q 885 254 865 161 q 819 283 856 274 q 744 293 783 293 q 724 292 735 293 q 703 290 713 292 q 661 282 682 288 q 619 268 640 276 l 619 269 m 619 556 l 619 297 q 640 303 631 300 q 661 308 650 306 q 703 315 682 313 q 744 318 724 318 q 823 308 786 318 q 893 281 860 297 q 903 326 899 303 q 910 374 907 350 q 913 405 913 389 q 914 436 914 421 q 913 461 914 449 q 911 485 913 474 q 905 522 908 504 q 897 558 901 540 q 863 544 883 550 q 821 533 843 538 q 795 529 808 531 q 771 528 782 528 q 694 533 732 528 q 619 554 657 539 l 619 556 m 515 479 l 594 585 l 594 818 l 513 778 l 513 479 l 515 479 l 515 479 m 774 756 l 635 578 q 673 565 653 569 q 713 556 693 560 q 738 553 725 554 q 761 553 750 553 q 829 561 796 553 q 892 581 863 569 q 841 677 872 633 q 774 754 810 721 l 774 756 m 622 618 l 746 781 q 693 813 719 799 q 639 836 667 828 l 621 829 l 619 621 l 622 618 l 622 618 z "},"":{"ha":347,"x_min":0,"x_max":0,"o":""},"":{"ha":833,"x_min":165,"x_max":668,"o":"m 165 0 l 165 64 l 668 64 l 668 0 l 165 0 l 165 0 m 385 332 l 385 503 l 449 503 l 449 332 l 668 332 l 668 268 l 449 268 l 449 96 l 385 96 l 385 268 l 165 268 l 165 332 l 385 332 l 385 332 z "},"":{"ha":347,"x_min":0,"x_max":0,"o":""},"":{"ha":347,"x_min":0,"x_max":0,"o":""},"":{"ha":694,"x_min":-6,"x_max":701,"o":"m 490 -303 l 476 -278 q 497 -277 485 -278 q 519 -275 508 -276 q 563 -262 543 -272 q 582 -233 582 -253 q 567 -199 582 -210 q 532 -187 551 -189 q 527 -187 529 -187 q 522 -187 525 -187 q 470 -204 501 -187 q 403 -240 439 -221 q 399 -242 401 -242 q 396 -244 397 -243 q 392 -247 394 -246 q 389 -249 390 -247 q 364 -262 376 -256 q 339 -275 351 -268 q 290 -294 314 -286 q 244 -301 267 -301 q 236 -301 240 -301 q 228 -300 232 -301 q 164 -273 193 -296 q 135 -200 135 -250 q 170 -103 135 -131 q 247 -62 206 -76 q 263 -59 256 -61 q 276 -54 269 -57 q 279 -53 278 -54 q 282 -53 281 -53 l 282 -50 q 172 -3 222 -42 q 121 114 121 35 l 121 171 l 86 171 q 35 154 54 169 q 6 119 15 139 l -6 129 q -2 141 -3 135 q 0 153 -1 147 q 30 235 7 197 q 111 272 53 272 l 121 274 l 121 433 l 86 433 q 35 417 54 432 q 6 382 15 401 l -6 392 q -2 403 -3 397 q 0 415 -1 410 q 30 497 7 460 q 111 535 53 535 l 121 536 l 121 707 q 102 760 121 740 q 56 781 83 781 l 56 807 q 70 810 63 808 q 86 813 78 811 q 97 814 92 814 q 108 814 103 814 q 181 785 156 814 q 207 721 207 757 l 207 536 l 274 536 l 274 772 q 264 777 268 772 q 260 792 260 782 q 267 808 260 801 q 286 814 274 814 q 306 808 299 814 q 314 792 313 801 q 310 778 314 783 q 301 772 306 774 q 301 771 301 771 q 299 771 300 771 l 299 536 l 489 536 l 489 736 l 475 747 q 472 748 474 747 q 469 750 471 749 q 467 751 468 750 q 464 753 465 753 q 458 756 461 754 q 453 757 456 757 q 444 754 449 757 q 435 747 440 751 q 432 745 433 746 q 431 743 431 744 q 426 740 428 742 q 422 736 424 738 l 403 750 l 485 815 l 501 815 q 522 800 508 813 q 551 774 536 788 q 551 772 551 772 q 553 772 551 772 q 583 744 568 757 q 604 732 597 732 q 616 733 611 732 q 626 738 621 735 q 631 740 629 739 q 636 742 633 740 l 646 728 l 575 674 l 575 536 l 610 536 q 661 551 642 535 q 690 585 681 567 l 701 578 q 699 564 700 571 q 697 551 699 557 q 666 469 689 507 q 585 432 643 432 l 575 433 l 575 274 l 610 274 q 661 288 642 272 q 690 322 681 304 l 701 315 q 699 301 700 308 q 697 289 699 294 q 666 207 689 244 q 585 169 643 169 l 575 171 q 511 10 575 58 q 372 -62 447 -37 q 332 -74 351 -68 q 293 -85 313 -79 q 205 -119 242 -100 q 168 -175 168 -137 q 183 -203 168 -197 q 215 -210 197 -210 q 217 -210 217 -210 q 219 -210 218 -210 q 281 -194 247 -210 q 351 -154 315 -178 q 430 -113 390 -131 q 508 -96 469 -96 q 510 -96 510 -96 q 513 -96 511 -96 q 583 -127 551 -97 q 615 -210 615 -157 q 590 -276 615 -257 q 533 -300 564 -294 q 511 -302 522 -301 q 490 -303 500 -303 l 490 -303 m 489 171 l 299 171 l 299 -25 q 328 -24 313 -25 q 360 -19 344 -22 q 449 15 408 -11 q 489 96 489 40 l 489 171 l 489 171 m 274 171 l 207 171 l 207 78 q 226 15 207 42 q 274 -22 244 -12 l 274 171 l 274 171 m 207 274 l 274 274 l 274 433 l 207 433 l 207 274 l 207 274 m 299 274 l 489 274 l 489 433 l 299 433 l 299 274 l 299 274 z "},"":{"ha":694,"x_min":38,"x_max":678,"o":"m 147 -306 l 128 -287 q 156 -261 147 -276 q 167 -229 165 -246 q 167 -224 167 -226 q 167 -219 167 -222 q 160 -181 167 -196 q 146 -150 154 -165 q 146 -150 146 -150 q 146 -150 146 -150 q 145 -147 146 -149 q 143 -144 144 -146 q 127 -106 133 -128 q 121 -49 121 -85 q 124 -16 121 -29 q 131 8 126 -3 q 133 13 132 11 q 133 17 133 14 q 141 44 138 29 q 146 79 144 58 l 146 390 l 99 439 l 56 408 l 38 431 l 167 519 l 189 519 l 232 474 q 247 447 243 461 q 251 404 251 432 l 251 115 l 324 69 l 461 163 l 461 383 l 407 428 l 371 406 l 361 429 l 482 518 l 503 518 q 511 507 507 513 q 521 497 515 501 q 535 482 528 489 q 550 469 543 475 q 572 453 561 460 q 593 447 583 447 q 607 450 600 447 q 622 458 614 453 q 630 463 626 460 q 638 468 633 465 q 649 475 643 471 q 658 482 654 479 l 672 463 l 574 393 l 574 131 l 633 72 l 664 88 l 678 72 l 558 -17 l 532 -17 l 482 38 q 467 67 471 49 q 463 126 463 86 l 249 -17 l 226 -17 l 204 -3 q 194 3 200 0 q 181 6 188 6 q 168 -3 171 6 q 165 -26 165 -12 q 175 -72 165 -51 q 201 -110 185 -92 q 204 -112 203 -111 q 207 -115 206 -114 q 208 -117 207 -117 q 211 -119 210 -118 q 240 -154 226 -136 q 253 -200 253 -172 q 224 -267 253 -240 q 161 -303 196 -293 q 153 -305 157 -304 q 147 -306 150 -306 l 147 -306 z "},"":{"ha":347,"x_min":0,"x_max":0,"o":""},"":{"ha":347,"x_min":0,"x_max":0,"o":""},"":{"ha":347,"x_min":0,"x_max":0,"o":""},"":{"ha":347,"x_min":0,"x_max":0,"o":""},"":{"ha":347,"x_min":0,"x_max":0,"o":""},"":{"ha":369,"x_min":3,"x_max":371,"o":"m 358 744 l 371 725 l 306 678 l 306 539 l 328 500 l 360 522 l 368 500 l 281 446 l 271 446 l 246 467 q 234 483 238 472 q 231 519 231 493 l 96 446 l 82 446 q 73 445 78 444 q 63 447 68 446 q 22 476 40 456 q 3 519 3 496 q 28 573 3 550 q 86 611 54 596 q 110 623 99 618 q 133 632 122 628 l 58 701 q 55 703 57 701 q 51 707 53 706 q 43 720 46 714 q 40 731 40 726 q 51 756 40 747 q 79 765 63 765 q 81 765 81 765 q 83 765 82 765 q 108 756 97 764 q 119 735 119 747 q 115 718 119 725 q 104 707 111 711 l 106 707 q 132 711 117 707 q 164 721 147 715 q 198 737 181 728 q 226 754 215 746 q 232 760 229 757 q 236 765 235 763 l 250 767 q 269 742 257 753 q 294 725 281 731 q 303 722 299 722 q 311 721 307 721 q 317 722 314 721 q 324 724 321 722 q 334 728 329 725 q 344 733 339 731 q 352 739 349 736 q 358 743 356 742 l 358 744 m 115 681 l 196 608 l 178 592 l 146 622 l 121 611 q 90 587 103 600 q 78 551 78 574 q 94 519 78 529 q 131 504 111 510 q 138 502 135 503 q 146 500 142 501 l 231 551 l 231 681 l 190 708 q 149 687 168 692 q 115 679 131 682 l 115 681 z "},"":{"ha":369,"x_min":-7,"x_max":376,"o":"m 365 742 l 376 731 l 321 693 l 321 524 q 324 522 322 522 q 326 522 325 522 q 338 515 332 519 q 343 506 343 511 q 338 499 343 500 q 322 497 332 497 q 222 484 265 497 q 154 456 178 471 q 146 450 150 453 q 139 444 142 447 l 119 446 q 109 453 115 449 q 97 461 103 457 q 90 465 93 463 q 83 469 86 467 q 58 483 69 478 q 39 489 46 489 q 28 487 33 489 q 19 482 24 485 q 19 480 19 481 q 17 479 18 479 q 11 476 14 478 q 6 472 8 474 l -7 483 l 47 515 l 47 689 q 45 688 46 688 q 44 689 44 689 q 32 697 38 692 q 25 707 26 703 q 24 710 24 708 q 24 713 24 711 q 67 716 39 713 q 128 726 96 719 q 186 743 158 733 q 229 765 214 753 l 246 767 q 254 757 249 761 q 265 749 260 753 q 276 743 271 746 q 285 738 281 740 q 308 726 297 731 q 325 721 319 721 q 334 722 329 721 q 344 726 339 724 q 351 731 347 728 q 358 735 356 733 q 362 738 360 736 q 365 740 364 739 l 365 742 m 246 681 l 167 721 l 122 708 l 122 531 l 199 492 q 208 494 203 492 q 217 497 213 496 q 233 502 225 500 q 246 506 242 504 l 246 681 l 246 681 z "},"":{"ha":347,"x_min":0,"x_max":0,"o":""},"":{"ha":772,"x_min":40,"x_max":747,"o":"m 724 133 l 738 111 l 513 -17 l 489 -17 q 467 3 478 -7 q 447 22 457 13 q 447 24 447 24 q 444 25 446 25 q 408 60 426 43 q 369 93 390 78 l 171 -17 l 140 -17 q 125 -10 133 -14 q 108 0 117 -6 q 62 44 83 17 q 40 110 40 72 q 79 202 40 163 q 164 267 118 242 q 174 272 169 269 q 185 276 179 274 l 228 297 l 118 408 q 115 412 117 410 q 110 415 113 414 q 90 444 97 431 q 82 467 82 457 q 99 501 82 488 q 136 518 115 515 q 140 518 138 518 q 143 518 142 518 q 188 508 169 518 q 207 469 207 499 q 198 440 207 451 q 175 422 189 429 l 178 421 q 209 422 193 419 q 242 431 225 425 q 324 467 283 443 q 394 518 365 490 l 407 519 l 472 464 q 507 474 488 467 q 547 492 526 481 q 569 503 558 497 q 590 518 581 510 l 613 519 l 747 350 l 747 336 l 481 190 l 481 125 l 606 65 l 724 133 l 724 133 m 247 56 l 375 124 l 375 401 l 328 442 q 267 409 300 419 q 199 393 233 399 q 183 391 190 392 q 168 389 175 390 l 314 249 l 297 233 l 249 275 l 218 261 q 167 222 189 246 q 146 167 146 199 q 176 96 146 124 q 243 56 207 68 q 245 55 244 56 q 247 54 246 54 l 247 56 m 481 438 l 481 218 l 647 308 l 533 457 l 481 438 l 481 438 z "},"":{"ha":617,"x_min":13,"x_max":603,"o":"m 517 650 l 563 650 l 457 476 q 495 452 476 461 q 524 443 514 443 q 537 446 529 443 q 551 451 544 449 q 567 460 560 456 q 579 471 574 465 q 583 474 581 472 q 586 476 585 475 l 603 458 l 517 399 l 517 115 q 522 111 519 113 q 526 108 524 110 q 544 96 536 103 q 553 82 553 89 q 544 73 553 76 q 519 69 535 69 q 382 52 443 69 q 282 13 321 35 q 256 -3 267 4 q 238 -17 244 -10 l 208 -17 q 192 -5 200 -11 q 174 7 183 1 l 88 -133 l 38 -133 l 139 32 q 108 49 122 42 q 85 56 93 56 q 67 51 75 56 q 53 42 60 47 q 50 41 51 42 q 49 39 49 40 q 41 34 44 36 q 33 29 38 32 l 13 47 l 96 103 l 96 392 q 89 394 93 392 q 81 399 85 396 q 74 404 78 401 q 68 410 71 407 q 61 417 64 414 q 58 424 58 421 q 58 424 58 424 q 58 426 58 425 q 61 429 60 428 q 65 431 63 431 q 133 435 94 431 q 211 450 171 440 q 302 478 258 461 q 375 518 346 496 l 400 519 q 408 512 404 515 q 415 504 411 508 q 420 501 418 503 q 425 497 422 499 l 517 650 l 517 650 m 400 382 l 235 108 l 329 60 q 347 66 338 63 q 367 72 357 69 q 390 79 379 76 q 411 83 401 82 l 411 376 l 400 382 l 400 382 m 204 133 l 364 400 l 281 442 l 201 418 l 201 133 l 204 133 l 204 133 z "},"":{"ha":540,"x_min":22,"x_max":471,"o":"m 292 281 l 313 293 q 319 281 315 286 q 325 269 322 275 q 337 244 331 257 q 347 219 343 232 q 356 194 353 207 q 358 168 358 181 q 315 60 358 101 q 219 -14 272 19 q 212 -18 215 -15 q 206 -22 208 -21 q 119 -90 157 -54 q 81 -181 81 -126 q 106 -247 81 -219 q 161 -285 131 -275 q 176 -289 168 -287 q 190 -290 183 -290 q 288 -247 246 -290 q 354 -150 329 -203 q 369 -117 363 -133 q 379 -85 375 -100 l 471 -167 q 376 -273 433 -228 q 229 -318 318 -318 q 199 -315 215 -318 q 168 -307 183 -312 q 68 -240 114 -287 q 22 -128 22 -192 q 68 -10 22 -54 q 168 69 114 35 q 200 89 185 79 q 231 108 215 99 q 290 155 265 131 q 314 210 314 179 q 313 221 314 215 q 313 232 313 226 q 305 257 310 244 q 292 279 300 269 l 292 281 m 450 489 l 468 471 l 325 364 l 294 364 l 208 425 l 167 396 l 151 411 l 290 519 l 319 519 l 403 460 l 450 489 l 450 489 z "},"":{"ha":386,"x_min":32,"x_max":354,"o":"m 335 -228 l 354 -242 l 197 -357 l 179 -357 l 140 -326 q 131 -319 135 -322 q 121 -314 126 -317 q 97 -307 110 -308 q 65 -306 85 -306 q 44 -302 49 -306 q 39 -292 39 -299 q 56 -265 40 -276 q 89 -247 71 -253 q 105 -242 97 -243 q 119 -239 113 -240 l 181 217 l 197 217 l 258 -243 l 288 -260 l 335 -228 l 335 -228 m 331 489 l 349 471 l 206 364 l 175 364 l 89 425 l 47 396 l 32 411 l 171 519 l 200 519 l 283 460 l 331 489 l 331 489 z "},"":{"ha":347,"x_min":0,"x_max":0,"o":""},"":{"ha":347,"x_min":0,"x_max":0,"o":""},"":{"ha":694,"x_min":161,"x_max":558,"o":"m 161 421 l 196 519 l 274 519 l 274 615 q 273 634 274 624 q 271 656 272 644 q 262 710 268 683 q 249 761 256 738 q 285 773 263 764 q 332 797 308 782 q 387 835 361 813 q 425 882 413 857 l 443 883 q 451 870 446 878 q 464 854 457 863 q 478 839 471 846 q 494 826 486 832 q 503 822 499 824 q 513 821 508 821 q 532 826 524 821 q 549 839 540 832 l 558 836 q 525 768 549 796 q 458 740 501 740 q 422 747 435 740 q 396 764 408 753 q 388 772 392 768 q 379 782 383 776 l 379 519 l 476 519 l 493 542 l 510 542 l 474 447 l 379 447 l 379 -185 l 274 -240 l 274 444 l 190 444 l 181 421 l 161 421 l 161 421 z "},"":{"ha":347,"x_min":0,"x_max":0,"o":""},"":{"ha":347,"x_min":0,"x_max":0,"o":""},"":{"ha":540,"x_min":51,"x_max":489,"o":"m 297 454 l 140 254 l 301 49 l 214 49 l 51 254 l 214 454 l 297 454 l 297 454 m 485 454 l 328 254 l 489 49 l 401 49 l 239 254 l 401 454 l 485 454 l 485 454 z "},"":{"ha":540,"x_min":51,"x_max":489,"o":"m 56 49 l 213 249 l 51 454 l 139 454 l 301 249 l 139 49 l 56 49 l 56 49 m 243 49 l 400 249 l 239 454 l 326 454 l 489 249 l 326 49 l 243 49 l 243 49 z "},"":{"ha":1389,"x_min":74,"x_max":1315,"o":"m 74 32 l 217 139 l 247 139 l 333 78 l 375 107 l 390 92 l 251 -17 l 222 -17 l 139 43 l 92 14 l 74 32 l 74 32 m 536 32 l 679 139 l 710 139 l 796 78 l 838 107 l 853 92 l 714 -17 l 685 -17 l 601 43 l 554 14 l 536 32 l 536 32 m 999 32 l 1142 139 l 1172 139 l 1258 78 l 1300 107 l 1315 92 l 1176 -17 l 1147 -17 l 1064 43 l 1017 14 l 999 32 l 999 32 z "},"":{"ha":1157,"x_min":32,"x_max":1125,"o":"m 828 279 l 417 279 l 343 119 q 348 118 346 118 q 351 118 350 118 q 474 105 415 117 q 568 63 533 93 l 647 114 l 664 99 l 476 -31 l 444 -31 q 429 -21 438 -26 q 411 -10 421 -15 q 343 17 383 4 q 250 29 303 29 q 233 28 242 29 q 215 26 224 28 q 106 -19 156 18 q 57 -121 57 -56 q 113 -233 57 -200 q 235 -274 168 -265 q 276 -277 256 -276 q 314 -278 296 -278 q 366 -274 340 -278 q 417 -265 392 -271 l 425 -293 q 403 -295 414 -294 q 383 -297 393 -296 q 348 -301 365 -300 q 313 -303 331 -303 q 276 -302 294 -303 q 239 -299 257 -301 q 97 -251 161 -290 q 32 -121 32 -212 q 89 13 32 -44 q 215 96 146 69 q 265 113 240 107 q 311 118 289 118 l 503 543 q 468 576 489 564 q 419 588 447 588 q 366 572 392 588 q 326 531 340 556 l 306 540 q 360 641 321 600 q 468 682 400 682 q 513 677 492 682 q 554 660 535 672 l 608 775 q 565 797 589 789 q 518 808 542 806 q 505 810 511 810 q 493 810 499 810 q 433 801 458 810 q 385 775 408 792 q 367 761 375 768 q 349 746 358 754 l 331 757 q 416 869 358 821 q 547 918 474 918 q 610 906 581 918 q 665 875 639 894 l 688 919 l 706 919 q 726 831 713 872 q 757 749 740 789 l 1007 142 q 1021 114 1013 126 q 1038 90 1029 101 q 1057 70 1047 78 q 1072 61 1067 63 l 1111 85 l 1125 68 l 1028 -3 q 1021 -8 1025 -6 q 1014 -14 1017 -11 q 1013 -15 1013 -15 q 1011 -15 1013 -15 q 1002 -24 1007 -21 q 994 -31 997 -28 l 968 -31 q 918 40 940 -6 q 878 136 896 86 q 851 213 864 175 q 828 278 839 250 l 828 279 m 783 379 l 626 756 l 458 379 l 783 379 l 783 379 m 533 1135 l 533 1160 l 686 1160 l 753 972 l 731 972 l 533 1135 l 533 1135 z "},"":{"ha":1157,"x_min":32,"x_max":1125,"o":"m 828 279 l 417 279 l 343 119 q 348 118 346 118 q 351 118 350 118 q 474 105 415 117 q 568 63 533 93 l 647 114 l 664 99 l 476 -31 l 444 -31 q 429 -21 438 -26 q 411 -10 421 -15 q 343 17 383 4 q 250 29 303 29 q 233 28 242 29 q 215 26 224 28 q 106 -19 156 18 q 57 -121 57 -56 q 113 -233 57 -200 q 235 -274 168 -265 q 276 -277 256 -276 q 314 -278 296 -278 q 366 -274 340 -278 q 417 -265 392 -271 l 425 -293 q 403 -295 414 -294 q 383 -297 393 -296 q 348 -301 365 -300 q 313 -303 331 -303 q 276 -302 294 -303 q 239 -299 257 -301 q 97 -251 161 -290 q 32 -121 32 -212 q 89 13 32 -44 q 215 96 146 69 q 265 113 240 107 q 311 118 289 118 l 503 543 q 468 576 489 564 q 419 588 447 588 q 366 572 392 588 q 326 531 340 556 l 306 540 q 360 641 321 600 q 468 682 400 682 q 513 677 492 682 q 554 660 535 672 l 608 775 q 565 797 589 789 q 518 808 542 806 q 505 810 511 810 q 493 810 499 810 q 433 801 458 810 q 385 775 408 792 q 367 761 375 768 q 349 746 358 754 l 331 757 q 416 869 358 821 q 547 918 474 918 q 610 906 581 918 q 665 875 639 894 l 688 919 l 706 919 q 726 831 713 872 q 757 749 740 789 l 1007 142 q 1021 114 1013 126 q 1038 90 1029 101 q 1057 70 1047 78 q 1072 61 1067 63 l 1111 85 l 1125 68 l 1028 -3 q 1021 -8 1025 -6 q 1014 -14 1017 -11 q 1013 -15 1013 -15 q 1011 -15 1013 -15 q 1002 -24 1007 -21 q 994 -31 997 -28 l 968 -31 q 918 40 940 -6 q 878 136 896 86 q 851 213 864 175 q 828 278 839 250 l 828 279 m 783 379 l 626 756 l 458 379 l 783 379 l 783 379 m 508 992 l 475 992 q 476 1007 475 999 q 481 1024 478 1015 q 523 1088 493 1058 q 588 1117 553 1117 q 617 1114 603 1117 q 646 1107 632 1111 q 660 1103 653 1106 q 675 1099 668 1101 q 681 1097 678 1097 q 686 1096 683 1096 q 724 1085 706 1090 q 763 1081 743 1081 q 805 1095 790 1081 q 829 1132 819 1110 l 861 1133 q 858 1121 860 1126 q 856 1110 857 1115 q 815 1040 843 1072 q 743 1008 786 1008 q 708 1012 728 1008 q 669 1021 689 1015 q 665 1022 667 1021 q 660 1024 663 1022 q 653 1024 657 1024 q 647 1026 650 1025 q 601 1039 622 1033 q 567 1044 579 1044 q 528 1029 543 1044 q 508 990 514 1014 l 508 992 z "},"":{"ha":1081,"x_min":46,"x_max":1028,"o":"m 411 900 l 419 876 q 232 679 271 810 q 193 406 193 549 q 193 402 193 404 q 193 399 193 400 q 290 97 193 199 q 594 -6 386 -6 l 594 818 l 513 778 l 513 228 q 476 139 513 174 q 393 88 439 104 q 384 83 389 85 q 374 81 379 82 l 347 100 q 385 142 375 118 q 396 204 396 167 l 396 721 l 304 676 l 296 699 l 594 847 l 594 919 l 619 919 l 619 858 l 736 919 l 758 919 q 767 912 763 915 q 778 906 772 908 q 953 747 879 835 q 1028 488 1028 660 q 1028 481 1028 485 q 1028 474 1028 478 q 893 116 1028 263 q 544 -31 758 -31 q 199 92 351 -31 q 46 418 46 215 q 158 708 46 582 q 411 899 271 835 l 411 900 m 619 269 l 619 -6 q 793 85 721 8 q 885 254 865 161 q 819 283 856 274 q 744 293 783 293 q 724 292 735 293 q 703 290 713 292 q 661 282 682 288 q 619 268 640 276 l 619 269 m 619 556 l 619 297 q 640 303 631 300 q 661 308 650 306 q 703 315 682 313 q 744 318 724 318 q 823 308 786 318 q 893 281 860 297 q 903 326 899 303 q 910 374 907 350 q 913 405 913 389 q 914 436 914 421 q 913 461 914 449 q 911 485 913 474 q 905 522 908 504 q 897 558 901 540 q 863 544 883 550 q 821 533 843 538 q 795 529 808 531 q 771 528 782 528 q 694 533 732 528 q 619 554 657 539 l 619 556 m 621 829 l 619 582 q 665 566 642 572 q 714 556 689 560 q 738 553 725 554 q 761 553 750 553 q 829 561 796 553 q 892 581 863 569 q 801 728 860 665 q 678 821 742 792 q 658 830 668 826 q 639 836 649 833 l 621 829 l 621 829 m 397 992 l 364 992 q 365 1007 364 999 q 369 1024 367 1015 q 412 1088 382 1058 q 476 1117 442 1117 q 506 1114 492 1117 q 535 1107 521 1111 q 549 1103 542 1106 q 564 1099 557 1101 q 569 1097 567 1097 q 575 1096 572 1096 q 613 1085 594 1090 q 651 1081 632 1081 q 694 1095 679 1081 q 718 1132 708 1110 l 750 1133 q 747 1121 749 1126 q 744 1110 746 1115 q 703 1040 732 1072 q 632 1008 675 1008 q 597 1012 617 1008 q 558 1021 578 1015 q 553 1022 556 1021 q 549 1024 551 1022 q 542 1024 546 1024 q 536 1026 539 1025 q 490 1039 511 1033 q 456 1044 468 1044 q 417 1029 432 1044 q 397 990 403 1014 l 397 992 z "},"":{"ha":1389,"x_min":17,"x_max":1400,"o":"m 1304 517 l 1335 535 l 1351 518 l 1217 428 l 1217 122 q 1225 117 1221 119 q 1233 114 1229 115 q 1274 94 1254 104 q 1314 71 1294 83 l 1354 99 l 1369 81 l 1218 -31 l 1196 -31 q 1174 -13 1188 -22 q 1144 4 1161 -4 q 1048 45 1106 26 q 921 64 990 64 q 919 64 919 64 q 917 64 918 64 q 764 20 833 63 q 694 -114 694 -22 q 746 -217 694 -181 q 860 -267 797 -253 q 908 -275 885 -272 q 953 -278 932 -278 q 1023 -271 989 -278 q 1090 -253 1057 -264 l 1094 -272 q 1039 -292 1068 -285 q 981 -301 1010 -299 q 956 -302 968 -301 q 933 -303 944 -303 q 914 -302 924 -303 q 893 -301 904 -301 q 740 -244 810 -292 q 669 -103 669 -197 q 742 47 668 -11 q 904 131 815 106 q 969 145 938 140 q 1031 150 1001 150 l 1031 664 q 1031 666 1031 664 q 1031 671 1031 668 q 1077 841 1032 764 q 1232 918 1122 918 q 1299 903 1267 918 q 1360 868 1332 888 l 1388 886 l 1400 865 l 1267 769 q 1217 803 1244 789 q 1158 818 1190 818 q 1078 773 1100 818 q 1056 669 1056 728 l 1056 524 q 1113 551 1083 540 q 1176 563 1143 563 q 1244 550 1213 563 q 1304 515 1276 538 l 1304 517 m 1192 132 l 1192 442 q 1167 467 1178 456 q 1146 486 1157 478 q 1122 499 1135 494 q 1093 503 1110 503 q 1074 501 1083 503 q 1056 497 1065 500 l 1056 151 q 1124 144 1090 150 q 1192 131 1158 138 l 1192 132 m 269 900 l 276 881 q 201 759 228 832 q 163 608 175 686 q 153 508 156 557 q 150 417 150 458 q 153 342 150 382 q 163 261 156 301 q 233 77 181 160 q 394 -6 285 -6 q 428 -5 411 -6 q 461 0 444 -4 l 461 836 l 399 800 l 399 272 q 361 156 399 203 q 265 99 324 108 l 247 117 q 283 140 271 124 q 297 172 294 156 q 299 180 299 176 q 299 188 299 183 l 299 743 l 243 715 l 231 733 l 556 919 l 574 919 q 739 722 685 833 q 793 475 793 611 l 815 476 q 831 503 818 493 q 860 515 844 514 l 860 606 q 888 687 860 658 q 949 732 915 715 q 973 743 961 738 q 994 753 985 749 l 1010 738 q 971 704 982 725 q 960 651 960 683 l 960 372 q 928 219 960 263 q 858 158 896 176 q 838 151 849 154 q 818 143 828 147 l 810 161 q 849 205 838 175 q 860 282 860 235 l 860 410 l 793 410 q 792 402 793 406 q 792 396 792 399 q 683 103 776 236 q 408 -31 589 -31 q 122 94 226 -31 q 17 394 17 218 q 77 681 17 547 q 269 899 138 814 l 269 900 m 486 285 l 486 6 q 605 99 561 32 q 669 240 649 165 q 673 256 671 249 q 676 272 675 264 q 652 283 665 278 q 625 290 639 288 q 602 293 614 292 q 581 294 590 294 q 528 292 550 294 q 486 283 506 290 l 486 285 m 486 547 l 486 311 q 528 317 506 315 q 581 319 550 319 q 601 318 590 319 q 625 315 613 317 q 655 308 640 313 q 681 297 669 303 q 690 360 688 328 q 693 425 693 392 q 692 466 693 446 q 688 506 690 486 q 685 526 686 515 q 682 546 683 536 q 647 538 665 542 q 610 533 628 535 q 592 533 601 533 q 574 532 583 532 q 559 533 567 532 q 544 533 551 533 q 515 538 529 535 q 486 546 500 542 l 486 547 m 486 846 l 486 569 q 512 563 497 565 q 540 560 526 561 q 559 558 550 558 q 576 557 568 557 q 591 557 583 557 q 606 558 599 557 q 642 564 624 560 q 675 574 660 568 q 606 725 654 653 q 486 844 557 797 l 486 846 m 1053 929 l 1075 918 q 1072 911 1074 914 q 1068 906 1069 908 q 1067 903 1068 904 q 1067 901 1067 903 q 1019 836 1044 865 q 947 807 993 807 q 926 810 936 807 q 906 817 915 814 q 902 819 904 818 q 899 819 900 819 q 891 822 894 821 q 883 825 888 824 q 874 828 879 826 q 865 831 869 829 q 842 838 854 835 q 815 840 831 840 q 785 826 796 840 q 775 793 775 813 q 775 789 775 792 q 776 785 775 786 q 790 763 779 772 q 811 749 800 753 l 807 735 q 764 765 776 740 q 750 817 751 789 q 750 819 750 818 q 750 822 750 821 q 780 890 750 863 q 849 918 810 918 q 889 915 871 918 q 924 906 907 911 q 958 897 940 900 q 994 893 975 893 q 1028 903 1014 893 q 1053 928 1042 913 l 1053 929 z "},"":{"ha":772,"x_min":10,"x_max":747,"o":"m 88 115 l 88 408 q 64 419 74 410 q 53 440 54 429 q 115 445 81 440 q 185 458 149 450 q 272 485 229 469 q 342 518 314 500 l 385 519 l 464 468 l 581 519 l 615 519 l 747 361 l 747 346 l 481 201 l 481 138 l 606 75 l 724 143 l 740 118 l 511 -17 l 490 -17 q 476 -3 483 -10 q 458 11 468 4 q 448 21 453 17 q 438 29 443 25 q 399 57 417 46 q 372 68 381 68 q 338 57 363 68 q 286 31 314 46 q 267 19 276 25 q 250 7 258 13 q 232 -6 240 0 q 217 -17 224 -11 l 196 -17 q 180 -2 189 -10 q 163 14 171 6 q 152 22 157 18 q 142 32 147 26 q 106 57 124 46 q 78 68 89 68 q 53 61 65 68 q 33 44 42 54 q 31 44 32 44 q 29 42 31 43 l 10 58 l 88 115 l 88 115 m 193 435 l 193 133 l 300 71 l 375 100 l 375 389 q 356 397 365 392 q 338 407 346 403 q 295 433 314 421 q 264 451 276 444 q 230 441 247 446 q 193 433 213 436 l 193 435 m 481 233 l 647 324 l 535 463 l 481 444 l 481 233 l 481 233 z "},"":{"ha":1389,"x_min":0,"x_max":1389,"o":"m 1389 222 l 0 222 l 0 281 l 1389 281 l 1389 222 l 1389 222 z "},"":{"ha":617,"x_min":53,"x_max":531,"o":"m 247 668 l 113 582 l 96 582 q 94 583 94 582 q 92 585 93 583 q 65 622 78 601 q 53 674 53 642 q 80 749 53 715 q 139 807 107 783 q 177 833 158 822 q 208 849 196 843 l 224 829 q 183 799 201 819 q 158 758 165 779 q 154 744 156 751 q 153 731 153 738 q 153 725 153 728 q 153 721 153 722 q 161 691 156 706 q 174 667 167 676 q 178 662 176 664 q 182 658 181 660 l 231 690 l 247 668 l 247 668 m 531 668 l 396 582 l 379 582 q 377 583 378 582 q 375 585 376 583 q 349 622 361 601 q 336 674 336 642 q 363 749 336 715 q 422 807 390 783 q 460 833 442 822 q 492 849 479 843 l 507 829 q 467 799 485 819 q 442 758 449 779 q 438 744 439 751 q 436 731 436 738 q 436 725 436 728 q 436 721 436 722 q 444 691 439 706 q 457 667 450 676 q 462 662 460 664 q 465 658 464 660 l 514 690 l 531 668 l 531 668 z "},"":{"ha":617,"x_min":86,"x_max":564,"o":"m 86 761 l 221 847 l 238 847 q 240 844 239 844 q 242 842 240 843 q 268 805 256 825 q 281 753 281 785 q 253 677 281 711 q 194 619 226 643 q 156 594 175 604 q 125 578 138 583 l 110 600 q 151 627 133 607 q 175 668 168 647 q 179 682 178 675 q 181 696 181 689 q 181 701 181 699 q 181 706 181 704 q 172 735 178 721 q 160 760 167 750 q 155 765 157 763 q 151 768 153 767 l 103 739 l 86 761 l 86 761 m 369 761 l 504 847 l 521 847 q 523 844 522 844 q 525 842 524 843 q 551 805 539 825 q 564 753 564 785 q 537 677 564 711 q 478 619 510 643 q 440 594 458 604 q 408 578 421 583 l 393 600 q 434 627 417 607 q 458 668 451 647 q 463 682 461 675 q 464 696 464 689 q 464 701 464 699 q 464 706 464 704 q 456 735 461 721 q 443 760 450 750 q 438 765 440 763 q 435 768 436 767 l 386 739 l 369 761 l 369 761 z "},"":{"ha":308,"x_min":50,"x_max":244,"o":"m 244 665 l 110 579 l 93 579 q 91 580 92 579 q 89 582 90 581 q 63 619 75 599 q 50 671 50 639 q 77 747 50 713 q 136 804 104 781 q 174 830 156 819 q 206 846 193 840 l 221 826 q 181 797 199 817 q 156 756 163 776 q 151 742 153 749 q 150 728 150 735 q 150 722 150 725 q 150 718 150 719 q 158 688 153 703 q 171 664 164 674 q 176 659 174 661 q 179 656 178 657 l 228 688 l 244 665 l 244 665 z "},"":{"ha":308,"x_min":64,"x_max":258,"o":"m 64 761 l 199 847 l 215 847 q 217 844 217 844 q 219 842 218 843 q 246 805 233 825 q 258 753 258 785 q 231 677 258 711 q 172 619 204 643 q 134 594 153 604 q 103 578 115 583 l 88 600 q 128 627 111 607 q 153 668 146 647 q 157 682 156 675 q 158 696 158 689 q 158 701 158 699 q 158 706 158 704 q 150 735 156 721 q 138 760 144 750 q 133 765 135 763 q 129 768 131 767 l 81 739 l 64 761 l 64 761 z "},"":{"ha":347,"x_min":0,"x_max":0,"o":""},"":{"ha":347,"x_min":0,"x_max":0,"o":""},"":{"ha":617,"x_min":7,"x_max":599,"o":"m 583 479 l 599 458 l 517 401 l 517 151 q 457 28 517 58 q 326 -12 397 -3 q 301 -17 314 -15 q 278 -19 289 -18 q 178 -39 221 -26 q 136 -93 136 -51 q 136 -96 136 -94 q 138 -99 136 -97 q 150 -118 139 -110 q 181 -126 161 -126 q 237 -119 207 -126 q 299 -101 267 -111 q 305 -99 301 -100 q 311 -99 308 -99 q 371 -84 340 -90 q 432 -78 401 -78 q 513 -101 478 -78 q 547 -175 547 -124 q 495 -274 547 -240 q 379 -319 443 -307 q 319 -328 349 -326 q 265 -331 289 -331 q 255 -331 260 -331 q 244 -331 250 -331 q 203 -325 224 -329 q 164 -315 182 -321 l 164 -293 q 217 -302 190 -299 q 269 -306 243 -306 q 317 -303 288 -306 q 379 -293 347 -300 q 468 -262 428 -283 q 508 -203 508 -240 q 495 -176 508 -187 q 460 -164 482 -164 q 408 -170 435 -164 q 353 -185 381 -176 q 347 -185 350 -185 q 340 -187 343 -186 q 274 -205 308 -197 q 203 -212 239 -212 q 130 -190 163 -212 q 97 -124 97 -168 q 134 -46 97 -71 q 215 -10 171 -21 q 229 -7 222 -8 q 243 -4 236 -6 l 243 -1 q 128 40 167 7 q 90 139 90 74 l 90 401 l 54 443 l 22 425 l 7 443 l 119 519 l 146 519 q 181 492 165 508 q 196 435 196 475 l 196 360 l 431 519 l 458 519 q 475 508 467 515 q 492 490 483 500 q 494 488 493 489 q 496 486 494 488 q 518 463 507 474 q 538 453 529 453 q 556 458 547 453 q 571 468 564 463 q 578 474 575 471 q 583 478 581 476 l 583 479 m 411 400 l 356 436 l 196 328 l 196 101 q 221 38 196 57 q 303 18 246 18 q 385 38 360 18 q 411 100 411 57 l 411 400 l 411 400 m 189 613 l 125 671 l 125 686 l 189 746 l 253 686 l 253 671 l 189 613 l 189 613 m 428 613 l 364 671 l 364 686 l 428 746 l 492 686 l 492 671 l 428 613 l 428 613 z "},"":{"ha":1003,"x_min":18,"x_max":982,"o":"m 44 714 l 19 714 q 76 860 18 803 q 222 918 133 918 q 358 861 310 918 q 406 719 406 804 l 496 767 l 496 919 l 521 919 l 521 783 l 714 888 q 725 892 719 889 q 736 899 731 896 q 744 903 740 901 q 753 908 749 906 q 770 915 761 913 q 786 918 779 918 q 815 905 796 918 q 856 875 835 892 q 858 874 857 875 q 858 874 858 874 q 900 843 881 857 q 928 829 919 829 q 945 831 938 829 q 958 836 953 833 q 963 838 961 838 q 967 840 965 839 l 982 824 l 892 765 l 892 221 q 807 45 892 97 q 621 -33 722 -7 q 568 -47 594 -40 q 517 -58 542 -53 q 398 -94 446 -74 q 350 -156 350 -114 q 367 -186 350 -179 q 404 -194 383 -193 q 410 -194 407 -194 q 417 -194 414 -194 q 501 -176 456 -194 q 594 -135 546 -158 q 697 -91 644 -111 q 800 -71 749 -71 q 808 -71 804 -71 q 814 -71 811 -71 q 903 -108 863 -76 q 944 -193 944 -140 q 910 -271 944 -249 q 835 -299 875 -293 q 804 -302 819 -301 q 776 -303 789 -303 l 758 -278 q 785 -277 769 -278 q 815 -275 800 -276 q 872 -259 846 -271 q 897 -221 897 -247 q 874 -181 897 -192 q 822 -171 850 -171 q 820 -171 821 -171 q 818 -171 819 -171 q 745 -190 789 -171 q 651 -232 701 -210 q 647 -234 650 -233 q 643 -236 644 -235 q 609 -251 626 -243 q 575 -265 592 -258 q 512 -286 543 -278 q 450 -294 481 -294 q 447 -294 449 -294 q 442 -294 444 -294 q 352 -267 393 -293 q 311 -185 311 -242 q 360 -76 311 -106 q 467 -31 408 -46 q 481 -28 474 -29 q 494 -24 488 -26 q 498 -23 496 -24 q 501 -22 500 -22 l 501 -19 q 355 31 421 -11 q 289 157 289 72 l 289 418 l 240 418 q 185 391 203 417 q 167 329 167 365 l 132 331 q 126 352 129 340 q 124 376 124 364 q 122 388 122 382 q 122 400 122 394 q 153 490 122 463 q 224 517 185 517 l 289 518 l 289 696 q 257 774 289 747 q 172 801 225 801 q 83 779 121 801 q 44 713 44 757 l 44 714 m 519 257 l 519 6 q 558 6 538 4 q 599 10 579 7 q 720 47 665 18 q 775 138 775 76 l 775 261 q 714 275 744 268 q 651 282 683 282 q 635 281 643 282 q 618 281 626 281 q 568 272 593 278 q 519 256 543 265 l 519 257 m 494 736 l 406 692 l 406 118 q 430 49 406 78 q 494 8 454 19 l 494 736 l 494 736 m 519 543 l 519 286 q 588 303 556 299 q 644 307 621 307 q 710 301 682 307 q 763 289 738 296 q 769 288 765 289 q 775 286 772 288 l 775 544 q 733 531 757 536 q 685 522 710 525 q 661 520 674 521 q 638 519 649 519 q 617 520 628 519 q 594 522 606 521 q 554 531 574 525 q 519 542 535 536 l 519 543 m 775 765 l 664 829 l 519 753 l 519 569 q 562 557 540 563 q 606 547 583 551 q 626 545 615 546 q 649 544 638 544 q 665 545 657 544 q 679 546 672 546 q 726 556 703 549 q 775 571 750 563 l 775 765 l 775 765 m 365 999 l 301 1057 l 301 1072 l 365 1132 l 429 1072 l 429 1057 l 365 999 l 365 999 m 604 999 l 540 1057 l 540 1072 l 604 1132 l 668 1072 l 668 1057 l 604 999 l 604 999 z "},"":{"ha":232,"x_min":-232,"x_max":464,"o":"m -232 -17 l 399 767 l 464 767 l -167 -17 l -232 -17 l -232 -17 z "},"":{"ha":694,"x_min":0,"x_max":694,"o":"m 0 85 l 76 164 q 21 262 39 208 q 3 372 3 315 q 3 380 3 376 q 3 388 3 383 q 23 493 6 442 q 79 585 40 544 l 0 665 l 57 721 l 136 644 q 230 697 178 678 q 336 718 282 715 q 344 718 340 718 q 351 718 347 718 q 360 718 356 718 q 368 718 364 718 q 469 697 419 715 q 558 643 518 678 l 636 722 l 694 664 l 618 589 q 672 496 654 547 q 692 390 689 444 q 692 383 692 386 q 692 375 692 379 q 692 361 692 368 q 690 349 692 354 q 671 249 688 297 q 619 161 654 200 l 693 85 l 638 29 l 563 110 q 463 49 518 68 q 350 29 407 29 q 234 47 290 29 q 132 108 178 65 l 57 29 l 0 85 l 0 85 m 347 639 q 165 561 242 638 q 89 374 89 485 q 165 187 89 264 q 347 110 242 110 q 530 187 454 110 q 606 374 606 264 q 530 561 606 485 q 347 638 454 638 l 347 639 z "},"":{"ha":463,"x_min":107,"x_max":357,"o":"m 353 454 l 196 256 l 357 49 l 269 49 l 107 254 l 269 454 l 353 454 l 353 454 z "},"":{"ha":463,"x_min":106,"x_max":356,"o":"m 110 49 l 267 249 l 106 454 l 193 454 l 356 249 l 193 49 l 110 49 l 110 49 z "},"":{"ha":694,"x_min":11,"x_max":686,"o":"m 47 519 l 121 519 l 121 601 q 119 640 121 619 q 115 681 118 660 q 113 709 114 694 q 108 739 111 724 q 108 750 108 744 q 106 761 107 756 q 131 770 118 765 q 157 781 143 775 q 223 817 190 796 q 278 869 256 839 l 297 871 q 299 866 299 868 q 301 863 300 864 q 317 843 308 853 q 335 828 326 833 q 346 822 340 824 q 356 819 351 819 q 376 824 367 819 q 390 832 385 828 q 392 833 392 832 q 393 835 393 833 l 407 829 q 378 759 401 785 q 318 733 354 733 q 269 743 292 733 q 232 774 247 753 l 226 772 l 226 519 l 304 519 q 328 524 317 518 q 344 540 339 529 l 363 531 l 325 447 l 226 447 l 226 122 l 299 71 l 349 104 l 363 88 l 219 -17 l 197 -17 q 184 -6 192 -11 q 168 6 176 0 q 158 14 164 10 q 149 21 153 18 q 117 41 132 33 q 93 49 103 49 q 79 46 88 49 q 63 39 71 43 q 54 35 58 38 q 47 31 50 33 q 35 24 40 28 q 26 18 31 21 l 11 35 l 121 110 l 121 447 l 72 447 q 48 443 60 446 q 28 431 36 440 l 13 439 l 47 519 l 47 519 m 367 421 l 506 519 l 526 519 q 535 508 531 514 q 544 496 539 501 q 571 471 556 482 q 603 460 586 460 q 617 463 608 460 q 633 472 625 467 q 641 476 638 474 q 647 481 644 479 q 656 486 651 483 q 663 492 660 489 l 679 476 l 567 396 l 567 140 q 578 103 567 119 q 604 78 590 88 q 615 71 610 74 q 625 67 621 68 l 672 99 l 686 81 l 553 -17 l 519 -17 q 509 -8 515 -12 q 497 1 503 -3 q 472 31 483 14 q 461 65 461 47 l 461 404 l 429 436 l 389 407 l 367 421 l 367 421 m 385 689 l 508 789 l 525 789 l 592 735 l 631 764 l 646 746 l 526 644 l 508 644 l 443 703 l 404 672 l 385 689 l 385 689 z "},"":{"ha":694,"x_min":11,"x_max":681,"o":"m 47 519 l 121 519 l 121 601 q 119 640 121 619 q 115 681 118 660 q 113 709 114 694 q 108 739 111 724 q 108 750 108 744 q 106 761 107 756 q 131 770 118 765 q 157 781 143 775 q 223 817 190 796 q 278 869 256 839 l 297 871 q 299 866 299 868 q 301 863 300 864 q 317 843 308 853 q 335 828 326 833 q 346 822 340 824 q 356 819 351 819 q 376 824 367 819 q 390 832 385 828 q 392 833 392 832 q 393 835 393 833 l 407 829 q 378 759 401 785 q 318 733 354 733 q 269 743 292 733 q 232 774 247 753 l 226 772 l 226 519 l 304 519 q 328 524 317 518 q 344 540 339 529 l 363 531 l 325 447 l 226 447 l 226 122 l 299 71 l 349 104 l 363 88 l 219 -17 l 197 -17 q 184 -6 192 -11 q 168 6 176 0 q 158 14 164 10 q 149 21 153 18 q 117 41 132 33 q 93 49 103 49 q 79 46 88 49 q 63 39 71 43 q 54 35 58 38 q 47 31 50 33 q 35 24 40 28 q 26 18 31 21 l 11 35 l 121 110 l 121 447 l 72 447 q 48 443 60 446 q 28 431 36 440 l 13 439 l 47 519 l 47 519 m 449 814 l 468 826 l 500 758 q 506 765 503 761 q 513 772 510 768 q 517 777 515 775 q 521 782 519 779 q 563 832 542 807 q 611 879 585 857 l 626 860 q 592 803 604 835 q 574 738 579 771 q 568 699 569 718 q 567 661 567 679 l 567 113 l 629 71 l 665 94 l 681 78 l 557 -17 l 531 -17 q 514 1 522 -7 q 497 15 506 8 q 465 39 481 31 q 435 47 449 47 q 429 47 432 47 q 424 46 426 46 q 408 39 415 43 q 393 31 400 35 q 385 26 389 29 q 379 22 382 24 l 360 43 l 461 96 l 461 708 q 460 726 461 717 q 460 746 460 736 q 454 781 457 764 q 449 813 451 799 l 449 814 z "},"":{"ha":617,"x_min":31,"x_max":575,"o":"m 72 542 l 57 494 l 31 494 l 78 633 l 253 633 l 253 861 q 299 882 276 868 q 342 911 321 896 q 347 915 344 913 q 353 918 350 917 l 353 633 l 533 633 l 553 678 l 575 678 l 529 542 l 353 542 l 353 74 l 536 74 l 551 115 l 575 115 l 532 -18 l 353 -18 l 353 -247 q 336 -253 344 -250 q 319 -260 328 -257 q 288 -279 304 -268 q 253 -301 271 -290 l 253 -18 l 74 -18 l 57 -62 l 31 -62 l 81 74 l 253 74 l 253 542 l 72 542 l 72 542 z "},"":{"ha":347,"x_min":15,"x_max":332,"o":"m 15 222 l 176 329 l 190 329 l 275 268 l 317 297 l 332 282 l 175 174 l 161 174 l 81 233 l 33 204 l 15 222 l 15 222 z "},"":{"ha":347,"x_min":0,"x_max":0,"o":""},"":{"ha":617,"x_min":86,"x_max":564,"o":"m 86 18 l 221 104 l 238 104 q 240 101 239 101 q 242 99 240 100 q 268 62 256 82 q 281 10 281 42 q 253 -65 281 -31 q 194 -122 226 -99 q 156 -148 175 -137 q 125 -164 138 -158 l 110 -143 q 151 -115 133 -135 q 175 -74 168 -94 q 179 -60 178 -67 q 181 -46 181 -53 q 181 -40 181 -43 q 181 -36 181 -37 q 172 -7 178 -21 q 160 17 167 7 q 155 22 157 19 q 151 25 153 24 l 103 -4 l 86 18 l 86 18 m 369 18 l 504 104 l 521 104 q 523 101 522 101 q 525 99 524 100 q 551 62 539 82 q 564 10 564 42 q 537 -65 564 -31 q 478 -122 510 -99 q 440 -148 458 -137 q 408 -164 421 -158 l 393 -143 q 434 -115 417 -135 q 458 -74 451 -94 q 463 -60 461 -67 q 464 -46 464 -53 q 464 -40 464 -43 q 464 -36 464 -37 q 456 -7 461 -21 q 443 17 450 7 q 438 22 440 19 q 435 25 436 24 l 386 -4 l 369 18 l 369 18 z "},"":{"ha":1389,"x_min":-67,"x_max":1467,"o":"m 150 -17 l 707 767 l 765 767 l 210 -17 l 150 -17 l 150 -17 m 926 338 l 926 107 l 951 93 l 951 74 q 915 68 933 71 q 876 61 896 65 q 778 27 825 49 q 708 -17 731 6 l 675 -17 q 663 -6 671 -12 q 644 8 656 0 q 626 22 636 15 q 607 32 617 28 q 592 37 599 35 q 578 39 585 39 q 565 37 571 39 q 556 32 560 35 q 551 30 553 31 q 549 28 550 29 l 536 51 l 592 93 l 592 328 q 581 333 586 329 q 565 347 575 338 l 565 365 q 674 384 629 371 q 750 413 718 397 q 790 435 774 425 q 819 454 807 446 l 843 456 q 857 442 844 453 q 883 419 869 431 q 886 417 885 418 q 889 415 888 417 q 917 393 904 403 q 933 383 929 383 q 938 383 936 383 q 943 385 940 383 q 964 390 954 386 q 981 400 974 394 l 992 382 l 926 338 l 926 338 m 686 367 l 686 97 l 772 57 l 832 81 l 832 342 l 757 389 l 686 367 l 686 367 m 1401 338 l 1401 107 l 1426 93 l 1426 74 q 1390 68 1408 71 q 1351 61 1371 65 q 1253 27 1300 49 q 1183 -17 1206 6 l 1150 -17 q 1138 -6 1146 -12 q 1119 8 1131 0 q 1101 22 1111 15 q 1082 32 1092 28 q 1067 37 1074 35 q 1053 39 1060 39 q 1040 37 1046 39 q 1031 32 1035 35 q 1026 30 1028 31 q 1024 28 1025 29 l 1011 51 l 1067 93 l 1067 328 q 1056 333 1061 329 q 1040 347 1050 338 l 1040 365 q 1149 384 1104 371 q 1225 413 1193 397 q 1265 435 1249 425 q 1294 454 1282 446 l 1318 456 q 1332 442 1319 453 q 1358 419 1344 431 q 1361 417 1360 418 q 1364 415 1363 417 q 1392 393 1379 403 q 1408 383 1404 383 q 1413 383 1411 383 q 1418 385 1415 383 q 1439 390 1429 386 q 1456 400 1449 394 l 1467 382 l 1401 338 l 1401 338 m 1161 367 l 1161 97 l 1247 57 l 1307 81 l 1307 342 l 1232 389 l 1161 367 l 1161 367 m 324 649 l 324 418 l 349 404 l 349 385 q 312 379 331 382 q 274 372 293 376 q 175 338 222 360 q 106 293 128 317 l 72 294 q 60 304 68 297 q 42 319 53 311 q 24 333 33 326 q 3 343 14 339 q -10 348 -3 346 q -24 350 -17 350 q -36 348 -31 350 q -46 343 -42 346 q -50 341 -49 342 q -53 339 -51 340 l -67 363 l -11 404 l -11 639 q -21 644 -15 640 q -36 658 -26 649 l -37 676 q 71 695 26 682 q 147 724 115 708 q 188 747 171 736 q 217 765 204 757 l 240 767 q 254 753 242 764 q 281 731 267 742 q 283 728 282 729 q 286 726 285 728 q 314 704 301 714 q 331 694 326 694 q 335 694 333 694 q 340 696 338 694 q 361 701 351 697 q 378 711 371 706 l 389 693 l 324 649 l 324 649 m 83 676 l 83 407 l 169 367 l 229 390 l 229 651 l 154 699 l 83 676 l 83 676 z "},"":{"ha":1157,"x_min":32,"x_max":1125,"o":"m 828 279 l 417 279 l 343 119 q 348 118 346 118 q 351 118 350 118 q 474 105 415 117 q 568 63 533 93 l 647 114 l 664 99 l 476 -31 l 444 -31 q 429 -21 438 -26 q 411 -10 421 -15 q 343 17 383 4 q 250 29 303 29 q 233 28 242 29 q 215 26 224 28 q 106 -19 156 18 q 57 -121 57 -56 q 113 -233 57 -200 q 235 -274 168 -265 q 276 -277 256 -276 q 314 -278 296 -278 q 366 -274 340 -278 q 417 -265 392 -271 l 425 -293 q 403 -295 414 -294 q 383 -297 393 -296 q 348 -301 365 -300 q 313 -303 331 -303 q 276 -302 294 -303 q 239 -299 257 -301 q 97 -251 161 -290 q 32 -121 32 -212 q 89 13 32 -44 q 215 96 146 69 q 265 113 240 107 q 311 118 289 118 l 503 543 q 468 576 489 564 q 419 588 447 588 q 366 572 392 588 q 326 531 340 556 l 306 540 q 360 641 321 600 q 468 682 400 682 q 513 677 492 682 q 554 660 535 672 l 608 775 q 565 797 589 789 q 518 808 542 806 q 505 810 511 810 q 493 810 499 810 q 433 801 458 810 q 385 775 408 792 q 367 761 375 768 q 349 746 358 754 l 331 757 q 416 869 358 821 q 547 918 474 918 q 610 906 581 918 q 665 875 639 894 l 688 919 l 706 919 q 726 831 713 872 q 757 749 740 789 l 1007 142 q 1021 114 1013 126 q 1038 90 1029 101 q 1057 70 1047 78 q 1072 61 1067 63 l 1111 85 l 1125 68 l 1028 -3 q 1021 -8 1025 -6 q 1014 -14 1017 -11 q 1013 -15 1013 -15 q 1011 -15 1013 -15 q 1002 -24 1007 -21 q 994 -31 997 -28 l 968 -31 q 918 40 940 -6 q 878 136 896 86 q 851 213 864 175 q 828 278 839 250 l 828 279 m 783 379 l 626 756 l 458 379 l 783 379 l 783 379 m 622 1160 l 714 1160 l 825 972 l 797 972 l 669 1078 l 543 972 l 510 972 l 622 1160 l 622 1160 z "},"":{"ha":1003,"x_min":15,"x_max":982,"o":"m 493 163 l 493 692 q 570 856 494 793 q 743 918 646 918 q 805 908 776 918 q 861 886 833 899 q 884 874 872 879 q 907 861 896 868 q 915 858 911 860 q 921 854 918 856 l 967 885 l 982 867 l 815 744 q 784 771 799 758 q 756 793 769 783 q 706 820 732 811 q 638 829 679 829 q 619 828 629 829 q 600 824 610 826 q 544 784 569 814 q 518 690 518 754 l 518 524 q 596 569 554 550 q 683 589 638 589 q 767 571 732 589 q 833 517 803 553 l 892 558 l 911 535 l 743 425 l 743 132 q 806 103 775 119 q 865 68 836 88 l 915 104 l 932 85 l 774 -31 l 738 -31 q 710 -13 733 -28 q 647 19 686 1 q 540 56 603 39 q 399 72 478 72 q 359 70 379 72 q 318 64 339 68 q 192 10 249 50 q 135 -107 135 -31 q 189 -222 135 -181 q 308 -274 243 -262 q 333 -276 321 -275 q 358 -278 346 -278 q 458 -271 408 -278 q 551 -249 507 -264 l 571 -271 q 467 -294 518 -286 q 364 -303 415 -303 q 348 -302 356 -303 q 332 -301 340 -301 q 179 -245 249 -294 q 110 -103 110 -196 q 187 51 110 -10 q 357 140 264 113 q 428 156 393 150 q 493 161 463 161 l 493 163 m 518 493 l 518 163 q 617 156 567 161 q 718 140 667 151 l 718 397 q 687 467 717 439 q 622 507 657 496 q 601 512 611 510 q 581 514 590 514 q 549 508 564 514 q 518 492 533 501 l 518 493 m 438 753 l 447 736 q 439 730 443 733 q 431 722 435 726 q 410 693 419 711 q 401 651 401 675 l 401 297 q 359 203 401 239 q 256 143 317 167 l 243 171 q 249 172 246 171 q 254 175 251 174 q 275 196 265 182 q 285 231 285 210 l 285 406 l 257 406 q 190 394 210 404 q 160 350 169 385 l 135 351 q 153 466 135 419 q 228 513 172 513 l 286 514 l 285 613 q 315 679 285 651 q 383 725 346 707 q 411 740 397 733 q 438 751 425 746 l 438 753 m 519 918 l 533 908 q 433 806 488 836 q 294 776 378 776 q 246 783 271 776 q 196 796 221 789 q 149 809 172 803 q 106 815 125 815 q 60 797 79 815 q 40 750 40 778 q 56 699 40 722 q 93 661 71 676 l 79 644 q 67 653 74 649 q 57 664 61 658 q 26 706 36 683 q 15 761 15 728 q 57 851 15 813 q 149 906 99 889 q 182 915 165 913 q 214 918 199 918 q 249 915 231 918 q 285 908 267 913 q 308 902 296 906 q 332 896 321 899 q 383 883 360 889 q 421 876 407 876 q 473 888 449 876 q 519 917 497 899 l 519 918 m 472 1160 l 564 1160 l 675 972 l 647 972 l 519 1078 l 393 972 l 360 972 l 472 1160 l 472 1160 z "}}}
